{
copyright = "Copyright (c) 2015, Cadson Demak (info@cadsondemak.com)";
customParameters = (
{
name = vendorID;
value = CDK;
},
{
name = description;
value = "Copyright (c) 2015, Cadson Demak (info@cadsondemak.com)";
},
{
name = license;

glyphs = (
{
glyphname = A;
lastChange = "2015-11-29 16:07:49 +0000";
layers = (
{
layerId = "AD8C1534-DD1F-4D30-8D71-C3A36519B1B2";
name = "Bold Italic";
paths = (
{
closed = 1;
nodes = (
"191 0 LINE",
"194 16 LINE",
"170 26 OFFCURVE",
"148 35 OFFCURVE",
"120 39 CURVE",
"407 562 LINE",
"477 41 LINE",
"459 38 OFFCURVE",
"432 32 OFFCURVE",
"396 20 CURVE",
"392 0 LINE",
"693 0 LINE",
"696 18 LINE",
"673 27 OFFCURVE",
"649 35 OFFCURVE",
"626 40 CURVE",
"523 704 LINE",
"415 704 LINE",
"43 42 LINE",
"34 41 OFFCURVE",
"-9 30 OFFCURVE",
"-37 21 CURVE",
"-41 0 LINE"
);
},
{
closed = 1;
nodes = (
"499 178 LINE",
"509 228 LINE",
"182 228 LINE",
"172 178 LINE"
);
}
);
width = 746;
}
);
leftKerningGroup = A;
note = A;
rightKerningGroup = A;
unicode = 0041;
},
{
glyphname = Aacute;
lastChange = "2015-11-29 16:07:49 +0000";
layers = (
{
layerId = "AD8C1534-DD1F-4D30-8D71-C3A36519B1B2";
name = "Bold Italic";
paths = (
{
closed = 1;
nodes = (
"191 0 LINE",
"194 16 LINE",
"170 26 OFFCURVE",
"148 35 OFFCURVE",
"120 39 CURVE",
"407 562 LINE",
"477 41 LINE",
"459 38 OFFCURVE",
"432 32 OFFCURVE",
"396 20 CURVE",
"392 0 LINE",
"693 0 LINE",
"696 18 LINE",
"673 27 OFFCURVE",
"649 35 OFFCURVE",
"626 40 CURVE",
"523 704 LINE",
"415 704 LINE",
"43 42 LINE",
"34 41 OFFCURVE",
"-9 30 OFFCURVE",
"-37 21 CURVE",
"-41 0 LINE"
);
},
{
closed = 1;
nodes = (
"499 178 LINE",
"509 228 LINE",
"182 228 LINE",
"172 178 LINE"
);
},
{
closed = 1;
nodes = (
"584 879 LINE SMOOTH",
"619 898 OFFCURVE",
"639 916 OFFCURVE",
"644 940 CURVE SMOOTH",
"648 959 OFFCURVE",
"638 982 OFFCURVE",
"606 982 CURVE SMOOTH",
"574 982 OFFCURVE",
"545 954 OFFCURVE",
"538 947 CURVE",
"395 821 LINE",
"412 786 LINE"
);
}
);
width = 746;
}
);
leftKerningGroup = A;
note = Aacute;
rightKerningGroup = A;
unicode = 00C1;
},
{
glyphname = Abreve;
lastChange = "2015-11-29 16:07:48 +0000";
layers = (
{
layerId = "AD8C1534-DD1F-4D30-8D71-C3A36519B1B2";
name = "Bold Italic";
paths = (
{
closed = 1;
nodes = (
"191 0 LINE",
"194 16 LINE",
"170 26 OFFCURVE",
"148 35 OFFCURVE",
"120 39 CURVE",
"407 562 LINE",
"477 41 LINE",
"459 38 OFFCURVE",
"432 32 OFFCURVE",
"396 20 CURVE",
"392 0 LINE",
"693 0 LINE",
"696 18 LINE",
"673 27 OFFCURVE",
"649 35 OFFCURVE",
"626 40 CURVE",
"523 704 LINE",
"415 704 LINE",
"43 42 LINE",
"34 41 OFFCURVE",
"-9 30 OFFCURVE",
"-37 21 CURVE",
"-41 0 LINE"
);
},
{
closed = 1;
nodes = (
"499 178 LINE",
"509 228 LINE",
"182 228 LINE",
"172 178 LINE"
);
},
{
closed = 1;
nodes = (
"579 781 OFFCURVE",
"652 824 OFFCURVE",
"685 915 CURVE",
"603 915 LINE",
"580 842 OFFCURVE",
"534 833 OFFCURVE",
"495 833 CURVE SMOOTH",
"456 833 OFFCURVE",
"412 842 OFFCURVE",
"420 915 CURVE",
"339 915 LINE",
"335 824 OFFCURVE",
"390 781 OFFCURVE",
"484 781 CURVE SMOOTH"
);
}
);
width = 746;
}
);
leftKerningGroup = A;
note = Abreve;
rightKerningGroup = A;
unicode = 0102;
},
{
glyphname = Abreveacute;
lastChange = "2015-11-29 16:07:49 +0000";
layers = (
{
layerId = "AD8C1534-DD1F-4D30-8D71-C3A36519B1B2";
name = "Bold Italic";
paths = (
{
closed = 1;
nodes = (
"191 0 LINE",
"194 16 LINE",
"170 26 OFFCURVE",
"148 35 OFFCURVE",
"120 39 CURVE",
"407 562 LINE",
"477 41 LINE",
"459 38 OFFCURVE",
"432 32 OFFCURVE",
"396 20 CURVE",
"392 0 LINE",
"693 0 LINE",
"696 18 LINE",
"673 27 OFFCURVE",
"649 35 OFFCURVE",
"626 40 CURVE",
"523 704 LINE",
"415 704 LINE",
"43 42 LINE",
"34 41 OFFCURVE",
"-9 30 OFFCURVE",
"-37 21 CURVE",
"-41 0 LINE"
);
},
{
closed = 1;
nodes = (
"499 178 LINE",
"509 228 LINE",
"182 228 LINE",
"172 178 LINE"
);
},
{
closed = 1;
nodes = (
"578 781 OFFCURVE",
"651 824 OFFCURVE",
"684 915 CURVE",
"602 915 LINE",
"580 842 OFFCURVE",
"534 833 OFFCURVE",
"495 833 CURVE SMOOTH",
"455 833 OFFCURVE",
"412 842 OFFCURVE",
"420 915 CURVE",
"337 915 LINE",
"334 824 OFFCURVE",
"390 781 OFFCURVE",
"484 781 CURVE SMOOTH"
);
},
{
closed = 1;
nodes = (
"612 975 LINE SMOOTH",
"653 995 OFFCURVE",
"680 1020 OFFCURVE",
"685 1044 CURVE SMOOTH",
"689 1063 OFFCURVE",
"678 1084 OFFCURVE",
"649 1084 CURVE SMOOTH",
"625 1084 OFFCURVE",
"598 1065 OFFCURVE",
"572 1040 CURVE SMOOTH",
"481 952 LINE",
"499 921 LINE"
);
}
);
width = 746;
}
);
leftKerningGroup = A;
note = Abreveacute;
rightKerningGroup = A;
unicode = 1EAE;
},
{
glyphname = Abrevedotbelow;
lastChange = "2015-11-29 16:07:48 +0000";
layers = (
{
layerId = "AD8C1534-DD1F-4D30-8D71-C3A36519B1B2";
name = "Bold Italic";
paths = (
{
closed = 1;
nodes = (
"191 0 LINE",
"194 16 LINE",
"170 26 OFFCURVE",
"148 35 OFFCURVE",
"120 39 CURVE",
"407 562 LINE",
"477 41 LINE",
"459 38 OFFCURVE",
"432 32 OFFCURVE",
"396 20 CURVE",
"392 0 LINE",
"693 0 LINE",
"696 18 LINE",
"673 27 OFFCURVE",
"649 35 OFFCURVE",
"626 40 CURVE",
"523 704 LINE",
"415 704 LINE",
"43 42 LINE",
"34 41 OFFCURVE",
"-9 30 OFFCURVE",
"-37 21 CURVE",
"-41 0 LINE"
);
},
{
closed = 1;
nodes = (
"321 -178 OFFCURVE",
"349 -151 OFFCURVE",
"357 -116 CURVE SMOOTH",
"364 -81 OFFCURVE",
"346 -54 OFFCURVE",
"310 -54 CURVE SMOOTH",
"274 -54 OFFCURVE",
"245 -81 OFFCURVE",
"239 -116 CURVE SMOOTH",
"231 -151 OFFCURVE",
"249 -178 OFFCURVE",
"285 -178 CURVE SMOOTH"
);
},
{
closed = 1;
nodes = (
"499 178 LINE",
"509 228 LINE",
"182 228 LINE",
"172 178 LINE"
);
},
{
closed = 1;
nodes = (
"578 781 OFFCURVE",
"652 824 OFFCURVE",
"684 915 CURVE",
"602 915 LINE",
"580 842 OFFCURVE",
"534 833 OFFCURVE",
"494 833 CURVE SMOOTH",
"455 833 OFFCURVE",
"412 842 OFFCURVE",
"419 915 CURVE",
"338 915 LINE",
"334 824 OFFCURVE",
"390 781 OFFCURVE",
"484 781 CURVE SMOOTH"
);
}
);
width = 746;
}
);
leftKerningGroup = A;
note = Abrevedotbelow;
rightKerningGroup = A;
unicode = 1EB6;
},
{
glyphname = Abrevegrave;
lastChange = "2015-11-29 16:07:48 +0000";
layers = (
{
layerId = "AD8C1534-DD1F-4D30-8D71-C3A36519B1B2";
name = "Bold Italic";
paths = (
{
closed = 1;
nodes = (
"191 0 LINE",
"194 16 LINE",
"170 26 OFFCURVE",
"148 35 OFFCURVE",
"120 39 CURVE",
"407 562 LINE",
"477 41 LINE",
"459 38 OFFCURVE",
"432 32 OFFCURVE",
"396 20 CURVE",
"392 0 LINE",
"693 0 LINE",
"696 18 LINE",
"673 27 OFFCURVE",
"649 35 OFFCURVE",
"626 40 CURVE",
"523 704 LINE",
"415 704 LINE",
"43 42 LINE",
"34 41 OFFCURVE",
"-9 30 OFFCURVE",
"-37 21 CURVE",
"-41 0 LINE"
);
},
{
closed = 1;
nodes = (
"499 178 LINE",
"509 228 LINE",
"182 228 LINE",
"172 178 LINE"
);
},
{
closed = 1;
nodes = (
"578 781 OFFCURVE",
"651 824 OFFCURVE",
"684 915 CURVE",
"602 915 LINE",
"580 842 OFFCURVE",
"534 833 OFFCURVE",
"495 833 CURVE SMOOTH",
"455 833 OFFCURVE",
"412 842 OFFCURVE",
"420 915 CURVE",
"337 915 LINE",
"333 824 OFFCURVE",
"390 781 OFFCURVE",
"484 781 CURVE SMOOTH"
);
},
{
closed = 1;
nodes = (
"554 952 LINE",
"501 1040 LINE SMOOTH",
"484 1065 OFFCURVE",
"464 1084 OFFCURVE",
"439 1084 CURVE SMOOTH",
"410 1084 OFFCURVE",
"392 1063 OFFCURVE",
"388 1044 CURVE SMOOTH",
"383 1020 OFFCURVE",
"399 995 OFFCURVE",
"433 975 CURVE SMOOTH",
"525 921 LINE"
);
}
);
width = 746;
}
);
leftKerningGroup = A;
note = Abrevegrave;
rightKerningGroup = A;
unicode = 1EB0;
},
{
glyphname = Abrevehookabove;
lastChange = "2015-11-29 16:07:47 +0000";
layers = (
{
layerId = "AD8C1534-DD1F-4D30-8D71-C3A36519B1B2";
name = "Bold Italic";
paths = (
{
closed = 1;
nodes = (
"191 0 LINE",
"194 16 LINE",
"170 26 OFFCURVE",
"148 35 OFFCURVE",
"120 39 CURVE",
"407 562 LINE",
"477 41 LINE",
"459 38 OFFCURVE",
"432 32 OFFCURVE",
"396 20 CURVE",
"392 0 LINE",
"693 0 LINE",
"696 18 LINE",
"673 27 OFFCURVE",
"649 35 OFFCURVE",
"626 40 CURVE",
"523 704 LINE",
"415 704 LINE",
"43 42 LINE",
"34 41 OFFCURVE",
"-9 30 OFFCURVE",
"-37 21 CURVE",
"-41 0 LINE"
);
},
{
closed = 1;
nodes = (
"499 178 LINE",
"509 228 LINE",
"182 228 LINE",
"172 178 LINE"
);
},
{
closed = 1;
nodes = (
"578 781 OFFCURVE",
"651 824 OFFCURVE",
"684 915 CURVE",
"602 915 LINE",
"580 842 OFFCURVE",
"534 833 OFFCURVE",
"495 833 CURVE SMOOTH",
"455 833 OFFCURVE",
"412 842 OFFCURVE",
"420 915 CURVE",
"337 915 LINE",
"334 824 OFFCURVE",
"390 781 OFFCURVE",
"484 781 CURVE SMOOTH"
);
},
{
closed = 1;
nodes = (
"542 932 LINE",
"560 980 LINE",
"606 984 OFFCURVE",
"644 1002 OFFCURVE",
"654 1055 CURVE SMOOTH",
"666 1113 OFFCURVE",
"621 1135 OFFCURVE",
"570 1135 CURVE SMOOTH",
"542 1135 OFFCURVE",
"514 1128 OFFCURVE",
"495 1120 CURVE",
"493 1084 LINE",
"511 1092 OFFCURVE",
"532 1096 OFFCURVE",
"548 1096 CURVE SMOOTH",
"582 1096 OFFCURVE",
"596 1078 OFFCURVE",
"591 1056 CURVE SMOOTH",
"584 1023 OFFCURVE",
"557 1011 OFFCURVE",
"533 1011 CURVE SMOOTH",
"502 1011 LINE",
"489 932 LINE"
);
}
);
width = 746;
}
);
leftKerningGroup = A;
note = Abrevehookabove;
rightKerningGroup = A;
unicode = 1EB2;
},
{
glyphname = Abrevetilde;
lastChange = "2015-11-29 16:07:49 +0000";
layers = (
{
layerId = "AD8C1534-DD1F-4D30-8D71-C3A36519B1B2";
name = "Bold Italic";
paths = (
{
closed = 1;
nodes = (
"191 0 LINE",
"194 16 LINE",
"170 26 OFFCURVE",
"148 35 OFFCURVE",
"120 39 CURVE",
"407 562 LINE",
"477 41 LINE",
"459 38 OFFCURVE",
"432 32 OFFCURVE",
"396 20 CURVE",
"392 0 LINE",
"693 0 LINE",
"696 18 LINE",
"673 27 OFFCURVE",
"649 35 OFFCURVE",
"626 40 CURVE",
"523 704 LINE",
"415 704 LINE",
"43 42 LINE",
"34 41 OFFCURVE",
"-9 30 OFFCURVE",
"-37 21 CURVE",
"-41 0 LINE"
);
},
{
closed = 1;
nodes = (
"499 178 LINE",
"509 228 LINE",
"182 228 LINE",
"172 178 LINE"
);
},
{
closed = 1;
nodes = (
"578 781 OFFCURVE",
"651 824 OFFCURVE",
"684 915 CURVE",
"602 915 LINE",
"580 842 OFFCURVE",
"534 833 OFFCURVE",
"495 833 CURVE SMOOTH",
"455 833 OFFCURVE",
"412 842 OFFCURVE",
"420 915 CURVE",
"337 915 LINE",
"334 824 OFFCURVE",
"390 781 OFFCURVE",
"484 781 CURVE SMOOTH"
);
},
{
closed = 1;
nodes = (
"392 978 LINE",
"404 1010 OFFCURVE",
"432 1030 OFFCURVE",
"463 1030 CURVE SMOOTH",
"506 1030 OFFCURVE",
"534 979 OFFCURVE",
"590 979 CURVE SMOOTH",
"661 979 OFFCURVE",
"706 1025 OFFCURVE",
"728 1095 CURVE",
"679 1095 LINE",
"659 1050 OFFCURVE",
"624 1041 OFFCURVE",
"601 1041 CURVE SMOOTH",
"563 1041 OFFCURVE",
"547 1092 OFFCURVE",
"479 1092 CURVE SMOOTH",
"415 1092 OFFCURVE",
"367 1054 OFFCURVE",
"342 978 CURVE"
);
}
);
width = 746;
}
);
leftKerningGroup = A;
note = Abrevetilde;
rightKerningGroup = A;
unicode = 1EB4;
},
{
glyphname = Acaron;
lastChange = "2015-11-29 16:07:47 +0000";
layers = (
{
layerId = "AD8C1534-DD1F-4D30-8D71-C3A36519B1B2";
name = "Bold Italic";
paths = (
{
closed = 1;
nodes = (
"191 0 LINE",
"194 16 LINE",
"170 26 OFFCURVE",
"148 35 OFFCURVE",
"120 39 CURVE",
"407 562 LINE",
"477 41 LINE",
"459 38 OFFCURVE",
"432 32 OFFCURVE",
"396 20 CURVE",
"392 0 LINE",
"693 0 LINE",
"696 18 LINE",
"673 27 OFFCURVE",
"649 35 OFFCURVE",
"626 40 CURVE",
"523 704 LINE",
"415 704 LINE",
"43 42 LINE",
"34 41 OFFCURVE",
"-9 30 OFFCURVE",
"-37 21 CURVE",
"-41 0 LINE"
);
},
{
closed = 1;
nodes = (
"499 178 LINE",
"509 228 LINE",
"182 228 LINE",
"172 178 LINE"
);
},
{
closed = 1;
nodes = (
"460 786 OFFCURVE",
"511 786 OFFCURVE",
"520 786 CURVE",
"550 822 OFFCURVE",
"650 900 OFFCURVE",
"698 929 CURVE",
"648 974 LINE",
"601 942 OFFCURVE",
"530 882 OFFCURVE",
"499 846 CURVE",
"498 846 OFFCURVE",
"496 846 OFFCURVE",
"495 846 CURVE",
"481 882 OFFCURVE",
"434 942 OFFCURVE",
"401 974 CURVE",
"332 929 LINE",
"368 900 OFFCURVE",
"435 822 OFFCURVE",
"451 786 CURVE"
);
}
);
width = 746;
}
);
leftKerningGroup = A;
note = Acaron;
rightKerningGroup = A;
unicode = 01CD;
},
{
glyphname = Acircumflex;
lastChange = "2015-11-29 16:07:48 +0000";
layers = (
{
layerId = "AD8C1534-DD1F-4D30-8D71-C3A36519B1B2";
name = "Bold Italic";
paths = (
{
closed = 1;
nodes = (
"191 0 LINE",
"194 16 LINE",
"170 26 OFFCURVE",
"148 35 OFFCURVE",
"120 39 CURVE",
"407 562 LINE",
"477 41 LINE",
"459 38 OFFCURVE",
"432 32 OFFCURVE",
"396 20 CURVE",
"392 0 LINE",
"693 0 LINE",
"696 18 LINE",
"673 27 OFFCURVE",
"649 35 OFFCURVE",
"626 40 CURVE",
"523 704 LINE",
"415 704 LINE",
"43 42 LINE",
"34 41 OFFCURVE",
"-9 30 OFFCURVE",
"-37 21 CURVE",
"-41 0 LINE"
);
},
{
closed = 1;
nodes = (
"499 178 LINE",
"509 228 LINE",
"182 228 LINE",
"172 178 LINE"
);
},
{
closed = 1;
nodes = (
"408 816 OFFCURVE",
"480 876 OFFCURVE",
"508 912 CURVE",
"509 912 OFFCURVE",
"511 912 OFFCURVE",
"512 912 CURVE",
"529 876 OFFCURVE",
"575 816 OFFCURVE",
"608 783 CURVE",
"677 829 LINE",
"641 857 OFFCURVE",
"574 936 OFFCURVE",
"557 972 CURVE",
"549 972 OFFCURVE",
"497 972 OFFCURVE",
"488 972 CURVE",
"459 936 OFFCURVE",
"361 857 OFFCURVE",
"312 829 CURVE",
"363 783 LINE"
);
}
);
width = 746;
}
);
leftKerningGroup = A;
note = Acircumflex;
rightKerningGroup = A;
unicode = 00C2;
},
{
glyphname = Acircumflexacute;
lastChange = "2015-11-29 16:07:48 +0000";
layers = (
{
layerId = "AD8C1534-DD1F-4D30-8D71-C3A36519B1B2";
name = "Bold Italic";
paths = (
{
closed = 1;
nodes = (
"191 0 LINE",
"194 16 LINE",
"170 26 OFFCURVE",
"148 35 OFFCURVE",
"120 39 CURVE",
"407 562 LINE",
"477 41 LINE",
"459 38 OFFCURVE",
"432 32 OFFCURVE",
"396 20 CURVE",
"392 0 LINE",
"693 0 LINE",
"696 18 LINE",
"673 27 OFFCURVE",
"649 35 OFFCURVE",
"626 40 CURVE",
"523 704 LINE",
"415 704 LINE",
"43 42 LINE",
"34 41 OFFCURVE",
"-9 30 OFFCURVE",
"-37 21 CURVE",
"-41 0 LINE"
);
},
{
closed = 1;
nodes = (
"499 178 LINE",
"509 228 LINE",
"182 228 LINE",
"172 178 LINE"
);
},
{
closed = 1;
nodes = (
"410 816 OFFCURVE",
"481 876 OFFCURVE",
"510 912 CURVE",
"514 912 LINE",
"531 876 OFFCURVE",
"577 816 OFFCURVE",
"609 783 CURVE",
"678 829 LINE",
"642 857 OFFCURVE",
"576 936 OFFCURVE",
"559 972 CURVE",
"490 972 LINE",
"460 936 OFFCURVE",
"361 857 OFFCURVE",
"313 829 CURVE",
"364 783 LINE"
);
},
{
closed = 1;
nodes = (
"765 976 LINE SMOOTH",
"807 996 OFFCURVE",
"834 1021 OFFCURVE",
"839 1045 CURVE SMOOTH",
"843 1064 OFFCURVE",
"832 1085 OFFCURVE",
"803 1085 CURVE SMOOTH",
"778 1085 OFFCURVE",
"750 1066 OFFCURVE",
"724 1041 CURVE SMOOTH",
"635 953 LINE",
"652 922 LINE"
);
}
);
width = 746;
}
);
leftKerningGroup = A;
note = Acircumflexacute;
rightKerningGroup = A;
unicode = 1EA4;
},
{
glyphname = Acircumflexdotbelow;
lastChange = "2015-11-29 16:07:49 +0000";
layers = (
{
layerId = "AD8C1534-DD1F-4D30-8D71-C3A36519B1B2";
name = "Bold Italic";
paths = (
{
closed = 1;
nodes = (
"191 0 LINE",
"194 16 LINE",
"170 26 OFFCURVE",
"148 35 OFFCURVE",
"120 39 CURVE",
"407 562 LINE",
"477 41 LINE",
"459 38 OFFCURVE",
"432 32 OFFCURVE",
"396 20 CURVE",
"392 0 LINE",
"693 0 LINE",
"696 18 LINE",
"673 27 OFFCURVE",
"649 35 OFFCURVE",
"626 40 CURVE",
"523 704 LINE",
"415 704 LINE",
"43 42 LINE",
"34 41 OFFCURVE",
"-9 30 OFFCURVE",
"-37 21 CURVE",
"-41 0 LINE"
);
},
{
closed = 1;
nodes = (
"328 -178 OFFCURVE",
"356 -151 OFFCURVE",
"364 -116 CURVE SMOOTH",
"370 -81 OFFCURVE",
"353 -54 OFFCURVE",
"316 -54 CURVE SMOOTH",
"281 -54 OFFCURVE",
"252 -81 OFFCURVE",
"245 -116 CURVE SMOOTH",
"238 -151 OFFCURVE",
"256 -178 OFFCURVE",
"292 -178 CURVE SMOOTH"
);
},
{
closed = 1;
nodes = (
"499 178 LINE",
"509 228 LINE",
"182 228 LINE",
"172 178 LINE"
);
},
{
closed = 1;
nodes = (
"409 815 OFFCURVE",
"481 875 OFFCURVE",
"509 911 CURVE",
"510 911 OFFCURVE",
"512 911 OFFCURVE",
"513 911 CURVE",
"530 875 OFFCURVE",
"576 815 OFFCURVE",
"609 782 CURVE",
"678 828 LINE",
"642 856 OFFCURVE",
"575 935 OFFCURVE",
"558 971 CURVE",
"550 971 OFFCURVE",
"498 971 OFFCURVE",
"489 971 CURVE",
"460 935 OFFCURVE",
"362 856 OFFCURVE",
"313 828 CURVE",
"364 782 LINE"
);
}
);
width = 746;
}
);
leftKerningGroup = A;
note = Acircumflexdotbelow;
rightKerningGroup = A;
unicode = 1EAC;
},
{
glyphname = Acircumflexgrave;
lastChange = "2015-11-29 16:07:48 +0000";
layers = (
{
layerId = "AD8C1534-DD1F-4D30-8D71-C3A36519B1B2";
name = "Bold Italic";
paths = (
{
closed = 1;
nodes = (
"191 0 LINE",
"194 16 LINE",
"170 26 OFFCURVE",
"148 35 OFFCURVE",
"120 39 CURVE",
"407 562 LINE",
"477 41 LINE",
"459 38 OFFCURVE",
"432 32 OFFCURVE",
"396 20 CURVE",
"392 0 LINE",
"693 0 LINE",
"696 18 LINE",
"673 27 OFFCURVE",
"649 35 OFFCURVE",
"626 40 CURVE",
"523 704 LINE",
"415 704 LINE",
"43 42 LINE",
"34 41 OFFCURVE",
"-9 30 OFFCURVE",
"-37 21 CURVE",
"-41 0 LINE"
);
},
{
closed = 1;
nodes = (
"499 178 LINE",
"509 228 LINE",
"182 228 LINE",
"172 178 LINE"
);
},
{
closed = 1;
nodes = (
"407 953 LINE",
"353 1041 LINE SMOOTH",
"337 1066 OFFCURVE",
"316 1085 OFFCURVE",
"292 1085 CURVE SMOOTH",
"263 1085 OFFCURVE",
"244 1064 OFFCURVE",
"241 1045 CURVE SMOOTH",
"236 1021 OFFCURVE",
"251 996 OFFCURVE",
"286 976 CURVE SMOOTH",
"378 922 LINE"
);
},
{
closed = 1;
nodes = (
"410 816 OFFCURVE",
"481 876 OFFCURVE",
"510 912 CURVE",
"514 912 LINE",
"531 876 OFFCURVE",
"577 816 OFFCURVE",
"609 783 CURVE",
"678 829 LINE",
"642 857 OFFCURVE",
"576 936 OFFCURVE",
"559 972 CURVE",
"490 972 LINE",
"460 936 OFFCURVE",
"361 857 OFFCURVE",
"313 829 CURVE",
"364 783 LINE"
);
}
);
width = 746;
}
);
leftKerningGroup = A;
note = Acircumflexgrave;
rightKerningGroup = A;
unicode = 1EA6;
},
{
glyphname = Acircumflexhookabove;
lastChange = "2015-11-29 16:07:49 +0000";
layers = (
{
layerId = "AD8C1534-DD1F-4D30-8D71-C3A36519B1B2";
name = "Bold Italic";
paths = (
{
closed = 1;
nodes = (
"191 0 LINE",
"194 16 LINE",
"170 26 OFFCURVE",
"148 35 OFFCURVE",
"120 39 CURVE",
"407 562 LINE",
"477 41 LINE",
"459 38 OFFCURVE",
"432 32 OFFCURVE",
"396 20 CURVE",
"392 0 LINE",
"693 0 LINE",
"696 18 LINE",
"673 27 OFFCURVE",
"649 35 OFFCURVE",
"626 40 CURVE",
"523 704 LINE",
"415 704 LINE",
"43 42 LINE",
"34 41 OFFCURVE",
"-9 30 OFFCURVE",
"-37 21 CURVE",
"-41 0 LINE"
);
},
{
closed = 1;
nodes = (
"499 178 LINE",
"509 228 LINE",
"182 228 LINE",
"172 178 LINE"
);
},
{
closed = 1;
nodes = (
"410 816 OFFCURVE",
"481 876 OFFCURVE",
"510 912 CURVE",
"514 912 LINE",
"531 876 OFFCURVE",
"577 816 OFFCURVE",
"609 783 CURVE",
"678 829 LINE",
"642 857 OFFCURVE",
"576 936 OFFCURVE",
"559 972 CURVE",
"490 972 LINE",
"460 936 OFFCURVE",
"361 857 OFFCURVE",
"313 829 CURVE",
"364 783 LINE"
);
},
{
closed = 1;
nodes = (
"684 933 LINE",
"702 981 LINE",
"748 985 OFFCURVE",
"787 1003 OFFCURVE",
"797 1056 CURVE SMOOTH",
"809 1114 OFFCURVE",
"763 1136 OFFCURVE",
"712 1136 CURVE SMOOTH",
"684 1136 OFFCURVE",
"656 1129 OFFCURVE",
"637 1121 CURVE",
"635 1085 LINE",
"653 1093 OFFCURVE",
"675 1097 OFFCURVE",
"690 1097 CURVE SMOOTH",
"724 1097 OFFCURVE",
"738 1079 OFFCURVE",
"733 1057 CURVE SMOOTH",
"726 1024 OFFCURVE",
"700 1012 OFFCURVE",
"676 1012 CURVE SMOOTH",
"644 1012 LINE",
"632 933 LINE"
);
}
);
width = 746;
}
);
leftKerningGroup = A;
note = Acircumflexhookabove;
rightKerningGroup = A;
unicode = 1EA8;
},
{
glyphname = Acircumflextilde;
lastChange = "2015-11-29 16:07:48 +0000";
layers = (
{
layerId = "AD8C1534-DD1F-4D30-8D71-C3A36519B1B2";
name = "Bold Italic";
paths = (
{
closed = 1;
nodes = (
"191 0 LINE",
"194 16 LINE",
"170 26 OFFCURVE",
"148 35 OFFCURVE",
"120 39 CURVE",
"407 562 LINE",
"477 41 LINE",
"459 38 OFFCURVE",
"432 32 OFFCURVE",
"396 20 CURVE",
"392 0 LINE",
"693 0 LINE",
"696 18 LINE",
"673 27 OFFCURVE",
"649 35 OFFCURVE",
"626 40 CURVE",
"523 704 LINE",
"415 704 LINE",
"43 42 LINE",
"34 41 OFFCURVE",
"-9 30 OFFCURVE",
"-37 21 CURVE",
"-41 0 LINE"
);
},
{
closed = 1;
nodes = (
"499 178 LINE",
"509 228 LINE",
"182 228 LINE",
"172 178 LINE"
);
},
{
closed = 1;
nodes = (
"410 816 OFFCURVE",
"481 876 OFFCURVE",
"510 912 CURVE",
"514 912 LINE",
"531 876 OFFCURVE",
"577 816 OFFCURVE",
"609 783 CURVE",
"678 829 LINE",
"642 857 OFFCURVE",
"576 936 OFFCURVE",
"559 972 CURVE",
"490 972 LINE",
"460 936 OFFCURVE",
"361 857 OFFCURVE",
"313 829 CURVE",
"364 783 LINE"
);
},
{
closed = 1;
nodes = (
"407 1004 LINE",
"419 1036 OFFCURVE",
"447 1056 OFFCURVE",
"478 1056 CURVE SMOOTH",
"521 1056 OFFCURVE",
"549 1005 OFFCURVE",
"604 1005 CURVE SMOOTH",
"676 1005 OFFCURVE",
"721 1051 OFFCURVE",
"743 1121 CURVE",
"694 1121 LINE",
"674 1076 OFFCURVE",
"638 1067 OFFCURVE",
"616 1067 CURVE SMOOTH",
"578 1067 OFFCURVE",
"561 1118 OFFCURVE",
"494 1118 CURVE SMOOTH",
"430 1118 OFFCURVE",
"382 1080 OFFCURVE",
"357 1004 CURVE"
);
}
);
width = 746;
}
);
leftKerningGroup = A;
note = Acircumflextilde;
rightKerningGroup = A;
unicode = 1EAA;
},
{
glyphname = Adieresis;
lastChange = "2015-11-29 16:07:48 +0000";
layers = (
{
layerId = "AD8C1534-DD1F-4D30-8D71-C3A36519B1B2";
name = "Bold Italic";
paths = (
{
closed = 1;
nodes = (
"191 0 LINE",
"194 16 LINE",
"170 26 OFFCURVE",
"148 35 OFFCURVE",
"120 39 CURVE",
"407 562 LINE",
"477 41 LINE",
"459 38 OFFCURVE",
"432 32 OFFCURVE",
"396 20 CURVE",
"392 0 LINE",
"693 0 LINE",
"696 18 LINE",
"673 27 OFFCURVE",
"649 35 OFFCURVE",
"626 40 CURVE",
"523 704 LINE",
"415 704 LINE",
"43 42 LINE",
"34 41 OFFCURVE",
"-9 30 OFFCURVE",
"-37 21 CURVE",
"-41 0 LINE"
);
},
{
closed = 1;
nodes = (
"499 178 LINE",
"509 228 LINE",
"182 228 LINE",
"172 178 LINE"
);
},
{
closed = 1;
nodes = (
"390 785 OFFCURVE",
"419 812 OFFCURVE",
"427 847 CURVE SMOOTH",
"434 882 OFFCURVE",
"416 909 OFFCURVE",
"380 909 CURVE SMOOTH",
"345 909 OFFCURVE",
"316 882 OFFCURVE",
"310 847 CURVE SMOOTH",
"302 812 OFFCURVE",
"319 785 OFFCURVE",
"354 785 CURVE SMOOTH"
);
},
{
closed = 1;
nodes = (
"621 785 OFFCURVE",
"650 812 OFFCURVE",
"657 847 CURVE SMOOTH",
"664 882 OFFCURVE",
"647 909 OFFCURVE",
"610 909 CURVE SMOOTH",
"574 909 OFFCURVE",
"546 882 OFFCURVE",
"539 847 CURVE SMOOTH",
"532 812 OFFCURVE",
"548 785 OFFCURVE",
"584 785 CURVE SMOOTH"
);
}
);
width = 746;
}
);
leftKerningGroup = A;
note = Adieresis;
rightKerningGroup = A;
unicode = 00C4;
},
{
glyphname = Adotbelow;
lastChange = "2015-11-29 16:07:48 +0000";
layers = (
{
layerId = "AD8C1534-DD1F-4D30-8D71-C3A36519B1B2";
name = "Bold Italic";
paths = (
{
closed = 1;
nodes = (
"191 0 LINE",
"194 16 LINE",
"170 26 OFFCURVE",
"148 35 OFFCURVE",
"120 39 CURVE",
"407 562 LINE",
"477 41 LINE",
"459 38 OFFCURVE",
"432 32 OFFCURVE",
"396 20 CURVE",
"392 0 LINE",
"693 0 LINE",
"696 18 LINE",
"673 27 OFFCURVE",
"649 35 OFFCURVE",
"626 40 CURVE",
"523 704 LINE",
"415 704 LINE",
"43 42 LINE",
"34 41 OFFCURVE",
"-9 30 OFFCURVE",
"-37 21 CURVE",
"-41 0 LINE"
);
},
{
closed = 1;
nodes = (
"326 -178 OFFCURVE",
"354 -151 OFFCURVE",
"362 -116 CURVE SMOOTH",
"368 -81 OFFCURVE",
"351 -54 OFFCURVE",
"315 -54 CURVE SMOOTH",
"279 -54 OFFCURVE",
"250 -81 OFFCURVE",
"244 -116 CURVE SMOOTH",
"236 -151 OFFCURVE",
"254 -178 OFFCURVE",
"290 -178 CURVE SMOOTH"
);
},
{
closed = 1;
nodes = (
"499 178 LINE",
"509 228 LINE",
"182 228 LINE",
"172 178 LINE"
);
}
);
width = 746;
}
);
leftKerningGroup = A;
note = Adotbelow;
rightKerningGroup = A;
unicode = 1EA0;
},
{
glyphname = Agrave;
lastChange = "2015-11-29 16:07:47 +0000";
layers = (
{
layerId = "AD8C1534-DD1F-4D30-8D71-C3A36519B1B2";
name = "Bold Italic";
paths = (
{
closed = 1;
nodes = (
"191 0 LINE",
"194 16 LINE",
"170 26 OFFCURVE",
"148 35 OFFCURVE",
"120 39 CURVE",
"407 562 LINE",
"477 41 LINE",
"459 38 OFFCURVE",
"432 32 OFFCURVE",
"396 20 CURVE",
"392 0 LINE",
"693 0 LINE",
"696 18 LINE",
"673 27 OFFCURVE",
"649 35 OFFCURVE",
"626 40 CURVE",
"523 704 LINE",
"415 704 LINE",
"43 42 LINE",
"34 41 OFFCURVE",
"-9 30 OFFCURVE",
"-37 21 CURVE",
"-41 0 LINE"
);
},
{
closed = 1;
nodes = (
"499 178 LINE",
"509 228 LINE",
"182 228 LINE",
"172 178 LINE"
);
},
{
closed = 1;
nodes = (
"593 821 LINE",
"501 948 LINE",
"497 955 OFFCURVE",
"479 982 OFFCURVE",
"447 982 CURVE SMOOTH",
"413 982 OFFCURVE",
"395 959 OFFCURVE",
"391 940 CURVE SMOOTH",
"387 916 OFFCURVE",
"400 898 OFFCURVE",
"427 879 CURVE SMOOTH",
"562 786 LINE"
);
}
);
width = 746;
}
);
leftKerningGroup = A;
note = Agrave;
rightKerningGroup = A;
unicode = 00C0;
},
{
glyphname = Ahookabove;
lastChange = "2015-11-29 16:07:47 +0000";
layers = (
{
layerId = "AD8C1534-DD1F-4D30-8D71-C3A36519B1B2";
name = "Bold Italic";
paths = (
{
closed = 1;
nodes = (
"191 0 LINE",
"194 16 LINE",
"170 26 OFFCURVE",
"148 35 OFFCURVE",
"120 39 CURVE",
"407 562 LINE",
"477 41 LINE",
"459 38 OFFCURVE",
"432 32 OFFCURVE",
"396 20 CURVE",
"392 0 LINE",
"693 0 LINE",
"696 18 LINE",
"673 27 OFFCURVE",
"649 35 OFFCURVE",
"626 40 CURVE",
"523 704 LINE",
"415 704 LINE",
"43 42 LINE",
"34 41 OFFCURVE",
"-9 30 OFFCURVE",
"-37 21 CURVE",
"-41 0 LINE"
);
},
{
closed = 1;
nodes = (
"499 178 LINE",
"509 228 LINE",
"182 228 LINE",
"172 178 LINE"
);
},
{
closed = 1;
nodes = (
"525 783 LINE",
"549 852 LINE",
"602 857 OFFCURVE",
"646 878 OFFCURVE",
"657 938 CURVE SMOOTH",
"671 1004 OFFCURVE",
"618 1029 OFFCURVE",
"560 1029 CURVE SMOOTH",
"529 1029 OFFCURVE",
"496 1021 OFFCURVE",
"474 1011 CURVE",
"473 972 LINE",
"495 984 OFFCURVE",
"518 988 OFFCURVE",
"535 988 CURVE SMOOTH",
"575 988 OFFCURVE",
"590 965 OFFCURVE",
"585 939 CURVE SMOOTH",
"578 901 OFFCURVE",
"546 887 OFFCURVE",
"519 887 CURVE SMOOTH",
"483 887 LINE",
"465 783 LINE"
);
}
);
width = 746;
}
);
leftKerningGroup = A;
note = Ahookabove;
rightKerningGroup = A;
unicode = 1EA2;
},
{
glyphname = Amacron;
lastChange = "2015-11-29 16:07:48 +0000";
layers = (
{
layerId = "AD8C1534-DD1F-4D30-8D71-C3A36519B1B2";
name = "Bold Italic";
paths = (
{
closed = 1;
nodes = (
"191 0 LINE",
"194 16 LINE",
"170 26 OFFCURVE",
"148 35 OFFCURVE",
"120 39 CURVE",
"407 562 LINE",
"477 41 LINE",
"459 38 OFFCURVE",
"432 32 OFFCURVE",
"396 20 CURVE",
"392 0 LINE",
"693 0 LINE",
"696 18 LINE",
"673 27 OFFCURVE",
"649 35 OFFCURVE",
"626 40 CURVE",
"523 704 LINE",
"415 704 LINE",
"43 42 LINE",
"34 41 OFFCURVE",
"-9 30 OFFCURVE",
"-37 21 CURVE",
"-41 0 LINE"
);
},
{
closed = 1;
nodes = (
"499 178 LINE",
"509 228 LINE",
"182 228 LINE",
"172 178 LINE"
);
},
{
closed = 1;
nodes = (
"676 785 LINE",
"685 833 LINE",
"312 833 LINE",
"302 785 LINE"
);
}
);
width = 746;
}
);
leftKerningGroup = A;
note = Amacron;
rightKerningGroup = A;
unicode = 0100;
},
{
glyphname = Aogonek;
lastChange = "2015-11-29 16:07:47 +0000";
layers = (
{
layerId = "AD8C1534-DD1F-4D30-8D71-C3A36519B1B2";
name = "Bold Italic";
paths = (
{
closed = 1;
nodes = (
"191 0 LINE",
"194 16 LINE",
"170 26 OFFCURVE",
"148 35 OFFCURVE",
"120 39 CURVE",
"407 562 LINE",
"477 41 LINE",
"459 38 OFFCURVE",
"432 32 OFFCURVE",
"396 20 CURVE",
"392 0 LINE",
"693 0 LINE",
"696 18 LINE",
"673 27 OFFCURVE",
"649 35 OFFCURVE",
"626 40 CURVE",
"523 704 LINE",
"415 704 LINE",
"43 42 LINE",
"34 41 OFFCURVE",
"-9 30 OFFCURVE",
"-37 21 CURVE",
"-41 0 LINE"
);
},
{
closed = 1;
nodes = (
"652 -206 OFFCURVE",
"694 -196 OFFCURVE",
"722 -180 CURVE",
"735 -117 LINE",
"707 -132 OFFCURVE",
"684 -138 OFFCURVE",
"666 -138 CURVE SMOOTH",
"631 -138 OFFCURVE",
"612 -117 OFFCURVE",
"618 -86 CURVE SMOOTH",
"625 -54 OFFCURVE",
"657 -18 OFFCURVE",
"685 0 CURVE",
"615 0 LINE",
"555 -18 OFFCURVE",
"510 -71 OFFCURVE",
"502 -116 CURVE SMOOTH",
"490 -170 OFFCURVE",
"530 -206 OFFCURVE",
"610 -206 CURVE SMOOTH"
);
},
{
closed = 1;
nodes = (
"499 178 LINE",
"509 228 LINE",
"182 228 LINE",
"172 178 LINE"
);
}
);
width = 746;
}
);
leftKerningGroup = A;
note = Aogonek;
rightKerningGroup = A;
unicode = 0104;
},
{
glyphname = Aring;
lastChange = "2015-11-29 16:07:48 +0000";
layers = (
{
layerId = "AD8C1534-DD1F-4D30-8D71-C3A36519B1B2";
name = "Bold Italic";
paths = (
{
closed = 1;
nodes = (
"191 0 LINE",
"194 16 LINE",
"170 26 OFFCURVE",
"148 35 OFFCURVE",
"120 39 CURVE",
"407 562 LINE",
"477 41 LINE",
"459 38 OFFCURVE",
"432 32 OFFCURVE",
"396 20 CURVE",
"392 0 LINE",
"693 0 LINE",
"696 18 LINE",
"673 27 OFFCURVE",
"649 35 OFFCURVE",
"626 40 CURVE",
"523 704 LINE",
"415 704 LINE",
"43 42 LINE",
"34 41 OFFCURVE",
"-9 30 OFFCURVE",
"-37 21 CURVE",
"-41 0 LINE"
);
},
{
closed = 1;
nodes = (
"499 178 LINE",
"509 228 LINE",
"182 228 LINE",
"172 178 LINE"
);
},
{
closed = 1;
nodes = (
"538 745 OFFCURVE",
"588 786 OFFCURVE",
"601 847 CURVE SMOOTH",
"613 907 OFFCURVE",
"580 949 OFFCURVE",
"518 949 CURVE SMOOTH",
"456 949 OFFCURVE",
"405 907 OFFCURVE",
"392 847 CURVE SMOOTH",
"380 786 OFFCURVE",
"413 745 OFFCURVE",
"476 745 CURVE SMOOTH"
);
},
{
closed = 1;
nodes = (
"454 790 OFFCURVE",
"434 813 OFFCURVE",
"440 847 CURVE SMOOTH",
"447 881 OFFCURVE",
"477 903 OFFCURVE",
"508 903 CURVE SMOOTH",
"540 903 OFFCURVE",
"559 881 OFFCURVE",
"553 847 CURVE SMOOTH",
"546 813 OFFCURVE",
"517 790 OFFCURVE",
"485 790 CURVE SMOOTH"
);
}
);
width = 746;
}
);
leftKerningGroup = A;
note = Aring;
rightKerningGroup = A;
unicode = 00C5;
},
{
glyphname = Aringacute;
lastChange = "2015-11-29 16:07:48 +0000";
layers = (
{
layerId = "AD8C1534-DD1F-4D30-8D71-C3A36519B1B2";
name = "Bold Italic";
paths = (
{
closed = 1;
nodes = (
"191 0 LINE",
"194 16 LINE",
"170 26 OFFCURVE",
"148 35 OFFCURVE",
"120 39 CURVE",
"407 562 LINE",
"477 41 LINE",
"459 38 OFFCURVE",
"432 32 OFFCURVE",
"396 20 CURVE",
"392 0 LINE",
"693 0 LINE",
"696 18 LINE",
"673 27 OFFCURVE",
"649 35 OFFCURVE",
"626 40 CURVE",
"523 704 LINE",
"415 704 LINE",
"43 42 LINE",
"34 41 OFFCURVE",
"-9 30 OFFCURVE",
"-37 21 CURVE",
"-41 0 LINE"
);
},
{
closed = 1;
nodes = (
"499 178 LINE",
"509 228 LINE",
"182 228 LINE",
"172 178 LINE"
);
},
{
closed = 1;
nodes = (
"538 744 OFFCURVE",
"588 785 OFFCURVE",
"601 846 CURVE SMOOTH",
"613 906 OFFCURVE",
"580 948 OFFCURVE",
"518 948 CURVE SMOOTH",
"456 948 OFFCURVE",
"405 906 OFFCURVE",
"392 846 CURVE SMOOTH",
"380 785 OFFCURVE",
"413 744 OFFCURVE",
"476 744 CURVE SMOOTH"
);
},
{
closed = 1;
nodes = (
"454 789 OFFCURVE",
"434 812 OFFCURVE",
"440 846 CURVE SMOOTH",
"447 880 OFFCURVE",
"477 902 OFFCURVE",
"508 902 CURVE SMOOTH",
"540 902 OFFCURVE",
"559 880 OFFCURVE",
"553 846 CURVE SMOOTH",
"546 812 OFFCURVE",
"517 789 OFFCURVE",
"485 789 CURVE SMOOTH"
);
},
{
closed = 1;
nodes = (
"622 1064 LINE SMOOTH",
"656 1083 OFFCURVE",
"676 1101 OFFCURVE",
"681 1125 CURVE SMOOTH",
"685 1144 OFFCURVE",
"676 1167 OFFCURVE",
"644 1167 CURVE SMOOTH",
"611 1167 OFFCURVE",
"582 1139 OFFCURVE",
"576 1132 CURVE",
"433 1006 LINE",
"450 971 LINE"
);
}
);
width = 746;
}
);
leftKerningGroup = A;
note = Aringacute;
rightKerningGroup = A;
unicode = 01FA;
},
{
glyphname = Atilde;
lastChange = "2015-11-29 16:07:48 +0000";
layers = (
{
layerId = "AD8C1534-DD1F-4D30-8D71-C3A36519B1B2";
name = "Bold Italic";
paths = (
{
closed = 1;
nodes = (
"191 0 LINE",
"194 16 LINE",
"170 26 OFFCURVE",
"148 35 OFFCURVE",
"120 39 CURVE",
"407 562 LINE",
"477 41 LINE",
"459 38 OFFCURVE",
"432 32 OFFCURVE",
"396 20 CURVE",
"392 0 LINE",
"693 0 LINE",
"696 18 LINE",
"673 27 OFFCURVE",
"649 35 OFFCURVE",
"626 40 CURVE",
"523 704 LINE",
"415 704 LINE",
"43 42 LINE",
"34 41 OFFCURVE",
"-9 30 OFFCURVE",
"-37 21 CURVE",
"-41 0 LINE"
);
},
{
closed = 1;
nodes = (
"499 178 LINE",
"509 228 LINE",
"182 228 LINE",
"172 178 LINE"
);
},
{
closed = 1;
nodes = (
"354 786 LINE",
"365 818 OFFCURVE",
"390 839 OFFCURVE",
"419 839 CURVE SMOOTH",
"454 839 OFFCURVE",
"504 786 OFFCURVE",
"560 786 CURVE SMOOTH",
"634 786 OFFCURVE",
"678 834 OFFCURVE",
"700 905 CURVE",
"638 905 LINE",
"618 859 OFFCURVE",
"592 851 OFFCURVE",
"568 851 CURVE SMOOTH",
"529 851 OFFCURVE",
"500 903 OFFCURVE",
"431 903 CURVE SMOOTH",
"365 903 OFFCURVE",
"316 863 OFFCURVE",
"290 786 CURVE"
);
}
);
width = 746;
}
);
leftKerningGroup = A;
note = Atilde;
rightKerningGroup = A;
unicode = 00C3;
},
{
glyphname = AE;
lastChange = "2015-11-29 16:07:49 +0000";
layers = (
{
layerId = "AD8C1534-DD1F-4D30-8D71-C3A36519B1B2";
name = "Bold Italic";
paths = (
{
closed = 1;
nodes = (
"198 0 LINE",
"201 16 LINE",
"178 26 OFFCURVE",
"150 35 OFFCURVE",
"123 39 CURVE",
"227 178 LINE",
"460 178 LINE",
"432 39 LINE",
"404 35 OFFCURVE",
"372 27 OFFCURVE",
"344 18 CURVE",
"341 0 LINE",
"891 0 LINE",
"943 175 LINE",
"911 175 LINE",
"890 154 OFFCURVE",
"847 85 OFFCURVE",
"837 49 CURVE",
"582 49 LINE",
"640 334 LINE",
"808 334 LINE",
"807 317 OFFCURVE",
"807 278 OFFCURVE",
"810 248 CURVE",
"834 248 LINE",
"879 470 LINE",
"855 470 LINE",
"839 442 OFFCURVE",
"824 402 OFFCURVE",
"819 384 CURVE",
"651 384 LINE",
"705 650 LINE",
"954 650 LINE",
"949 619 OFFCURVE",
"957 546 OFFCURVE",
"965 523 CURVE",
"998 523 LINE",
"1034 700 LINE",
"482 700 LINE",
"478 682 LINE",
"493 675 OFFCURVE",
"509 671 OFFCURVE",
"525 667 CURVE",
"41 41 LINE",
"16 35 OFFCURVE",
"-9 28 OFFCURVE",
"-38 18 CURVE",
"-41 0 LINE"
);
},
{
closed = 1;
nodes = (
"545 595 LINE",
"470 228 LINE",
"266 228 LINE"
);
}
);
width = 993;
}
);
leftKerningGroup = A;
note = AE;
unicode = 00C6;
},
{
glyphname = AEacute;
lastChange = "2015-11-29 16:07:47 +0000";
layers = (
{
layerId = "AD8C1534-DD1F-4D30-8D71-C3A36519B1B2";
name = "Bold Italic";
paths = (
{
closed = 1;
nodes = (
"198 0 LINE",
"201 16 LINE",
"178 26 OFFCURVE",
"150 35 OFFCURVE",
"123 39 CURVE",
"227 178 LINE",
"460 178 LINE",
"432 39 LINE",
"404 35 OFFCURVE",
"372 27 OFFCURVE",
"344 18 CURVE",
"341 0 LINE",
"891 0 LINE",
"943 175 LINE",
"911 175 LINE",
"890 154 OFFCURVE",
"847 85 OFFCURVE",
"837 49 CURVE",
"582 49 LINE",
"640 334 LINE",
"808 334 LINE",
"807 317 OFFCURVE",
"807 278 OFFCURVE",
"810 248 CURVE",
"834 248 LINE",
"879 470 LINE",
"855 470 LINE",
"839 442 OFFCURVE",
"824 402 OFFCURVE",
"819 384 CURVE",
"651 384 LINE",
"705 650 LINE",
"954 650 LINE",
"949 619 OFFCURVE",
"957 546 OFFCURVE",
"965 523 CURVE",
"998 523 LINE",
"1034 700 LINE",
"482 700 LINE",
"478 682 LINE",
"493 675 OFFCURVE",
"509 671 OFFCURVE",
"525 667 CURVE",
"41 41 LINE",
"16 35 OFFCURVE",
"-9 28 OFFCURVE",
"-38 18 CURVE",
"-41 0 LINE"
);
},
{
closed = 1;
nodes = (
"545 595 LINE",
"470 228 LINE",
"266 228 LINE"
);
},
{
closed = 1;
nodes = (
"880 879 LINE SMOOTH",
"915 898 OFFCURVE",
"935 916 OFFCURVE",
"940 940 CURVE SMOOTH",
"943 959 OFFCURVE",
"934 982 OFFCURVE",
"902 982 CURVE SMOOTH",
"869 982 OFFCURVE",
"841 954 OFFCURVE",
"834 947 CURVE",
"691 821 LINE",
"708 786 LINE"
);
}
);
width = 993;
}
);
leftKerningGroup = A;
note = AEacute;
unicode = 01FC;
},
{
glyphname = B;
lastChange = "2015-11-29 16:07:47 +0000";
layers = (
{
layerId = "AD8C1534-DD1F-4D30-8D71-C3A36519B1B2";
name = "Bold Italic";
paths = (
{
closed = 1;
nodes = (
"318 0 LINE SMOOTH",
"489 0 OFFCURVE",
"564 69 OFFCURVE",
"590 194 CURVE SMOOTH",
"604 261 OFFCURVE",
"581 342 OFFCURVE",
"475 367 CURVE",
"476 373 LINE",
"565 398 OFFCURVE",
"618 466 OFFCURVE",
"632 537 CURVE SMOOTH",
"653 643 OFFCURVE",
"604 700 OFFCURVE",
"431 700 CURVE SMOOTH",
"118 700 LINE",
"114 681 LINE",
"141 671 OFFCURVE",
"165 664 OFFCURVE",
"187 660 CURVE",
"60 42 LINE",
"43 39 OFFCURVE",
"25 34 OFFCURVE",
"-21 17 CURVE",
"-24 0 LINE"
);
},
{
closed = 1;
nodes = (
"272 343 LINE",
"355 343 LINE SMOOTH",
"428 343 OFFCURVE",
"460 294 OFFCURVE",
"441 200 CURVE SMOOTH",
"421 103 OFFCURVE",
"379 49 OFFCURVE",
"308 49 CURVE SMOOTH",
"213 49 LINE"
);
},
{
closed = 1;
nodes = (
"336 650 LINE",
"401 650 LINE SMOOTH",
"474 650 OFFCURVE",
"496 612 OFFCURVE",
"479 528 CURVE SMOOTH",
"461 446 OFFCURVE",
"416 392 OFFCURVE",
"344 392 CURVE SMOOTH",
"283 392 LINE"
);
}
);
width = 617;
}
);
note = B;
unicode = 0042;
},
{
glyphname = C;
lastChange = "2015-11-29 16:07:49 +0000";
layers = (
{
layerId = "AD8C1534-DD1F-4D30-8D71-C3A36519B1B2";
name = "Bold Italic";
paths = (
{
closed = 1;
nodes = (
"413 -10 OFFCURVE",
"500 16 OFFCURVE",
"560 62 CURVE",
"548 104 LINE",
"478 59 OFFCURVE",
"405 42 OFFCURVE",
"355 42 CURVE SMOOTH",
"220 42 OFFCURVE",
"177 160 OFFCURVE",
"216 350 CURVE SMOOTH",
"254 539 OFFCURVE",
"358 658 OFFCURVE",
"494 658 CURVE SMOOTH",
"538 658 OFFCURVE",
"577 646 OFFCURVE",
"605 618 CURVE",
"600 573 OFFCURVE",
"598 520 OFFCURVE",
"603 485 CURVE",
"638 485 LINE",
"681 631 LINE",
"641 680 OFFCURVE",
"579 710 OFFCURVE",
"466 710 CURVE SMOOTH",
"250 710 OFFCURVE",
"107 572 OFFCURVE",
"62 350 CURVE SMOOTH",
"16 127 OFFCURVE",
"100 -10 OFFCURVE",
"323 -10 CURVE SMOOTH"
);
}
);
width = 637;
}
);
leftKerningGroup = C;
note = C;
unicode = 0043;
},
{
glyphname = Cacute;
lastChange = "2015-11-29 16:07:47 +0000";
layers = (
{
layerId = "AD8C1534-DD1F-4D30-8D71-C3A36519B1B2";
name = "Bold Italic";
paths = (
{
closed = 1;
nodes = (
"413 -10 OFFCURVE",
"500 16 OFFCURVE",
"560 62 CURVE",
"548 104 LINE",
"478 59 OFFCURVE",
"405 42 OFFCURVE",
"355 42 CURVE SMOOTH",
"220 42 OFFCURVE",
"177 160 OFFCURVE",
"216 350 CURVE SMOOTH",
"254 539 OFFCURVE",
"358 658 OFFCURVE",
"494 658 CURVE SMOOTH",
"538 658 OFFCURVE",
"577 646 OFFCURVE",
"605 618 CURVE",
"600 573 OFFCURVE",
"598 520 OFFCURVE",
"603 485 CURVE",
"638 485 LINE",
"681 631 LINE",
"641 680 OFFCURVE",
"579 710 OFFCURVE",
"466 710 CURVE SMOOTH",
"250 710 OFFCURVE",
"107 572 OFFCURVE",
"62 350 CURVE SMOOTH",
"16 127 OFFCURVE",
"100 -10 OFFCURVE",
"323 -10 CURVE SMOOTH"
);
},
{
closed = 1;
nodes = (
"612 879 LINE SMOOTH",
"647 898 OFFCURVE",
"667 916 OFFCURVE",
"672 940 CURVE SMOOTH",
"676 959 OFFCURVE",
"666 982 OFFCURVE",
"634 982 CURVE SMOOTH",
"602 982 OFFCURVE",
"573 954 OFFCURVE",
"566 947 CURVE",
"423 821 LINE",
"440 786 LINE"
);
}
);
width = 637;
}
);
leftKerningGroup = C;
note = Cacute;
unicode = 0106;
},
{
glyphname = Ccaron;
lastChange = "2015-11-29 16:07:48 +0000";
layers = (
{
layerId = "AD8C1534-DD1F-4D30-8D71-C3A36519B1B2";
name = "Bold Italic";
paths = (
{
closed = 1;
nodes = (
"413 -10 OFFCURVE",
"500 16 OFFCURVE",
"560 62 CURVE",
"548 104 LINE",
"478 59 OFFCURVE",
"405 42 OFFCURVE",
"355 42 CURVE SMOOTH",
"220 42 OFFCURVE",
"177 160 OFFCURVE",
"216 350 CURVE SMOOTH",
"254 539 OFFCURVE",
"358 658 OFFCURVE",
"494 658 CURVE SMOOTH",
"538 658 OFFCURVE",
"577 646 OFFCURVE",
"605 618 CURVE",
"600 573 OFFCURVE",
"598 520 OFFCURVE",
"603 485 CURVE",
"638 485 LINE",
"681 631 LINE",
"641 680 OFFCURVE",
"579 710 OFFCURVE",
"466 710 CURVE SMOOTH",
"250 710 OFFCURVE",
"107 572 OFFCURVE",
"62 350 CURVE SMOOTH",
"16 127 OFFCURVE",
"100 -10 OFFCURVE",
"323 -10 CURVE SMOOTH"
);
},
{
closed = 1;
nodes = (
"480 786 OFFCURVE",
"532 786 OFFCURVE",
"540 786 CURVE",
"570 822 OFFCURVE",
"670 900 OFFCURVE",
"718 929 CURVE",
"668 974 LINE",
"621 942 OFFCURVE",
"550 882 OFFCURVE",
"519 846 CURVE",
"518 846 OFFCURVE",
"516 846 OFFCURVE",
"515 846 CURVE",
"501 882 OFFCURVE",
"454 942 OFFCURVE",
"421 974 CURVE",
"352 929 LINE",
"388 900 OFFCURVE",
"455 822 OFFCURVE",
"471 786 CURVE"
);
}
);
width = 637;
}
);
leftKerningGroup = C;
note = Ccaron;
unicode = 010C;
},
{
glyphname = Ccedilla;
lastChange = "2015-11-29 16:07:48 +0000";
layers = (
{
layerId = "AD8C1534-DD1F-4D30-8D71-C3A36519B1B2";
name = "Bold Italic";
paths = (
{
closed = 1;
nodes = (
"413 -10 OFFCURVE",
"500 16 OFFCURVE",
"560 62 CURVE",
"548 104 LINE",
"478 59 OFFCURVE",
"405 42 OFFCURVE",
"355 42 CURVE SMOOTH",
"220 42 OFFCURVE",
"177 160 OFFCURVE",
"216 350 CURVE SMOOTH",
"254 539 OFFCURVE",
"358 658 OFFCURVE",
"494 658 CURVE SMOOTH",
"538 658 OFFCURVE",
"577 646 OFFCURVE",
"605 618 CURVE",
"600 573 OFFCURVE",
"598 520 OFFCURVE",
"603 485 CURVE",
"638 485 LINE",
"681 631 LINE",
"641 680 OFFCURVE",
"579 710 OFFCURVE",
"466 710 CURVE SMOOTH",
"250 710 OFFCURVE",
"107 572 OFFCURVE",
"62 350 CURVE SMOOTH",
"16 127 OFFCURVE",
"100 -10 OFFCURVE",
"323 -10 CURVE SMOOTH"
);
},
{
closed = 1;
nodes = (
"308 -258 OFFCURVE",
"379 -222 OFFCURVE",
"393 -151 CURVE SMOOTH",
"402 -108 OFFCURVE",
"376 -66 OFFCURVE",
"295 -66 CURVE",
"352 18 LINE",
"289 18 LINE",
"224 -76 LINE",
"242 -110 LINE",
"249 -109 OFFCURVE",
"257 -108 OFFCURVE",
"265 -108 CURVE SMOOTH",
"293 -108 OFFCURVE",
"327 -117 OFFCURVE",
"320 -151 CURVE SMOOTH",
"312 -193 OFFCURVE",
"273 -206 OFFCURVE",
"231 -206 CURVE SMOOTH",
"204 -206 OFFCURVE",
"176 -199 OFFCURVE",
"160 -188 CURVE",
"129 -227 LINE",
"153 -247 OFFCURVE",
"196 -258 OFFCURVE",
"232 -258 CURVE SMOOTH"
);
}
);
width = 637;
}
);
leftKerningGroup = C;
note = Ccedilla;
unicode = 00C7;
},
{
glyphname = Ccircumflex;
lastChange = "2015-11-29 16:07:48 +0000";
layers = (
{
layerId = "AD8C1534-DD1F-4D30-8D71-C3A36519B1B2";
name = "Bold Italic";
paths = (
{
closed = 1;
nodes = (
"413 -10 OFFCURVE",
"500 16 OFFCURVE",
"560 62 CURVE",
"548 104 LINE",
"478 59 OFFCURVE",
"405 42 OFFCURVE",
"355 42 CURVE SMOOTH",
"220 42 OFFCURVE",
"177 160 OFFCURVE",
"216 350 CURVE SMOOTH",
"254 539 OFFCURVE",
"358 658 OFFCURVE",
"494 658 CURVE SMOOTH",
"538 658 OFFCURVE",
"577 646 OFFCURVE",
"605 618 CURVE",
"600 573 OFFCURVE",
"598 520 OFFCURVE",
"603 485 CURVE",
"638 485 LINE",
"681 631 LINE",
"641 680 OFFCURVE",
"579 710 OFFCURVE",
"466 710 CURVE SMOOTH",
"250 710 OFFCURVE",
"107 572 OFFCURVE",
"62 350 CURVE SMOOTH",
"16 127 OFFCURVE",
"100 -10 OFFCURVE",
"323 -10 CURVE SMOOTH"
);
},
{
closed = 1;
nodes = (
"417 816 OFFCURVE",
"489 876 OFFCURVE",
"518 912 CURVE",
"519 912 OFFCURVE",
"521 912 OFFCURVE",
"522 912 CURVE",
"538 876 OFFCURVE",
"584 816 OFFCURVE",
"618 783 CURVE",
"687 829 LINE",
"651 857 OFFCURVE",
"583 936 OFFCURVE",
"567 972 CURVE",
"558 972 OFFCURVE",
"507 972 OFFCURVE",
"498 972 CURVE",
"468 936 OFFCURVE",
"370 857 OFFCURVE",
"321 829 CURVE",
"372 783 LINE"
);
}
);
width = 637;
}
);
leftKerningGroup = C;
note = Ccircumflex;
unicode = 0108;
},
{
glyphname = Cdotaccent;
lastChange = "2015-11-29 16:07:47 +0000";
layers = (
{
layerId = "AD8C1534-DD1F-4D30-8D71-C3A36519B1B2";
name = "Bold Italic";
paths = (
{
closed = 1;
nodes = (
"413 -10 OFFCURVE",
"500 16 OFFCURVE",
"560 62 CURVE",
"548 104 LINE",
"478 59 OFFCURVE",
"405 42 OFFCURVE",
"355 42 CURVE SMOOTH",
"220 42 OFFCURVE",
"177 160 OFFCURVE",
"216 350 CURVE SMOOTH",
"254 539 OFFCURVE",
"358 658 OFFCURVE",
"494 658 CURVE SMOOTH",
"538 658 OFFCURVE",
"577 646 OFFCURVE",
"605 618 CURVE",
"600 573 OFFCURVE",
"598 520 OFFCURVE",
"603 485 CURVE",
"638 485 LINE",
"681 631 LINE",
"641 680 OFFCURVE",
"579 710 OFFCURVE",
"466 710 CURVE SMOOTH",
"250 710 OFFCURVE",
"107 572 OFFCURVE",
"62 350 CURVE SMOOTH",
"16 127 OFFCURVE",
"100 -10 OFFCURVE",
"323 -10 CURVE SMOOTH"
);
},
{
closed = 1;
nodes = (
"543 785 OFFCURVE",
"572 812 OFFCURVE",
"580 847 CURVE SMOOTH",
"586 882 OFFCURVE",
"569 909 OFFCURVE",
"533 909 CURVE SMOOTH",
"497 909 OFFCURVE",
"469 882 OFFCURVE",
"462 847 CURVE SMOOTH",
"455 812 OFFCURVE",
"471 785 OFFCURVE",
"508 785 CURVE SMOOTH"
);
}
);
width = 637;
}
);
leftKerningGroup = C;
note = Cdotaccent;
unicode = 010A;
},
{
glyphname = D;
lastChange = "2015-11-29 16:07:47 +0000";
layers = (
{
layerId = "AD8C1534-DD1F-4D30-8D71-C3A36519B1B2";
name = "Bold Italic";
paths = (
{
closed = 1;
nodes = (
"299 0 LINE SMOOTH",
"518 0 OFFCURVE",
"631 127 OFFCURVE",
"677 350 CURVE SMOOTH",
"723 573 OFFCURVE",
"661 700 OFFCURVE",
"442 700 CURVE SMOOTH",
"124 700 LINE",
"121 682 LINE",
"147 673 OFFCURVE",
"170 665 OFFCURVE",
"193 660 CURVE",
"66 41 LINE",
"48 38 OFFCURVE",
"14 28 OFFCURVE",
"-14 19 CURVE",
"-18 0 LINE"
);
},
{
closed = 1;
nodes = (
"340 650 LINE",
"432 650 LINE SMOOTH",
"548 650 OFFCURVE",
"560 529 OFFCURVE",
"524 350 CURVE SMOOTH",
"487 170 OFFCURVE",
"425 49 OFFCURVE",
"307 49 CURVE SMOOTH",
"217 49 LINE"
);
}
);
width = 687;
}
);
note = D;
rightKerningGroup = D;
unicode = 0044;
},
{
glyphname = Eth;
lastChange = "2015-11-29 16:07:48 +0000";
layers = (
{
layerId = "AD8C1534-DD1F-4D30-8D71-C3A36519B1B2";
name = "Bold Italic";
paths = (
{
closed = 1;
nodes = (
"299 0 LINE SMOOTH",
"518 0 OFFCURVE",
"631 127 OFFCURVE",
"677 350 CURVE SMOOTH",
"723 573 OFFCURVE",
"661 700 OFFCURVE",
"442 700 CURVE SMOOTH",
"124 700 LINE",
"121 682 LINE",
"147 673 OFFCURVE",
"170 665 OFFCURVE",
"193 660 CURVE",
"66 41 LINE",
"48 38 OFFCURVE",
"14 28 OFFCURVE",
"-14 19 CURVE",
"-18 0 LINE"
);
},
{
closed = 1;
nodes = (
"408 309 LINE",
"418 358 LINE",
"69 358 LINE",
"58 309 LINE"
);
},
{
closed = 1;
nodes = (
"340 650 LINE",
"432 650 LINE SMOOTH",
"548 650 OFFCURVE",
"560 529 OFFCURVE",
"524 350 CURVE SMOOTH",
"487 170 OFFCURVE",
"425 49 OFFCURVE",
"307 49 CURVE SMOOTH",
"217 49 LINE"
);
}
);
width = 687;
}
);
note = Eth;
rightKerningGroup = D;
unicode = 00D0;
},
{
glyphname = Dcaron;
lastChange = "2015-11-29 16:07:48 +0000";
layers = (
{
layerId = "AD8C1534-DD1F-4D30-8D71-C3A36519B1B2";
name = "Bold Italic";
paths = (
{
closed = 1;
nodes = (
"299 0 LINE SMOOTH",
"518 0 OFFCURVE",
"631 127 OFFCURVE",
"677 350 CURVE SMOOTH",
"723 573 OFFCURVE",
"661 700 OFFCURVE",
"442 700 CURVE SMOOTH",
"124 700 LINE",
"121 682 LINE",
"147 673 OFFCURVE",
"170 665 OFFCURVE",
"193 660 CURVE",
"66 41 LINE",
"48 38 OFFCURVE",
"14 28 OFFCURVE",
"-14 19 CURVE",
"-18 0 LINE"
);
},
{
closed = 1;
nodes = (
"340 650 LINE",
"432 650 LINE SMOOTH",
"548 650 OFFCURVE",
"560 529 OFFCURVE",
"524 350 CURVE SMOOTH",
"487 170 OFFCURVE",
"425 49 OFFCURVE",
"307 49 CURVE SMOOTH",
"217 49 LINE"
);
},
{
closed = 1;
nodes = (
"419 786 OFFCURVE",
"471 786 OFFCURVE",
"480 786 CURVE",
"509 822 OFFCURVE",
"609 900 OFFCURVE",
"657 929 CURVE",
"607 974 LINE",
"560 942 OFFCURVE",
"489 882 OFFCURVE",
"459 846 CURVE",
"458 846 OFFCURVE",
"456 846 OFFCURVE",
"455 846 CURVE",
"440 882 OFFCURVE",
"393 942 OFFCURVE",
"361 974 CURVE",
"292 929 LINE",
"328 900 OFFCURVE",
"394 822 OFFCURVE",
"411 786 CURVE"
);
}
);
width = 687;
}
);
note = Dcaron;
rightKerningGroup = D;
unicode = 010E;
},
{
glyphname = Dcroat;
lastChange = "2015-11-29 16:07:47 +0000";
layers = (
{
layerId = "AD8C1534-DD1F-4D30-8D71-C3A36519B1B2";
name = "Bold Italic";
paths = (
{
closed = 1;
nodes = (
"299 0 LINE SMOOTH",
"518 0 OFFCURVE",
"631 127 OFFCURVE",
"677 350 CURVE SMOOTH",
"723 573 OFFCURVE",
"661 700 OFFCURVE",
"442 700 CURVE SMOOTH",
"124 700 LINE",
"121 682 LINE",
"147 673 OFFCURVE",
"170 665 OFFCURVE",
"193 660 CURVE",
"66 41 LINE",
"48 38 OFFCURVE",
"14 28 OFFCURVE",
"-14 19 CURVE",
"-18 0 LINE"
);
},
{
closed = 1;
nodes = (
"408 309 LINE",
"418 358 LINE",
"69 358 LINE",
"58 309 LINE"
);
},
{
closed = 1;
nodes = (
"340 650 LINE",
"432 650 LINE SMOOTH",
"548 650 OFFCURVE",
"560 529 OFFCURVE",
"524 350 CURVE SMOOTH",
"487 170 OFFCURVE",
"425 49 OFFCURVE",
"307 49 CURVE SMOOTH",
"217 49 LINE"
);
}
);
width = 687;
}
);
note = Dcroat;
rightKerningGroup = D;
unicode = 0110;
},
{
glyphname = Ddotbelow;
lastChange = "2015-11-29 16:07:49 +0000";
layers = (
{
layerId = "AD8C1534-DD1F-4D30-8D71-C3A36519B1B2";
name = "Bold Italic";
paths = (
{
closed = 1;
nodes = (
"299 0 LINE SMOOTH",
"518 0 OFFCURVE",
"631 127 OFFCURVE",
"677 350 CURVE SMOOTH",
"723 573 OFFCURVE",
"661 700 OFFCURVE",
"442 700 CURVE SMOOTH",
"124 700 LINE",
"121 682 LINE",
"147 673 OFFCURVE",
"170 665 OFFCURVE",
"193 660 CURVE",
"66 41 LINE",
"48 38 OFFCURVE",
"14 28 OFFCURVE",
"-14 19 CURVE",
"-18 0 LINE"
);
},
{
closed = 1;
nodes = (
"293 -178 OFFCURVE",
"321 -151 OFFCURVE",
"329 -116 CURVE SMOOTH",
"336 -81 OFFCURVE",
"318 -54 OFFCURVE",
"282 -54 CURVE SMOOTH",
"246 -54 OFFCURVE",
"218 -81 OFFCURVE",
"211 -116 CURVE SMOOTH",
"203 -151 OFFCURVE",
"221 -178 OFFCURVE",
"257 -178 CURVE SMOOTH"
);
},
{
closed = 1;
nodes = (
"340 650 LINE",
"432 650 LINE SMOOTH",
"548 650 OFFCURVE",
"560 529 OFFCURVE",
"524 350 CURVE SMOOTH",
"487 170 OFFCURVE",
"425 49 OFFCURVE",
"307 49 CURVE SMOOTH",
"217 49 LINE"
);
}
);
width = 687;
}
);
note = Ddotbelow;
rightKerningGroup = D;
unicode = 1E0C;
},
{
glyphname = Dlinebelow;
lastChange = "2015-11-29 16:07:49 +0000";
layers = (
{
layerId = "AD8C1534-DD1F-4D30-8D71-C3A36519B1B2";
name = "Bold Italic";
paths = (
{
closed = 1;
nodes = (
"299 0 LINE SMOOTH",
"518 0 OFFCURVE",
"631 127 OFFCURVE",
"677 350 CURVE SMOOTH",
"723 573 OFFCURVE",
"661 700 OFFCURVE",
"442 700 CURVE SMOOTH",
"124 700 LINE",
"121 682 LINE",
"147 673 OFFCURVE",
"170 665 OFFCURVE",
"193 660 CURVE",
"66 41 LINE",
"48 38 OFFCURVE",
"14 28 OFFCURVE",
"-14 19 CURVE",
"-18 0 LINE"
);
},
{
closed = 1;
nodes = (
"451 -109 LINE",
"461 -61 LINE",
"88 -61 LINE",
"77 -109 LINE"
);
},
{
closed = 1;
nodes = (
"340 650 LINE",
"432 650 LINE SMOOTH",
"548 650 OFFCURVE",
"560 529 OFFCURVE",
"524 350 CURVE SMOOTH",
"487 170 OFFCURVE",
"425 49 OFFCURVE",
"307 49 CURVE SMOOTH",
"217 49 LINE"
);
}
);
width = 687;
}
);
note = Dlinebelow;
rightKerningGroup = D;
unicode = 1E0E;
},
{
glyphname = E;
lastChange = "2015-11-29 16:07:49 +0000";
layers = (
{
layerId = "AD8C1534-DD1F-4D30-8D71-C3A36519B1B2";
name = "Bold Italic";
paths = (
{
closed = 1;
nodes = (
"532 0 LINE",
"585 175 LINE",
"553 175 LINE",
"532 154 OFFCURVE",
"488 85 OFFCURVE",
"478 49 CURVE",
"225 49 LINE",
"348 650 LINE",
"595 650 LINE",
"590 619 OFFCURVE",
"598 546 OFFCURVE",
"606 523 CURVE",
"639 523 LINE",
"675 700 LINE",
"124 700 LINE",
"121 682 LINE",
"147 672 OFFCURVE",
"176 664 OFFCURVE",
"199 660 CURVE",
"73 40 LINE",
"48 36 OFFCURVE",
"14 28 OFFCURVE",
"-15 18 CURVE",
"-18 0 LINE"
);
},
{
closed = 1;
nodes = (
"474 239 LINE",
"519 461 LINE",
"495 461 LINE",
"480 433 OFFCURVE",
"464 393 OFFCURVE",
"458 375 CURVE",
"213 375 LINE",
"203 325 LINE",
"448 325 LINE",
"446 308 OFFCURVE",
"446 269 OFFCURVE",
"450 239 CURVE"
);
}
);
width = 634;
}
);
note = E;
unicode = 0045;
},
{
glyphname = Eacute;
lastChange = "2015-11-29 16:07:49 +0000";
layers = (
{
layerId = "AD8C1534-DD1F-4D30-8D71-C3A36519B1B2";
name = "Bold Italic";
paths = (
{
closed = 1;
nodes = (
"532 0 LINE",
"585 175 LINE",
"553 175 LINE",
"532 154 OFFCURVE",
"488 85 OFFCURVE",
"478 49 CURVE",
"225 49 LINE",
"348 650 LINE",
"595 650 LINE",
"590 619 OFFCURVE",
"598 546 OFFCURVE",
"606 523 CURVE",
"639 523 LINE",
"675 700 LINE",
"124 700 LINE",
"121 682 LINE",
"147 672 OFFCURVE",
"176 664 OFFCURVE",
"199 660 CURVE",
"73 40 LINE",
"48 36 OFFCURVE",
"14 28 OFFCURVE",
"-15 18 CURVE",
"-18 0 LINE"
);
},
{
closed = 1;
nodes = (
"474 239 LINE",
"519 461 LINE",
"495 461 LINE",
"480 433 OFFCURVE",
"464 393 OFFCURVE",
"458 375 CURVE",
"213 375 LINE",
"203 325 LINE",
"448 325 LINE",
"446 308 OFFCURVE",
"446 269 OFFCURVE",
"450 239 CURVE"
);
},
{
closed = 1;
nodes = (
"555 879 LINE SMOOTH",
"589 898 OFFCURVE",
"609 916 OFFCURVE",
"614 940 CURVE SMOOTH",
"618 959 OFFCURVE",
"608 982 OFFCURVE",
"577 982 CURVE SMOOTH",
"544 982 OFFCURVE",
"515 954 OFFCURVE",
"508 947 CURVE",
"365 821 LINE",
"383 786 LINE"
);
}
);
width = 634;
}
);
note = Eacute;
unicode = 00C9;
},
{
glyphname = Ebreve;
lastChange = "2015-11-29 16:07:47 +0000";
layers = (
{
layerId = "AD8C1534-DD1F-4D30-8D71-C3A36519B1B2";
name = "Bold Italic";
paths = (
{
closed = 1;
nodes = (
"532 0 LINE",
"585 175 LINE",
"553 175 LINE",
"532 154 OFFCURVE",
"488 85 OFFCURVE",
"478 49 CURVE",
"225 49 LINE",
"348 650 LINE",
"595 650 LINE",
"590 619 OFFCURVE",
"598 546 OFFCURVE",
"606 523 CURVE",
"639 523 LINE",
"675 700 LINE",
"124 700 LINE",
"121 682 LINE",
"147 672 OFFCURVE",
"176 664 OFFCURVE",
"199 660 CURVE",
"73 40 LINE",
"48 36 OFFCURVE",
"14 28 OFFCURVE",
"-15 18 CURVE",
"-18 0 LINE"
);
},
{
closed = 1;
nodes = (
"474 239 LINE",
"519 461 LINE",
"495 461 LINE",
"480 433 OFFCURVE",
"464 393 OFFCURVE",
"458 375 CURVE",
"213 375 LINE",
"203 325 LINE",
"448 325 LINE",
"446 308 OFFCURVE",
"446 269 OFFCURVE",
"450 239 CURVE"
);
},
{
closed = 1;
nodes = (
"567 782 OFFCURVE",
"641 825 OFFCURVE",
"674 916 CURVE",
"591 916 LINE",
"569 843 OFFCURVE",
"523 834 OFFCURVE",
"484 834 CURVE SMOOTH",
"444 834 OFFCURVE",
"401 843 OFFCURVE",
"409 916 CURVE",
"327 916 LINE",
"323 825 OFFCURVE",
"379 782 OFFCURVE",
"473 782 CURVE SMOOTH"
);
}
);
width = 634;
}
);
note = Ebreve;
unicode = 0114;
},
{
glyphname = Ecaron;
lastChange = "2015-11-29 16:07:48 +0000";
layers = (
{
layerId = "AD8C1534-DD1F-4D30-8D71-C3A36519B1B2";
name = "Bold Italic";
paths = (
{
closed = 1;
nodes = (
"532 0 LINE",
"585 175 LINE",
"553 175 LINE",
"532 154 OFFCURVE",
"488 85 OFFCURVE",
"478 49 CURVE",
"225 49 LINE",
"348 650 LINE",
"595 650 LINE",
"590 619 OFFCURVE",
"598 546 OFFCURVE",
"606 523 CURVE",
"639 523 LINE",
"675 700 LINE",
"124 700 LINE",
"121 682 LINE",
"147 672 OFFCURVE",
"176 664 OFFCURVE",
"199 660 CURVE",
"73 40 LINE",
"48 36 OFFCURVE",
"14 28 OFFCURVE",
"-15 18 CURVE",
"-18 0 LINE"
);
},
{
closed = 1;
nodes = (
"474 239 LINE",
"519 461 LINE",
"495 461 LINE",
"480 433 OFFCURVE",
"464 393 OFFCURVE",
"458 375 CURVE",
"213 375 LINE",
"203 325 LINE",
"448 325 LINE",
"446 308 OFFCURVE",
"446 269 OFFCURVE",
"450 239 CURVE"
);
},
{
closed = 1;
nodes = (
"444 786 OFFCURVE",
"496 786 OFFCURVE",
"505 786 CURVE",
"534 822 OFFCURVE",
"634 900 OFFCURVE",
"682 929 CURVE",
"632 974 LINE",
"585 942 OFFCURVE",
"514 882 OFFCURVE",
"484 846 CURVE",
"483 846 OFFCURVE",
"481 846 OFFCURVE",
"480 846 CURVE",
"465 882 OFFCURVE",
"418 942 OFFCURVE",
"386 974 CURVE",
"316 929 LINE",
"353 900 OFFCURVE",
"419 822 OFFCURVE",
"436 786 CURVE"
);
}
);
width = 634;
}
);
note = Ecaron;
unicode = 011A;
},
{
glyphname = Ecircumflex;
lastChange = "2015-11-29 16:07:49 +0000";
layers = (
{
layerId = "AD8C1534-DD1F-4D30-8D71-C3A36519B1B2";
name = "Bold Italic";
paths = (
{
closed = 1;
nodes = (
"532 0 LINE",
"585 175 LINE",
"553 175 LINE",
"532 154 OFFCURVE",
"488 85 OFFCURVE",
"478 49 CURVE",
"225 49 LINE",
"348 650 LINE",
"595 650 LINE",
"590 619 OFFCURVE",
"598 546 OFFCURVE",
"606 523 CURVE",
"639 523 LINE",
"675 700 LINE",
"124 700 LINE",
"121 682 LINE",
"147 672 OFFCURVE",
"176 664 OFFCURVE",
"199 660 CURVE",
"73 40 LINE",
"48 36 OFFCURVE",
"14 28 OFFCURVE",
"-15 18 CURVE",
"-18 0 LINE"
);
},
{
closed = 1;
nodes = (
"474 239 LINE",
"519 461 LINE",
"495 461 LINE",
"480 433 OFFCURVE",
"464 393 OFFCURVE",
"458 375 CURVE",
"213 375 LINE",
"203 325 LINE",
"448 325 LINE",
"446 308 OFFCURVE",
"446 269 OFFCURVE",
"450 239 CURVE"
);
},
{
closed = 1;
nodes = (
"388 816 OFFCURVE",
"460 876 OFFCURVE",
"489 912 CURVE",
"490 912 OFFCURVE",
"492 912 OFFCURVE",
"493 912 CURVE",
"509 876 OFFCURVE",
"556 816 OFFCURVE",
"589 783 CURVE",
"658 829 LINE",
"622 857 OFFCURVE",
"555 936 OFFCURVE",
"538 972 CURVE",
"530 972 OFFCURVE",
"478 972 OFFCURVE",
"469 972 CURVE",
"439 936 OFFCURVE",
"341 857 OFFCURVE",
"292 829 CURVE",
"343 783 LINE"
);
}
);
width = 634;
}
);
note = Ecircumflex;
unicode = 00CA;
},
{
glyphname = Ecircumflexacute;
lastChange = "2015-11-29 16:07:48 +0000";
layers = (
{
layerId = "AD8C1534-DD1F-4D30-8D71-C3A36519B1B2";
name = "Bold Italic";
paths = (
{
closed = 1;
nodes = (
"532 0 LINE",
"585 175 LINE",
"553 175 LINE",
"532 154 OFFCURVE",
"488 85 OFFCURVE",
"478 49 CURVE",
"225 49 LINE",
"348 650 LINE",
"595 650 LINE",
"590 619 OFFCURVE",
"598 546 OFFCURVE",
"606 523 CURVE",
"639 523 LINE",
"675 700 LINE",
"124 700 LINE",
"121 682 LINE",
"147 672 OFFCURVE",
"176 664 OFFCURVE",
"199 660 CURVE",
"73 40 LINE",
"48 36 OFFCURVE",
"14 28 OFFCURVE",
"-15 18 CURVE",
"-18 0 LINE"
);
},
{
closed = 1;
nodes = (
"474 239 LINE",
"519 461 LINE",
"495 461 LINE",
"480 433 OFFCURVE",
"464 393 OFFCURVE",
"458 375 CURVE",
"213 375 LINE",
"203 325 LINE",
"448 325 LINE",
"446 308 OFFCURVE",
"446 269 OFFCURVE",
"450 239 CURVE"
);
},
{
closed = 1;
nodes = (
"370 816 OFFCURVE",
"441 876 OFFCURVE",
"471 912 CURVE",
"475 912 LINE",
"491 876 OFFCURVE",
"537 816 OFFCURVE",
"570 783 CURVE",
"639 829 LINE",
"603 857 OFFCURVE",
"536 936 OFFCURVE",
"520 972 CURVE",
"451 972 LINE",
"421 936 OFFCURVE",
"321 857 OFFCURVE",
"273 829 CURVE",
"324 783 LINE"
);
},
{
closed = 1;
nodes = (
"725 976 LINE SMOOTH",
"768 996 OFFCURVE",
"795 1021 OFFCURVE",
"799 1045 CURVE SMOOTH",
"803 1064 OFFCURVE",
"793 1085 OFFCURVE",
"764 1085 CURVE SMOOTH",
"739 1085 OFFCURVE",
"711 1066 OFFCURVE",
"685 1041 CURVE SMOOTH",
"596 953 LINE",
"612 922 LINE"
);
}
);
width = 634;
}
);
note = Ecircumflexacute;
unicode = 1EBE;
},
{
glyphname = Ecircumflexdotbelow;
lastChange = "2015-11-29 16:07:47 +0000";
layers = (
{
layerId = "AD8C1534-DD1F-4D30-8D71-C3A36519B1B2";
name = "Bold Italic";
paths = (
{
closed = 1;
nodes = (
"532 0 LINE",
"585 175 LINE",
"553 175 LINE",
"532 154 OFFCURVE",
"488 85 OFFCURVE",
"478 49 CURVE",
"225 49 LINE",
"348 650 LINE",
"595 650 LINE",
"590 619 OFFCURVE",
"598 546 OFFCURVE",
"606 523 CURVE",
"639 523 LINE",
"675 700 LINE",
"124 700 LINE",
"121 682 LINE",
"147 672 OFFCURVE",
"176 664 OFFCURVE",
"199 660 CURVE",
"73 40 LINE",
"48 36 OFFCURVE",
"14 28 OFFCURVE",
"-15 18 CURVE",
"-18 0 LINE"
);
},
{
closed = 1;
nodes = (
"291 -178 OFFCURVE",
"318 -151 OFFCURVE",
"326 -116 CURVE SMOOTH",
"333 -81 OFFCURVE",
"316 -54 OFFCURVE",
"279 -54 CURVE SMOOTH",
"244 -54 OFFCURVE",
"215 -81 OFFCURVE",
"208 -116 CURVE SMOOTH",
"200 -151 OFFCURVE",
"219 -178 OFFCURVE",
"254 -178 CURVE SMOOTH"
);
},
{
closed = 1;
nodes = (
"474 239 LINE",
"519 461 LINE",
"495 461 LINE",
"480 433 OFFCURVE",
"464 393 OFFCURVE",
"458 375 CURVE",
"213 375 LINE",
"203 325 LINE",
"448 325 LINE",
"446 308 OFFCURVE",
"446 269 OFFCURVE",
"450 239 CURVE"
);
},
{
closed = 1;
nodes = (
"369 816 OFFCURVE",
"441 876 OFFCURVE",
"470 912 CURVE",
"471 912 OFFCURVE",
"473 912 OFFCURVE",
"474 912 CURVE",
"490 876 OFFCURVE",
"536 816 OFFCURVE",
"570 783 CURVE",
"639 829 LINE",
"603 857 OFFCURVE",
"535 936 OFFCURVE",
"519 972 CURVE",
"510 972 OFFCURVE",
"459 972 OFFCURVE",
"450 972 CURVE",
"420 936 OFFCURVE",
"322 857 OFFCURVE",
"273 829 CURVE",
"324 783 LINE"
);
}
);
width = 634;
}
);
note = Ecircumflexdotbelow;
unicode = 1EC6;
},
{
glyphname = Ecircumflexgrave;
lastChange = "2015-11-29 16:07:47 +0000";
layers = (
{
layerId = "AD8C1534-DD1F-4D30-8D71-C3A36519B1B2";
name = "Bold Italic";
paths = (
{
closed = 1;
nodes = (
"532 0 LINE",
"585 175 LINE",
"553 175 LINE",
"532 154 OFFCURVE",
"488 85 OFFCURVE",
"478 49 CURVE",
"225 49 LINE",
"348 650 LINE",
"595 650 LINE",
"590 619 OFFCURVE",
"598 546 OFFCURVE",
"606 523 CURVE",
"639 523 LINE",
"675 700 LINE",
"124 700 LINE",
"121 682 LINE",
"147 672 OFFCURVE",
"176 664 OFFCURVE",
"199 660 CURVE",
"73 40 LINE",
"48 36 OFFCURVE",
"14 28 OFFCURVE",
"-15 18 CURVE",
"-18 0 LINE"
);
},
{
closed = 1;
nodes = (
"474 239 LINE",
"519 461 LINE",
"495 461 LINE",
"480 433 OFFCURVE",
"464 393 OFFCURVE",
"458 375 CURVE",
"213 375 LINE",
"203 325 LINE",
"448 325 LINE",
"446 308 OFFCURVE",
"446 269 OFFCURVE",
"450 239 CURVE"
);
},
{
closed = 1;
nodes = (
"367 953 LINE",
"314 1041 LINE SMOOTH",
"297 1066 OFFCURVE",
"277 1085 OFFCURVE",
"252 1085 CURVE SMOOTH",
"223 1085 OFFCURVE",
"205 1064 OFFCURVE",
"201 1045 CURVE SMOOTH",
"196 1021 OFFCURVE",
"212 996 OFFCURVE",
"246 976 CURVE SMOOTH",
"339 922 LINE"
);
},
{
closed = 1;
nodes = (
"370 816 OFFCURVE",
"441 876 OFFCURVE",
"471 912 CURVE",
"475 912 LINE",
"491 876 OFFCURVE",
"537 816 OFFCURVE",
"570 783 CURVE",
"639 829 LINE",
"603 857 OFFCURVE",
"536 936 OFFCURVE",
"520 972 CURVE",
"451 972 LINE",
"421 936 OFFCURVE",
"321 857 OFFCURVE",
"273 829 CURVE",
"324 783 LINE"
);
}
);
width = 634;
}
);
note = Ecircumflexgrave;
unicode = 1EC0;
},
{
glyphname = Ecircumflexhookabove;
lastChange = "2015-11-29 16:07:48 +0000";
layers = (
{
layerId = "AD8C1534-DD1F-4D30-8D71-C3A36519B1B2";
name = "Bold Italic";
paths = (
{
closed = 1;
nodes = (
"532 0 LINE",
"585 175 LINE",
"553 175 LINE",
"532 154 OFFCURVE",
"488 85 OFFCURVE",
"478 49 CURVE",
"225 49 LINE",
"348 650 LINE",
"595 650 LINE",
"590 619 OFFCURVE",
"598 546 OFFCURVE",
"606 523 CURVE",
"639 523 LINE",
"675 700 LINE",
"124 700 LINE",
"121 682 LINE",
"147 672 OFFCURVE",
"176 664 OFFCURVE",
"199 660 CURVE",
"73 40 LINE",
"48 36 OFFCURVE",
"14 28 OFFCURVE",
"-15 18 CURVE",
"-18 0 LINE"
);
},
{
closed = 1;
nodes = (
"474 239 LINE",
"519 461 LINE",
"495 461 LINE",
"480 433 OFFCURVE",
"464 393 OFFCURVE",
"458 375 CURVE",
"213 375 LINE",
"203 325 LINE",
"448 325 LINE",
"446 308 OFFCURVE",
"446 269 OFFCURVE",
"450 239 CURVE"
);
},
{
closed = 1;
nodes = (
"370 816 OFFCURVE",
"441 876 OFFCURVE",
"471 912 CURVE",
"475 912 LINE",
"491 876 OFFCURVE",
"537 816 OFFCURVE",
"570 783 CURVE",
"639 829 LINE",
"603 857 OFFCURVE",
"536 936 OFFCURVE",
"520 972 CURVE",
"451 972 LINE",
"421 936 OFFCURVE",
"321 857 OFFCURVE",
"273 829 CURVE",
"324 783 LINE"
);
},
{
closed = 1;
nodes = (
"645 933 LINE",
"663 981 LINE",
"709 985 OFFCURVE",
"748 1003 OFFCURVE",
"758 1056 CURVE SMOOTH",
"770 1114 OFFCURVE",
"724 1136 OFFCURVE",
"673 1136 CURVE SMOOTH",
"645 1136 OFFCURVE",
"617 1129 OFFCURVE",
"598 1121 CURVE",
"596 1085 LINE",
"614 1093 OFFCURVE",
"635 1097 OFFCURVE",
"651 1097 CURVE SMOOTH",
"685 1097 OFFCURVE",
"699 1079 OFFCURVE",
"694 1057 CURVE SMOOTH",
"687 1024 OFFCURVE",
"660 1012 OFFCURVE",
"636 1012 CURVE SMOOTH",
"604 1012 LINE",
"593 933 LINE"
);
}
);
width = 634;
}
);
note = Ecircumflexhookabove;
unicode = 1EC2;
},
{
glyphname = Ecircumflextilde;
lastChange = "2015-11-29 16:07:48 +0000";
layers = (
{
layerId = "AD8C1534-DD1F-4D30-8D71-C3A36519B1B2";
name = "Bold Italic";
paths = (
{
closed = 1;
nodes = (
"532 0 LINE",
"585 175 LINE",
"553 175 LINE",
"532 154 OFFCURVE",
"488 85 OFFCURVE",
"478 49 CURVE",
"225 49 LINE",
"348 650 LINE",
"595 650 LINE",
"590 619 OFFCURVE",
"598 546 OFFCURVE",
"606 523 CURVE",
"639 523 LINE",
"675 700 LINE",
"124 700 LINE",
"121 682 LINE",
"147 672 OFFCURVE",
"176 664 OFFCURVE",
"199 660 CURVE",
"73 40 LINE",
"48 36 OFFCURVE",
"14 28 OFFCURVE",
"-15 18 CURVE",
"-18 0 LINE"
);
},
{
closed = 1;
nodes = (
"474 239 LINE",
"519 461 LINE",
"495 461 LINE",
"480 433 OFFCURVE",
"464 393 OFFCURVE",
"458 375 CURVE",
"213 375 LINE",
"203 325 LINE",
"448 325 LINE",
"446 308 OFFCURVE",
"446 269 OFFCURVE",
"450 239 CURVE"
);
},
{
closed = 1;
nodes = (
"370 816 OFFCURVE",
"441 876 OFFCURVE",
"471 912 CURVE",
"475 912 LINE",
"491 876 OFFCURVE",
"537 816 OFFCURVE",
"570 783 CURVE",
"639 829 LINE",
"603 857 OFFCURVE",
"536 936 OFFCURVE",
"520 972 CURVE",
"451 972 LINE",
"421 936 OFFCURVE",
"321 857 OFFCURVE",
"273 829 CURVE",
"324 783 LINE"
);
},
{
closed = 1;
nodes = (
"367 1004 LINE",
"380 1036 OFFCURVE",
"408 1056 OFFCURVE",
"438 1056 CURVE SMOOTH",
"482 1056 OFFCURVE",
"509 1005 OFFCURVE",
"565 1005 CURVE SMOOTH",
"636 1005 OFFCURVE",
"681 1051 OFFCURVE",
"703 1121 CURVE",
"654 1121 LINE",
"634 1076 OFFCURVE",
"599 1067 OFFCURVE",
"577 1067 CURVE SMOOTH",
"538 1067 OFFCURVE",
"522 1118 OFFCURVE",
"455 1118 CURVE SMOOTH",
"390 1118 OFFCURVE",
"342 1080 OFFCURVE",
"317 1004 CURVE"
);
}
);
width = 634;
}
);
note = Ecircumflextilde;
unicode = 1EC4;
},
{
glyphname = Edieresis;
lastChange = "2015-11-29 16:07:48 +0000";
layers = (
{
layerId = "AD8C1534-DD1F-4D30-8D71-C3A36519B1B2";
name = "Bold Italic";
paths = (
{
closed = 1;
nodes = (
"532 0 LINE",
"585 175 LINE",
"553 175 LINE",
"532 154 OFFCURVE",
"488 85 OFFCURVE",
"478 49 CURVE",
"225 49 LINE",
"348 650 LINE",
"595 650 LINE",
"590 619 OFFCURVE",
"598 546 OFFCURVE",
"606 523 CURVE",
"639 523 LINE",
"675 700 LINE",
"124 700 LINE",
"121 682 LINE",
"147 672 OFFCURVE",
"176 664 OFFCURVE",
"199 660 CURVE",
"73 40 LINE",
"48 36 OFFCURVE",
"14 28 OFFCURVE",
"-15 18 CURVE",
"-18 0 LINE"
);
},
{
closed = 1;
nodes = (
"474 239 LINE",
"519 461 LINE",
"495 461 LINE",
"480 433 OFFCURVE",
"464 393 OFFCURVE",
"458 375 CURVE",
"213 375 LINE",
"203 325 LINE",
"448 325 LINE",
"446 308 OFFCURVE",
"446 269 OFFCURVE",
"450 239 CURVE"
);
},
{
closed = 1;
nodes = (
"396 785 OFFCURVE",
"425 812 OFFCURVE",
"433 847 CURVE SMOOTH",
"439 882 OFFCURVE",
"422 909 OFFCURVE",
"386 909 CURVE SMOOTH",
"351 909 OFFCURVE",
"322 882 OFFCURVE",
"316 847 CURVE SMOOTH",
"308 812 OFFCURVE",
"325 785 OFFCURVE",
"360 785 CURVE SMOOTH"
);
},
{
closed = 1;
nodes = (
"627 785 OFFCURVE",
"655 812 OFFCURVE",
"663 847 CURVE SMOOTH",
"670 882 OFFCURVE",
"652 909 OFFCURVE",
"616 909 CURVE SMOOTH",
"580 909 OFFCURVE",
"552 882 OFFCURVE",
"545 847 CURVE SMOOTH",
"537 812 OFFCURVE",
"554 785 OFFCURVE",
"590 785 CURVE SMOOTH"
);
}
);
width = 634;
}
);
note = Edieresis;
unicode = 00CB;
},
{
glyphname = Edotaccent;
lastChange = "2015-11-29 16:07:48 +0000";
layers = (
{
layerId = "AD8C1534-DD1F-4D30-8D71-C3A36519B1B2";
name = "Bold Italic";
paths = (
{
closed = 1;
nodes = (
"532 0 LINE",
"585 175 LINE",
"553 175 LINE",
"532 154 OFFCURVE",
"488 85 OFFCURVE",
"478 49 CURVE",
"225 49 LINE",
"348 650 LINE",
"595 650 LINE",
"590 619 OFFCURVE",
"598 546 OFFCURVE",
"606 523 CURVE",
"639 523 LINE",
"675 700 LINE",
"124 700 LINE",
"121 682 LINE",
"147 672 OFFCURVE",
"176 664 OFFCURVE",
"199 660 CURVE",
"73 40 LINE",
"48 36 OFFCURVE",
"14 28 OFFCURVE",
"-15 18 CURVE",
"-18 0 LINE"
);
},
{
closed = 1;
nodes = (
"474 239 LINE",
"519 461 LINE",
"495 461 LINE",
"480 433 OFFCURVE",
"464 393 OFFCURVE",
"458 375 CURVE",
"213 375 LINE",
"203 325 LINE",
"448 325 LINE",
"446 308 OFFCURVE",
"446 269 OFFCURVE",
"450 239 CURVE"
);
},
{
closed = 1;
nodes = (
"512 785 OFFCURVE",
"541 812 OFFCURVE",
"549 847 CURVE SMOOTH",
"556 882 OFFCURVE",
"538 909 OFFCURVE",
"503 909 CURVE SMOOTH",
"466 909 OFFCURVE",
"438 882 OFFCURVE",
"432 847 CURVE SMOOTH",
"424 812 OFFCURVE",
"440 785 OFFCURVE",
"477 785 CURVE SMOOTH"
);
}
);
width = 634;
}
);
note = Edotaccent;
unicode = 0116;
},
{
glyphname = Edotbelow;
lastChange = "2015-11-29 16:07:48 +0000";
layers = (
{
layerId = "AD8C1534-DD1F-4D30-8D71-C3A36519B1B2";
name = "Bold Italic";
paths = (
{
closed = 1;
nodes = (
"532 0 LINE",
"585 175 LINE",
"553 175 LINE",
"532 154 OFFCURVE",
"488 85 OFFCURVE",
"478 49 CURVE",
"225 49 LINE",
"348 650 LINE",
"595 650 LINE",
"590 619 OFFCURVE",
"598 546 OFFCURVE",
"606 523 CURVE",
"639 523 LINE",
"675 700 LINE",
"124 700 LINE",
"121 682 LINE",
"147 672 OFFCURVE",
"176 664 OFFCURVE",
"199 660 CURVE",
"73 40 LINE",
"48 36 OFFCURVE",
"14 28 OFFCURVE",
"-15 18 CURVE",
"-18 0 LINE"
);
},
{
closed = 1;
nodes = (
"273 -178 OFFCURVE",
"301 -151 OFFCURVE",
"309 -116 CURVE SMOOTH",
"316 -81 OFFCURVE",
"298 -54 OFFCURVE",
"262 -54 CURVE SMOOTH",
"226 -54 OFFCURVE",
"197 -81 OFFCURVE",
"191 -116 CURVE SMOOTH",
"183 -151 OFFCURVE",
"201 -178 OFFCURVE",
"237 -178 CURVE SMOOTH"
);
},
{
closed = 1;
nodes = (
"474 239 LINE",
"519 461 LINE",
"495 461 LINE",
"480 433 OFFCURVE",
"464 393 OFFCURVE",
"458 375 CURVE",
"213 375 LINE",
"203 325 LINE",
"448 325 LINE",
"446 308 OFFCURVE",
"446 269 OFFCURVE",
"450 239 CURVE"
);
}
);
width = 634;
}
);
note = Edotbelow;
unicode = 1EB8;
},
{
glyphname = Egrave;
lastChange = "2015-11-29 16:07:48 +0000";
layers = (
{
layerId = "AD8C1534-DD1F-4D30-8D71-C3A36519B1B2";
name = "Bold Italic";
paths = (
{
closed = 1;
nodes = (
"532 0 LINE",
"585 175 LINE",
"553 175 LINE",
"532 154 OFFCURVE",
"488 85 OFFCURVE",
"478 49 CURVE",
"225 49 LINE",
"348 650 LINE",
"595 650 LINE",
"590 619 OFFCURVE",
"598 546 OFFCURVE",
"606 523 CURVE",
"639 523 LINE",
"675 700 LINE",
"124 700 LINE",
"121 682 LINE",
"147 672 OFFCURVE",
"176 664 OFFCURVE",
"199 660 CURVE",
"73 40 LINE",
"48 36 OFFCURVE",
"14 28 OFFCURVE",
"-15 18 CURVE",
"-18 0 LINE"
);
},
{
closed = 1;
nodes = (
"474 239 LINE",
"519 461 LINE",
"495 461 LINE",
"480 433 OFFCURVE",
"464 393 OFFCURVE",
"458 375 CURVE",
"213 375 LINE",
"203 325 LINE",
"448 325 LINE",
"446 308 OFFCURVE",
"446 269 OFFCURVE",
"450 239 CURVE"
);
},
{
closed = 1;
nodes = (
"586 821 LINE",
"494 948 LINE",
"490 955 OFFCURVE",
"472 982 OFFCURVE",
"440 982 CURVE SMOOTH",
"407 982 OFFCURVE",
"388 959 OFFCURVE",
"385 940 CURVE SMOOTH",
"380 916 OFFCURVE",
"393 898 OFFCURVE",
"420 879 CURVE SMOOTH",
"556 786 LINE"
);
}
);
width = 634;
}
);
note = Egrave;
unicode = 00C8;
},
{
glyphname = Ehookabove;
lastChange = "2015-11-29 16:07:48 +0000";
layers = (
{
layerId = "AD8C1534-DD1F-4D30-8D71-C3A36519B1B2";
name = "Bold Italic";
paths = (
{
closed = 1;
nodes = (
"532 0 LINE",
"585 175 LINE",
"553 175 LINE",
"532 154 OFFCURVE",
"488 85 OFFCURVE",
"478 49 CURVE",
"225 49 LINE",
"348 650 LINE",
"595 650 LINE",
"590 619 OFFCURVE",
"598 546 OFFCURVE",
"606 523 CURVE",
"639 523 LINE",
"675 700 LINE",
"124 700 LINE",
"121 682 LINE",
"147 672 OFFCURVE",
"176 664 OFFCURVE",
"199 660 CURVE",
"73 40 LINE",
"48 36 OFFCURVE",
"14 28 OFFCURVE",
"-15 18 CURVE",
"-18 0 LINE"
);
},
{
closed = 1;
nodes = (
"474 239 LINE",
"519 461 LINE",
"495 461 LINE",
"480 433 OFFCURVE",
"464 393 OFFCURVE",
"458 375 CURVE",
"213 375 LINE",
"203 325 LINE",
"448 325 LINE",
"446 308 OFFCURVE",
"446 269 OFFCURVE",
"450 239 CURVE"
);
},
{
closed = 1;
nodes = (
"490 783 LINE",
"514 852 LINE",
"567 857 OFFCURVE",
"611 878 OFFCURVE",
"623 938 CURVE SMOOTH",
"636 1004 OFFCURVE",
"583 1029 OFFCURVE",
"526 1029 CURVE SMOOTH",
"494 1029 OFFCURVE",
"461 1021 OFFCURVE",
"439 1011 CURVE",
"438 972 LINE",
"460 984 OFFCURVE",
"484 988 OFFCURVE",
"501 988 CURVE SMOOTH",
"540 988 OFFCURVE",
"556 965 OFFCURVE",
"551 939 CURVE SMOOTH",
"543 901 OFFCURVE",
"511 887 OFFCURVE",
"484 887 CURVE SMOOTH",
"448 887 LINE",
"431 783 LINE"
);
}
);
width = 634;
}
);
note = Ehookabove;
unicode = 1EBA;
},
{
glyphname = Emacron;
lastChange = "2015-11-29 16:07:49 +0000";
layers = (
{
layerId = "AD8C1534-DD1F-4D30-8D71-C3A36519B1B2";
name = "Bold Italic";
paths = (
{
closed = 1;
nodes = (
"532 0 LINE",
"585 175 LINE",
"553 175 LINE",
"532 154 OFFCURVE",
"488 85 OFFCURVE",
"478 49 CURVE",
"225 49 LINE",
"348 650 LINE",
"595 650 LINE",
"590 619 OFFCURVE",
"598 546 OFFCURVE",
"606 523 CURVE",
"639 523 LINE",
"675 700 LINE",
"124 700 LINE",
"121 682 LINE",
"147 672 OFFCURVE",
"176 664 OFFCURVE",
"199 660 CURVE",
"73 40 LINE",
"48 36 OFFCURVE",
"14 28 OFFCURVE",
"-15 18 CURVE",
"-18 0 LINE"
);
},
{
closed = 1;
nodes = (
"474 239 LINE",
"519 461 LINE",
"495 461 LINE",
"480 433 OFFCURVE",
"464 393 OFFCURVE",
"458 375 CURVE",
"213 375 LINE",
"203 325 LINE",
"448 325 LINE",
"446 308 OFFCURVE",
"446 269 OFFCURVE",
"450 239 CURVE"
);
},
{
closed = 1;
nodes = (
"653 785 LINE",
"663 833 LINE",
"290 833 LINE",
"280 785 LINE"
);
}
);
width = 634;
}
);
note = Emacron;
unicode = 0112;
},
{
glyphname = Eogonek;
lastChange = "2015-11-29 16:07:48 +0000";
layers = (
{
layerId = "AD8C1534-DD1F-4D30-8D71-C3A36519B1B2";
name = "Bold Italic";
paths = (
{
closed = 1;
nodes = (
"532 0 LINE",
"585 175 LINE",
"553 175 LINE",
"532 154 OFFCURVE",
"488 85 OFFCURVE",
"478 49 CURVE",
"225 49 LINE",
"348 650 LINE",
"595 650 LINE",
"590 619 OFFCURVE",
"598 546 OFFCURVE",
"606 523 CURVE",
"639 523 LINE",
"675 700 LINE",
"124 700 LINE",
"121 682 LINE",
"147 672 OFFCURVE",
"176 664 OFFCURVE",
"199 660 CURVE",
"73 40 LINE",
"48 36 OFFCURVE",
"14 28 OFFCURVE",
"-15 18 CURVE",
"-18 0 LINE"
);
},
{
closed = 1;
nodes = (
"466 -206 OFFCURVE",
"508 -196 OFFCURVE",
"536 -180 CURVE",
"550 -117 LINE",
"522 -132 OFFCURVE",
"499 -138 OFFCURVE",
"481 -138 CURVE SMOOTH",
"446 -138 OFFCURVE",
"427 -117 OFFCURVE",
"433 -86 CURVE SMOOTH",
"439 -54 OFFCURVE",
"472 -18 OFFCURVE",
"500 0 CURVE",
"430 0 LINE",
"369 -18 OFFCURVE",
"325 -71 OFFCURVE",
"316 -116 CURVE SMOOTH",
"305 -170 OFFCURVE",
"344 -206 OFFCURVE",
"425 -206 CURVE SMOOTH"
);
},
{
closed = 1;
nodes = (
"474 239 LINE",
"519 461 LINE",
"495 461 LINE",
"480 433 OFFCURVE",
"464 393 OFFCURVE",
"458 375 CURVE",
"213 375 LINE",
"203 325 LINE",
"448 325 LINE",
"446 308 OFFCURVE",
"446 269 OFFCURVE",
"450 239 CURVE"
);
}
);
width = 634;
}
);
note = Eogonek;
unicode = 0118;
},
{
glyphname = Etilde;
lastChange = "2015-11-29 16:07:47 +0000";
layers = (
{
layerId = "AD8C1534-DD1F-4D30-8D71-C3A36519B1B2";
name = "Bold Italic";
paths = (
{
closed = 1;
nodes = (
"532 0 LINE",
"585 175 LINE",
"553 175 LINE",
"532 154 OFFCURVE",
"488 85 OFFCURVE",
"478 49 CURVE",
"225 49 LINE",
"348 650 LINE",
"595 650 LINE",
"590 619 OFFCURVE",
"598 546 OFFCURVE",
"606 523 CURVE",
"639 523 LINE",
"675 700 LINE",
"124 700 LINE",
"121 682 LINE",
"147 672 OFFCURVE",
"176 664 OFFCURVE",
"199 660 CURVE",
"73 40 LINE",
"48 36 OFFCURVE",
"14 28 OFFCURVE",
"-15 18 CURVE",
"-18 0 LINE"
);
},
{
closed = 1;
nodes = (
"474 239 LINE",
"519 461 LINE",
"495 461 LINE",
"480 433 OFFCURVE",
"464 393 OFFCURVE",
"458 375 CURVE",
"213 375 LINE",
"203 325 LINE",
"448 325 LINE",
"446 308 OFFCURVE",
"446 269 OFFCURVE",
"450 239 CURVE"
);
},
{
closed = 1;
nodes = (
"324 785 LINE",
"336 817 OFFCURVE",
"361 838 OFFCURVE",
"389 838 CURVE SMOOTH",
"424 838 OFFCURVE",
"474 785 OFFCURVE",
"531 785 CURVE SMOOTH",
"604 785 OFFCURVE",
"649 833 OFFCURVE",
"670 904 CURVE",
"608 904 LINE",
"588 858 OFFCURVE",
"562 850 OFFCURVE",
"538 850 CURVE SMOOTH",
"499 850 OFFCURVE",
"470 902 OFFCURVE",
"401 902 CURVE SMOOTH",
"336 902 OFFCURVE",
"286 862 OFFCURVE",
"260 785 CURVE"
);
}
);
width = 634;
}
);
note = Etilde;
unicode = 1EBC;
},
{
glyphname = F;
lastChange = "2015-11-29 16:07:47 +0000";
layers = (
{
layerId = "AD8C1534-DD1F-4D30-8D71-C3A36519B1B2";
name = "Bold Italic";
paths = (
{
closed = 1;
nodes = (
"299 0 LINE",
"302 17 LINE",
"276 28 OFFCURVE",
"246 35 OFFCURVE",
"223 39 CURVE",
"348 650 LINE",
"580 650 LINE",
"576 619 OFFCURVE",
"583 546 OFFCURVE",
"592 523 CURVE",
"625 523 LINE",
"660 700 LINE",
"124 700 LINE",
"121 682 LINE",
"147 672 OFFCURVE",
"177 664 OFFCURVE",
"199 660 CURVE",
"73 39 LINE",
"45 35 OFFCURVE",
"14 27 OFFCURVE",
"-15 18 CURVE",
"-18 0 LINE"
);
},
{
closed = 1;
nodes = (
"470 218 LINE",
"515 440 LINE",
"491 440 LINE",
"475 412 OFFCURVE",
"460 372 OFFCURVE",
"454 354 CURVE",
"160 354 LINE",
"149 304 LINE",
"443 304 LINE",
"442 287 OFFCURVE",
"441 248 OFFCURVE",
"446 218 CURVE"
);
}
);
width = 588;
}
);
note = F;
unicode = 0046;
},
{
glyphname = G;
lastChange = "2015-11-29 16:07:49 +0000";
layers = (
{
layerId = "AD8C1534-DD1F-4D30-8D71-C3A36519B1B2";
name = "Bold Italic";
paths = (
{
closed = 1;
nodes = (
"414 -10 OFFCURVE",
"523 10 OFFCURVE",
"580 48 CURVE",
"631 300 LINE",
"651 304 OFFCURVE",
"686 317 OFFCURVE",
"703 327 CURVE",
"706 341 LINE",
"418 341 LINE",
"414 322 LINE",
"436 314 OFFCURVE",
"462 308 OFFCURVE",
"486 302 CURVE",
"436 55 LINE",
"411 46 OFFCURVE",
"374 42 OFFCURVE",
"355 42 CURVE SMOOTH",
"220 42 OFFCURVE",
"173 160 OFFCURVE",
"212 350 CURVE SMOOTH",
"250 539 OFFCURVE",
"363 658 OFFCURVE",
"501 658 CURVE SMOOTH",
"546 658 OFFCURVE",
"606 646 OFFCURVE",
"635 618 CURVE",
"629 573 OFFCURVE",
"628 523 OFFCURVE",
"632 485 CURVE",
"668 485 LINE",
"711 631 LINE",
"671 680 OFFCURVE",
"585 710 OFFCURVE",
"474 710 CURVE SMOOTH",
"257 710 OFFCURVE",
"103 572 OFFCURVE",
"58 350 CURVE SMOOTH",
"12 127 OFFCURVE",
"100 -10 OFFCURVE",
"324 -10 CURVE SMOOTH"
);
}
);
width = 693;
}
);
leftKerningGroup = G;
note = G;
unicode = 0047;
},
{
glyphname = Gbreve;
lastChange = "2015-11-29 16:07:49 +0000";
layers = (
{
layerId = "AD8C1534-DD1F-4D30-8D71-C3A36519B1B2";
name = "Bold Italic";
paths = (
{
closed = 1;
nodes = (
"414 -10 OFFCURVE",
"523 10 OFFCURVE",
"580 48 CURVE",
"631 300 LINE",
"651 304 OFFCURVE",
"686 317 OFFCURVE",
"703 327 CURVE",
"706 341 LINE",
"418 341 LINE",
"414 322 LINE",
"436 314 OFFCURVE",
"462 308 OFFCURVE",
"486 302 CURVE",
"436 55 LINE",
"411 46 OFFCURVE",
"374 42 OFFCURVE",
"355 42 CURVE SMOOTH",
"220 42 OFFCURVE",
"173 160 OFFCURVE",
"212 350 CURVE SMOOTH",
"250 539 OFFCURVE",
"363 658 OFFCURVE",
"501 658 CURVE SMOOTH",
"546 658 OFFCURVE",
"606 646 OFFCURVE",
"635 618 CURVE",
"629 573 OFFCURVE",
"628 523 OFFCURVE",
"632 485 CURVE",
"668 485 LINE",
"711 631 LINE",
"671 680 OFFCURVE",
"585 710 OFFCURVE",
"474 710 CURVE SMOOTH",
"257 710 OFFCURVE",
"103 572 OFFCURVE",
"58 350 CURVE SMOOTH",
"12 127 OFFCURVE",
"100 -10 OFFCURVE",
"324 -10 CURVE SMOOTH"
);
},
{
closed = 1;
nodes = (
"585 782 OFFCURVE",
"659 825 OFFCURVE",
"692 916 CURVE",
"609 916 LINE",
"587 843 OFFCURVE",
"541 834 OFFCURVE",
"502 834 CURVE SMOOTH",
"462 834 OFFCURVE",
"419 843 OFFCURVE",
"427 916 CURVE",
"345 916 LINE",
"341 825 OFFCURVE",
"397 782 OFFCURVE",
"491 782 CURVE SMOOTH"
);
}
);
width = 693;
}
);
leftKerningGroup = G;
note = Gbreve;
unicode = 011E;
},
{
glyphname = Gcaron;
lastChange = "2015-11-29 16:07:49 +0000";
layers = (
{
layerId = "AD8C1534-DD1F-4D30-8D71-C3A36519B1B2";
name = "Bold Italic";
paths = (
{
closed = 1;
nodes = (
"414 -10 OFFCURVE",
"523 10 OFFCURVE",
"580 48 CURVE",
"631 300 LINE",
"651 304 OFFCURVE",
"686 317 OFFCURVE",
"703 327 CURVE",
"706 341 LINE",
"418 341 LINE",
"414 322 LINE",
"436 314 OFFCURVE",
"462 308 OFFCURVE",
"486 302 CURVE",
"436 55 LINE",
"411 46 OFFCURVE",
"374 42 OFFCURVE",
"355 42 CURVE SMOOTH",
"220 42 OFFCURVE",
"173 160 OFFCURVE",
"212 350 CURVE SMOOTH",
"250 539 OFFCURVE",
"363 658 OFFCURVE",
"501 658 CURVE SMOOTH",
"546 658 OFFCURVE",
"606 646 OFFCURVE",
"635 618 CURVE",
"629 573 OFFCURVE",
"628 523 OFFCURVE",
"632 485 CURVE",
"668 485 LINE",
"711 631 LINE",
"671 680 OFFCURVE",
"585 710 OFFCURVE",
"474 710 CURVE SMOOTH",
"257 710 OFFCURVE",
"103 572 OFFCURVE",
"58 350 CURVE SMOOTH",
"12 127 OFFCURVE",
"100 -10 OFFCURVE",
"324 -10 CURVE SMOOTH"
);
},
{
closed = 1;
nodes = (
"452 790 OFFCURVE",
"504 790 OFFCURVE",
"512 790 CURVE",
"542 826 OFFCURVE",
"642 904 OFFCURVE",
"690 933 CURVE",
"640 978 LINE",
"593 946 OFFCURVE",
"522 886 OFFCURVE",
"491 850 CURVE",
"490 850 OFFCURVE",
"488 850 OFFCURVE",
"487 850 CURVE",
"473 886 OFFCURVE",
"426 946 OFFCURVE",
"393 978 CURVE",
"324 933 LINE",
"361 904 OFFCURVE",
"427 826 OFFCURVE",
"443 790 CURVE"
);
}
);
width = 693;
}
);
leftKerningGroup = G;
note = Gcaron;
unicode = 01E6;
},
{
glyphname = Gcircumflex;
lastChange = "2015-11-29 16:07:47 +0000";
layers = (
{
layerId = "AD8C1534-DD1F-4D30-8D71-C3A36519B1B2";
name = "Bold Italic";
paths = (
{
closed = 1;
nodes = (
"414 -10 OFFCURVE",
"523 10 OFFCURVE",
"580 48 CURVE",
"631 300 LINE",
"651 304 OFFCURVE",
"686 317 OFFCURVE",
"703 327 CURVE",
"706 341 LINE",
"418 341 LINE",
"414 322 LINE",
"436 314 OFFCURVE",
"462 308 OFFCURVE",
"486 302 CURVE",
"436 55 LINE",
"411 46 OFFCURVE",
"374 42 OFFCURVE",
"355 42 CURVE SMOOTH",
"220 42 OFFCURVE",
"173 160 OFFCURVE",
"212 350 CURVE SMOOTH",
"250 539 OFFCURVE",
"363 658 OFFCURVE",
"501 658 CURVE SMOOTH",
"546 658 OFFCURVE",
"606 646 OFFCURVE",
"635 618 CURVE",
"629 573 OFFCURVE",
"628 523 OFFCURVE",
"632 485 CURVE",
"668 485 LINE",
"711 631 LINE",
"671 680 OFFCURVE",
"585 710 OFFCURVE",
"474 710 CURVE SMOOTH",
"257 710 OFFCURVE",
"103 572 OFFCURVE",
"58 350 CURVE SMOOTH",
"12 127 OFFCURVE",
"100 -10 OFFCURVE",
"324 -10 CURVE SMOOTH"
);
},
{
closed = 1;
nodes = (
"427 816 OFFCURVE",
"499 876 OFFCURVE",
"528 912 CURVE",
"529 912 OFFCURVE",
"531 912 OFFCURVE",
"532 912 CURVE",
"548 876 OFFCURVE",
"594 816 OFFCURVE",
"628 783 CURVE",
"697 829 LINE",
"660 857 OFFCURVE",
"593 936 OFFCURVE",
"577 972 CURVE",
"568 972 OFFCURVE",
"516 972 OFFCURVE",
"508 972 CURVE",
"478 936 OFFCURVE",
"380 857 OFFCURVE",
"331 829 CURVE",
"382 783 LINE"
);
}
);
width = 693;
}
);
leftKerningGroup = G;
note = Gcircumflex;
unicode = 011C;
},
{
glyphname = Gcommaaccent;
lastChange = "2015-11-29 16:07:47 +0000";
layers = (
{
layerId = "AD8C1534-DD1F-4D30-8D71-C3A36519B1B2";
name = "Bold Italic";
paths = (
{
closed = 1;
nodes = (
"414 -10 OFFCURVE",
"523 10 OFFCURVE",
"580 48 CURVE",
"631 300 LINE",
"651 304 OFFCURVE",
"686 317 OFFCURVE",
"703 327 CURVE",
"706 341 LINE",
"418 341 LINE",
"414 322 LINE",
"436 314 OFFCURVE",
"462 308 OFFCURVE",
"486 302 CURVE",
"436 55 LINE",
"411 46 OFFCURVE",
"374 42 OFFCURVE",
"355 42 CURVE SMOOTH",
"220 42 OFFCURVE",
"173 160 OFFCURVE",
"212 350 CURVE SMOOTH",
"250 539 OFFCURVE",
"363 658 OFFCURVE",
"501 658 CURVE SMOOTH",
"546 658 OFFCURVE",
"606 646 OFFCURVE",
"635 618 CURVE",
"629 573 OFFCURVE",
"628 523 OFFCURVE",
"632 485 CURVE",
"668 485 LINE",
"711 631 LINE",
"671 680 OFFCURVE",
"585 710 OFFCURVE",
"474 710 CURVE SMOOTH",
"257 710 OFFCURVE",
"103 572 OFFCURVE",
"58 350 CURVE SMOOTH",
"12 127 OFFCURVE",
"100 -10 OFFCURVE",
"324 -10 CURVE SMOOTH"
);
},
{
closed = 1;
nodes = (
"308 -319 OFFCURVE",
"366 -235 OFFCURVE",
"382 -159 CURVE SMOOTH",
"390 -117 OFFCURVE",
"374 -81 OFFCURVE",
"322 -81 CURVE SMOOTH",
"285 -81 OFFCURVE",
"246 -106 OFFCURVE",
"238 -148 CURVE SMOOTH",
"230 -188 OFFCURVE",
"254 -215 OFFCURVE",
"292 -217 CURVE",
"277 -261 OFFCURVE",
"234 -306 OFFCURVE",
"205 -332 CURVE",
"244 -368 LINE"
);
}
);
width = 693;
}
);
leftKerningGroup = G;
note = Gcommaaccent;
unicode = 0122;
},
{
glyphname = Gdotaccent;
lastChange = "2015-11-29 16:07:47 +0000";
layers = (
{
layerId = "AD8C1534-DD1F-4D30-8D71-C3A36519B1B2";
name = "Bold Italic";
paths = (
{
closed = 1;
nodes = (
"414 -10 OFFCURVE",
"523 10 OFFCURVE",
"580 48 CURVE",
"631 300 LINE",
"651 304 OFFCURVE",
"686 317 OFFCURVE",
"703 327 CURVE",
"706 341 LINE",
"418 341 LINE",
"414 322 LINE",
"436 314 OFFCURVE",
"462 308 OFFCURVE",
"486 302 CURVE",
"436 55 LINE",
"411 46 OFFCURVE",
"374 42 OFFCURVE",
"355 42 CURVE SMOOTH",
"220 42 OFFCURVE",
"173 160 OFFCURVE",
"212 350 CURVE SMOOTH",
"250 539 OFFCURVE",
"363 658 OFFCURVE",
"501 658 CURVE SMOOTH",
"546 658 OFFCURVE",
"606 646 OFFCURVE",
"635 618 CURVE",
"629 573 OFFCURVE",
"628 523 OFFCURVE",
"632 485 CURVE",
"668 485 LINE",
"711 631 LINE",
"671 680 OFFCURVE",
"585 710 OFFCURVE",
"474 710 CURVE SMOOTH",
"257 710 OFFCURVE",
"103 572 OFFCURVE",
"58 350 CURVE SMOOTH",
"12 127 OFFCURVE",
"100 -10 OFFCURVE",
"324 -10 CURVE SMOOTH"
);
},
{
closed = 1;
nodes = (
"542 785 OFFCURVE",
"571 812 OFFCURVE",
"579 847 CURVE SMOOTH",
"585 882 OFFCURVE",
"568 909 OFFCURVE",
"532 909 CURVE SMOOTH",
"496 909 OFFCURVE",
"468 882 OFFCURVE",
"461 847 CURVE SMOOTH",
"454 812 OFFCURVE",
"470 785 OFFCURVE",
"507 785 CURVE SMOOTH"
);
}
);
width = 693;
}
);
leftKerningGroup = G;
note = Gdotaccent;
unicode = 0120;
},
{
glyphname = Gmacron;
lastChange = "2015-11-29 16:07:48 +0000";
layers = (
{
layerId = "AD8C1534-DD1F-4D30-8D71-C3A36519B1B2";
name = "Bold Italic";
paths = (
{
closed = 1;
nodes = (
"414 -10 OFFCURVE",
"523 10 OFFCURVE",
"580 48 CURVE",
"631 300 LINE",
"651 304 OFFCURVE",
"686 317 OFFCURVE",
"703 327 CURVE",
"706 341 LINE",
"418 341 LINE",
"414 322 LINE",
"436 314 OFFCURVE",
"462 308 OFFCURVE",
"486 302 CURVE",
"436 55 LINE",
"411 46 OFFCURVE",
"374 42 OFFCURVE",
"355 42 CURVE SMOOTH",
"220 42 OFFCURVE",
"173 160 OFFCURVE",
"212 350 CURVE SMOOTH",
"250 539 OFFCURVE",
"363 658 OFFCURVE",
"501 658 CURVE SMOOTH",
"546 658 OFFCURVE",
"606 646 OFFCURVE",
"635 618 CURVE",
"629 573 OFFCURVE",
"628 523 OFFCURVE",
"632 485 CURVE",
"668 485 LINE",
"711 631 LINE",
"671 680 OFFCURVE",
"585 710 OFFCURVE",
"474 710 CURVE SMOOTH",
"257 710 OFFCURVE",
"103 572 OFFCURVE",
"58 350 CURVE SMOOTH",
"12 127 OFFCURVE",
"100 -10 OFFCURVE",
"324 -10 CURVE SMOOTH"
);
},
{
closed = 1;
nodes = (
"656 785 LINE",
"666 833 LINE",
"292 833 LINE",
"283 785 LINE"
);
}
);
width = 693;
}
);
leftKerningGroup = G;
note = Gmacron;
unicode = 1E20;
},
{
glyphname = H;
lastChange = "2015-11-29 16:07:47 +0000";
layers = (
{
layerId = "AD8C1534-DD1F-4D30-8D71-C3A36519B1B2";
name = "Bold Italic";
paths = (
{
closed = 1;
nodes = (
"718 0 LINE",
"721 17 LINE",
"695 28 OFFCURVE",
"673 34 OFFCURVE",
"650 39 CURVE",
"775 658 LINE",
"795 661 OFFCURVE",
"826 671 OFFCURVE",
"856 680 CURVE",
"860 700 LINE",
"559 700 LINE",
"556 682 LINE",
"581 673 OFFCURVE",
"604 666 OFFCURVE",
"626 661 CURVE",
"499 40 LINE",
"484 38 OFFCURVE",
"477 37 OFFCURVE",
"420 15 CURVE",
"417 0 LINE"
);
},
{
closed = 1;
nodes = (
"283 0 LINE",
"286 17 LINE",
"261 26 OFFCURVE",
"238 33 OFFCURVE",
"217 38 CURVE",
"343 659 LINE",
"357 662 OFFCURVE",
"364 662 OFFCURVE",
"422 684 CURVE",
"425 700 LINE",
"124 700 LINE",
"121 682 LINE",
"147 672 OFFCURVE",
"170 665 OFFCURVE",
"193 660 CURVE",
"66 41 LINE",
"48 38 OFFCURVE",
"14 28 OFFCURVE",
"-14 19 CURVE",
"-18 0 LINE"
);
},
{
closed = 1;
nodes = (
"631 330 LINE",
"641 380 LINE",
"214 380 LINE",
"204 330 LINE"
);
}
);
width = 794;
}
);
note = H;
unicode = 0048;
},
{
glyphname = Hbar;
lastChange = "2015-11-29 16:07:47 +0000";
layers = (
{
layerId = "AD8C1534-DD1F-4D30-8D71-C3A36519B1B2";
name = "Bold Italic";
paths = (
{
closed = 1;
nodes = (
"718 0 LINE",
"721 17 LINE",
"695 28 OFFCURVE",
"673 34 OFFCURVE",
"650 39 CURVE",
"775 658 LINE",
"795 661 OFFCURVE",
"826 671 OFFCURVE",
"856 680 CURVE",
"860 700 LINE",
"559 700 LINE",
"556 682 LINE",
"581 673 OFFCURVE",
"604 666 OFFCURVE",
"626 661 CURVE",
"499 40 LINE",
"484 38 OFFCURVE",
"477 37 OFFCURVE",
"420 15 CURVE",
"417 0 LINE"
);
},
{
closed = 1;
nodes = (
"283 0 LINE",
"286 17 LINE",
"261 26 OFFCURVE",
"238 33 OFFCURVE",
"217 38 CURVE",
"343 659 LINE",
"357 662 OFFCURVE",
"364 662 OFFCURVE",
"422 684 CURVE",
"425 700 LINE",
"124 700 LINE",
"121 682 LINE",
"147 672 OFFCURVE",
"170 665 OFFCURVE",
"193 660 CURVE",
"66 41 LINE",
"48 38 OFFCURVE",
"14 28 OFFCURVE",
"-14 19 CURVE",
"-18 0 LINE"
);
},
{
closed = 1;
nodes = (
"631 330 LINE",
"641 380 LINE",
"214 380 LINE",
"204 330 LINE"
);
},
{
closed = 1;
nodes = (
"800 494 LINE",
"810 543 LINE",
"111 543 LINE",
"101 494 LINE"
);
}
);
width = 794;
}
);
note = Hbar;
unicode = 0126;
},
{
glyphname = Hbrevebelow;
lastChange = "2015-11-29 16:07:48 +0000";
layers = (
{
layerId = "AD8C1534-DD1F-4D30-8D71-C3A36519B1B2";
name = "Bold Italic";
paths = (
{
closed = 1;
nodes = (
"718 0 LINE",
"721 17 LINE",
"695 28 OFFCURVE",
"673 34 OFFCURVE",
"650 39 CURVE",
"775 658 LINE",
"795 661 OFFCURVE",
"826 671 OFFCURVE",
"856 680 CURVE",
"860 700 LINE",
"559 700 LINE",
"556 682 LINE",
"581 673 OFFCURVE",
"604 666 OFFCURVE",
"626 661 CURVE",
"499 40 LINE",
"484 38 OFFCURVE",
"477 37 OFFCURVE",
"420 15 CURVE",
"417 0 LINE"
);
},
{
closed = 1;
nodes = (
"406 -184 OFFCURVE",
"480 -142 OFFCURVE",
"513 -50 CURVE",
"431 -50 LINE",
"408 -123 OFFCURVE",
"362 -133 OFFCURVE",
"323 -133 CURVE SMOOTH",
"284 -133 OFFCURVE",
"241 -123 OFFCURVE",
"249 -50 CURVE",
"167 -50 LINE",
"162 -142 OFFCURVE",
"219 -184 OFFCURVE",
"313 -184 CURVE SMOOTH"
);
},
{
closed = 1;
nodes = (
"283 0 LINE",
"286 17 LINE",
"261 26 OFFCURVE",
"238 33 OFFCURVE",
"217 38 CURVE",
"343 659 LINE",
"357 662 OFFCURVE",
"364 662 OFFCURVE",
"422 684 CURVE",
"425 700 LINE",
"124 700 LINE",
"121 682 LINE",
"147 672 OFFCURVE",
"170 665 OFFCURVE",
"193 660 CURVE",
"66 41 LINE",
"48 38 OFFCURVE",
"14 28 OFFCURVE",
"-14 19 CURVE",
"-18 0 LINE"
);
},
{
closed = 1;
nodes = (
"631 330 LINE",
"641 380 LINE",
"214 380 LINE",
"204 330 LINE"
);
}
);
width = 794;
}
);
note = Hbrevebelow;
unicode = 1E2A;
},
{
glyphname = Hcircumflex;
lastChange = "2015-11-29 16:07:48 +0000";
layers = (
{
layerId = "AD8C1534-DD1F-4D30-8D71-C3A36519B1B2";
name = "Bold Italic";
paths = (
{
closed = 1;
nodes = (
"718 0 LINE",
"721 17 LINE",
"695 28 OFFCURVE",
"673 34 OFFCURVE",
"650 39 CURVE",
"775 658 LINE",
"795 661 OFFCURVE",
"826 671 OFFCURVE",
"856 680 CURVE",
"860 700 LINE",
"559 700 LINE",
"556 682 LINE",
"581 673 OFFCURVE",
"604 666 OFFCURVE",
"626 661 CURVE",
"499 40 LINE",
"484 38 OFFCURVE",
"477 37 OFFCURVE",
"420 15 CURVE",
"417 0 LINE"
);
},
{
closed = 1;
nodes = (
"283 0 LINE",
"286 17 LINE",
"261 26 OFFCURVE",
"238 33 OFFCURVE",
"217 38 CURVE",
"343 659 LINE",
"357 662 OFFCURVE",
"364 662 OFFCURVE",
"422 684 CURVE",
"425 700 LINE",
"124 700 LINE",
"121 682 LINE",
"147 672 OFFCURVE",
"170 665 OFFCURVE",
"193 660 CURVE",
"66 41 LINE",
"48 38 OFFCURVE",
"14 28 OFFCURVE",
"-14 19 CURVE",
"-18 0 LINE"
);
},
{
closed = 1;
nodes = (
"631 330 LINE",
"641 380 LINE",
"214 380 LINE",
"204 330 LINE"
);
},
{
closed = 1;
nodes = (
"432 816 OFFCURVE",
"504 876 OFFCURVE",
"532 912 CURVE",
"533 912 OFFCURVE",
"535 912 OFFCURVE",
"536 912 CURVE",
"553 876 OFFCURVE",
"599 816 OFFCURVE",
"632 783 CURVE",
"701 829 LINE",
"665 857 OFFCURVE",
"598 936 OFFCURVE",
"581 972 CURVE",
"573 972 OFFCURVE",
"521 972 OFFCURVE",
"512 972 CURVE",
"483 936 OFFCURVE",
"385 857 OFFCURVE",
"336 829 CURVE",
"387 783 LINE"
);
}
);
width = 794;
}
);
note = Hcircumflex;
unicode = 0124;
},
{
glyphname = Hdotbelow;
lastChange = "2015-11-29 16:07:48 +0000";
layers = (
{
layerId = "AD8C1534-DD1F-4D30-8D71-C3A36519B1B2";
name = "Bold Italic";
paths = (
{
closed = 1;
nodes = (
"718 0 LINE",
"721 17 LINE",
"695 28 OFFCURVE",
"673 34 OFFCURVE",
"650 39 CURVE",
"775 658 LINE",
"795 661 OFFCURVE",
"826 671 OFFCURVE",
"856 680 CURVE",
"860 700 LINE",
"559 700 LINE",
"556 682 LINE",
"581 673 OFFCURVE",
"604 666 OFFCURVE",
"626 661 CURVE",
"499 40 LINE",
"484 38 OFFCURVE",
"477 37 OFFCURVE",
"420 15 CURVE",
"417 0 LINE"
);
},
{
closed = 1;
nodes = (
"349 -178 OFFCURVE",
"377 -151 OFFCURVE",
"385 -116 CURVE SMOOTH",
"391 -81 OFFCURVE",
"374 -54 OFFCURVE",
"338 -54 CURVE SMOOTH",
"302 -54 OFFCURVE",
"273 -81 OFFCURVE",
"267 -116 CURVE SMOOTH",
"259 -151 OFFCURVE",
"277 -178 OFFCURVE",
"313 -178 CURVE SMOOTH"
);
},
{
closed = 1;
nodes = (
"283 0 LINE",
"286 17 LINE",
"261 26 OFFCURVE",
"238 33 OFFCURVE",
"217 38 CURVE",
"343 659 LINE",
"357 662 OFFCURVE",
"364 662 OFFCURVE",
"422 684 CURVE",
"425 700 LINE",
"124 700 LINE",
"121 682 LINE",
"147 672 OFFCURVE",
"170 665 OFFCURVE",
"193 660 CURVE",
"66 41 LINE",
"48 38 OFFCURVE",
"14 28 OFFCURVE",
"-14 19 CURVE",
"-18 0 LINE"
);
},
{
closed = 1;
nodes = (
"631 330 LINE",
"641 380 LINE",
"214 380 LINE",
"204 330 LINE"
);
}
);
width = 794;
}
);
note = Hdotbelow;
unicode = 1E24;
},
{
glyphname = I;
lastChange = "2015-11-29 16:07:47 +0000";
layers = (
{
layerId = "AD8C1534-DD1F-4D30-8D71-C3A36519B1B2";
name = "Bold Italic";
paths = (
{
closed = 1;
nodes = (
"289 0 LINE",
"292 18 LINE",
"268 26 OFFCURVE",
"241 35 OFFCURVE",
"219 39 CURVE",
"345 659 LINE",
"373 666 OFFCURVE",
"402 672 OFFCURVE",
"427 680 CURVE",
"431 700 LINE",
"125 700 LINE",
"122 681 LINE",
"147 673 OFFCURVE",
"173 664 OFFCURVE",
"195 660 CURVE",
"68 40 LINE",
"41 34 OFFCURVE",
"11 27 OFFCURVE",
"-13 20 CURVE",
"-17 0 LINE"
);
}
);
width = 365;
}
);
note = I;
unicode = 0049;
},
{
glyphname = IJ;
lastChange = "2015-11-29 16:07:48 +0000";
layers = (
{
layerId = "AD8C1534-DD1F-4D30-8D71-C3A36519B1B2";
name = "Bold Italic";
paths = (
{
closed = 1;
nodes = (
"607 -10 OFFCURVE",
"715 40 OFFCURVE",
"740 163 CURVE SMOOTH",
"841 658 LINE",
"859 661 OFFCURVE",
"892 671 OFFCURVE",
"920 680 CURVE",
"924 700 LINE",
"623 700 LINE",
"619 680 LINE",
"641 671 OFFCURVE",
"660 664 OFFCURVE",
"691 659 CURVE",
"588 156 LINE SMOOTH",
"572 78 OFFCURVE",
"521 50 OFFCURVE",
"469 50 CURVE SMOOTH",
"427 50 OFFCURVE",
"389 67 OFFCURVE",
"367 86 CURVE",
"338 48 LINE",
"372 10 OFFCURVE",
"435 -10 OFFCURVE",
"501 -10 CURVE SMOOTH"
);
},
{
closed = 1;
nodes = (
"289 0 LINE",
"292 18 LINE",
"268 26 OFFCURVE",
"241 35 OFFCURVE",
"219 39 CURVE",
"345 659 LINE",
"373 666 OFFCURVE",
"402 672 OFFCURVE",
"427 680 CURVE",
"431 700 LINE",
"125 700 LINE",
"122 681 LINE",
"147 673 OFFCURVE",
"173 664 OFFCURVE",
"195 660 CURVE",
"68 40 LINE",
"41 34 OFFCURVE",
"11 27 OFFCURVE",
"-13 20 CURVE",
"-17 0 LINE"
);
}
);
width = 858;
}
);
note = IJ;
rightKerningGroup = J;
unicode = 0132;
},
{
glyphname = Iacute;
lastChange = "2015-11-29 16:07:49 +0000";
layers = (
{
layerId = "AD8C1534-DD1F-4D30-8D71-C3A36519B1B2";
name = "Bold Italic";
paths = (
{
closed = 1;
nodes = (
"289 0 LINE",
"292 18 LINE",
"268 26 OFFCURVE",
"241 35 OFFCURVE",
"219 39 CURVE",
"345 659 LINE",
"373 666 OFFCURVE",
"402 672 OFFCURVE",
"427 680 CURVE",
"431 700 LINE",
"125 700 LINE",
"122 681 LINE",
"147 673 OFFCURVE",
"173 664 OFFCURVE",
"195 660 CURVE",
"68 40 LINE",
"41 34 OFFCURVE",
"11 27 OFFCURVE",
"-13 20 CURVE",
"-17 0 LINE"
);
},
{
closed = 1;
nodes = (
"378 879 LINE SMOOTH",
"412 898 OFFCURVE",
"433 916 OFFCURVE",
"437 940 CURVE SMOOTH",
"441 959 OFFCURVE",
"432 982 OFFCURVE",
"400 982 CURVE SMOOTH",
"367 982 OFFCURVE",
"339 954 OFFCURVE",
"332 947 CURVE",
"189 821 LINE",
"206 786 LINE"
);
}
);
width = 365;
}
);
note = Iacute;
unicode = 00CD;
},
{
glyphname = Ibreve;
lastChange = "2015-11-29 16:07:48 +0000";
layers = (
{
layerId = "AD8C1534-DD1F-4D30-8D71-C3A36519B1B2";
name = "Bold Italic";
paths = (
{
closed = 1;
nodes = (
"289 0 LINE",
"292 18 LINE",
"268 26 OFFCURVE",
"241 35 OFFCURVE",
"219 39 CURVE",
"345 659 LINE",
"373 666 OFFCURVE",
"402 672 OFFCURVE",
"427 680 CURVE",
"431 700 LINE",
"125 700 LINE",
"122 681 LINE",
"147 673 OFFCURVE",
"173 664 OFFCURVE",
"195 660 CURVE",
"68 40 LINE",
"41 34 OFFCURVE",
"11 27 OFFCURVE",
"-13 20 CURVE",
"-17 0 LINE"
);
},
{
closed = 1;
nodes = (
"388 782 OFFCURVE",
"462 825 OFFCURVE",
"495 916 CURVE",
"412 916 LINE",
"390 843 OFFCURVE",
"344 834 OFFCURVE",
"305 834 CURVE SMOOTH",
"266 834 OFFCURVE",
"222 843 OFFCURVE",
"230 916 CURVE",
"148 916 LINE",
"145 825 OFFCURVE",
"200 782 OFFCURVE",
"294 782 CURVE SMOOTH"
);
}
);
width = 365;
}
);
note = Ibreve;
unicode = 012C;
},
{
glyphname = Icaron;
lastChange = "2015-11-29 16:07:48 +0000";
layers = (
{
layerId = "AD8C1534-DD1F-4D30-8D71-C3A36519B1B2";
name = "Bold Italic";
paths = (
{
closed = 1;
nodes = (
"289 0 LINE",
"292 18 LINE",
"268 26 OFFCURVE",
"241 35 OFFCURVE",
"219 39 CURVE",
"345 659 LINE",
"373 666 OFFCURVE",
"402 672 OFFCURVE",
"427 680 CURVE",
"431 700 LINE",
"125 700 LINE",
"122 681 LINE",
"147 673 OFFCURVE",
"173 664 OFFCURVE",
"195 660 CURVE",
"68 40 LINE",
"41 34 OFFCURVE",
"11 27 OFFCURVE",
"-13 20 CURVE",
"-17 0 LINE"
);
},
{
closed = 1;
nodes = (
"268 786 OFFCURVE",
"320 786 OFFCURVE",
"329 786 CURVE",
"359 822 OFFCURVE",
"459 900 OFFCURVE",
"507 929 CURVE",
"457 974 LINE",
"410 942 OFFCURVE",
"339 882 OFFCURVE",
"308 846 CURVE",
"307 846 OFFCURVE",
"305 846 OFFCURVE",
"304 846 CURVE",
"290 882 OFFCURVE",
"243 942 OFFCURVE",
"210 974 CURVE",
"141 929 LINE",
"177 900 OFFCURVE",
"244 822 OFFCURVE",
"260 786 CURVE"
);
}
);
width = 365;
}
);
note = Icaron;
unicode = 01CF;
},
{
glyphname = Icircumflex;
lastChange = "2015-11-29 16:07:48 +0000";
layers = (
{
layerId = "AD8C1534-DD1F-4D30-8D71-C3A36519B1B2";
name = "Bold Italic";
paths = (
{
closed = 1;
nodes = (
"289 0 LINE",
"292 18 LINE",
"268 26 OFFCURVE",
"241 35 OFFCURVE",
"219 39 CURVE",
"345 659 LINE",
"373 666 OFFCURVE",
"402 672 OFFCURVE",
"427 680 CURVE",
"431 700 LINE",
"125 700 LINE",
"122 681 LINE",
"147 673 OFFCURVE",
"173 664 OFFCURVE",
"195 660 CURVE",
"68 40 LINE",
"41 34 OFFCURVE",
"11 27 OFFCURVE",
"-13 20 CURVE",
"-17 0 LINE"
);
},
{
closed = 1;
nodes = (
"217 816 OFFCURVE",
"289 876 OFFCURVE",
"317 912 CURVE",
"318 912 OFFCURVE",
"320 912 OFFCURVE",
"321 912 CURVE",
"338 876 OFFCURVE",
"384 816 OFFCURVE",
"417 783 CURVE",
"486 829 LINE",
"450 857 OFFCURVE",
"383 936 OFFCURVE",
"366 972 CURVE",
"358 972 OFFCURVE",
"306 972 OFFCURVE",
"297 972 CURVE",
"268 936 OFFCURVE",
"170 857 OFFCURVE",
"121 829 CURVE",
"172 783 LINE"
);
}
);
width = 365;
}
);
note = Icircumflex;
unicode = 00CE;
},
{
glyphname = Idieresis;
lastChange = "2015-11-29 16:07:47 +0000";
layers = (
{
layerId = "AD8C1534-DD1F-4D30-8D71-C3A36519B1B2";
name = "Bold Italic";
paths = (
{
closed = 1;
nodes = (
"289 0 LINE",
"292 18 LINE",
"268 26 OFFCURVE",
"241 35 OFFCURVE",
"219 39 CURVE",
"345 659 LINE",
"373 666 OFFCURVE",
"402 672 OFFCURVE",
"427 680 CURVE",
"431 700 LINE",
"125 700 LINE",
"122 681 LINE",
"147 673 OFFCURVE",
"173 664 OFFCURVE",
"195 660 CURVE",
"68 40 LINE",
"41 34 OFFCURVE",
"11 27 OFFCURVE",
"-13 20 CURVE",
"-17 0 LINE"
);
},
{
closed = 1;
nodes = (
"215 785 OFFCURVE",
"244 812 OFFCURVE",
"251 847 CURVE SMOOTH",
"258 882 OFFCURVE",
"241 909 OFFCURVE",
"204 909 CURVE SMOOTH",
"170 909 OFFCURVE",
"141 882 OFFCURVE",
"134 847 CURVE SMOOTH",
"126 812 OFFCURVE",
"144 785 OFFCURVE",
"178 785 CURVE SMOOTH"
);
},
{
closed = 1;
nodes = (
"445 785 OFFCURVE",
"474 812 OFFCURVE",
"482 847 CURVE SMOOTH",
"488 882 OFFCURVE",
"471 909 OFFCURVE",
"435 909 CURVE SMOOTH",
"398 909 OFFCURVE",
"370 882 OFFCURVE",
"364 847 CURVE SMOOTH",
"356 812 OFFCURVE",
"372 785 OFFCURVE",
"409 785 CURVE SMOOTH"
);
}
);
width = 365;
}
);
note = Idieresis;
unicode = 00CF;
},
{
glyphname = Idotaccent;
lastChange = "2015-11-29 16:07:48 +0000";
layers = (
{
layerId = "AD8C1534-DD1F-4D30-8D71-C3A36519B1B2";
name = "Bold Italic";
paths = (
{
closed = 1;
nodes = (
"289 0 LINE",
"292 18 LINE",
"268 26 OFFCURVE",
"241 35 OFFCURVE",
"219 39 CURVE",
"345 659 LINE",
"373 666 OFFCURVE",
"402 672 OFFCURVE",
"427 680 CURVE",
"431 700 LINE",
"125 700 LINE",
"122 681 LINE",
"147 673 OFFCURVE",
"173 664 OFFCURVE",
"195 660 CURVE",
"68 40 LINE",
"41 34 OFFCURVE",
"11 27 OFFCURVE",
"-13 20 CURVE",
"-17 0 LINE"
);
},
{
closed = 1;
nodes = (
"328 785 OFFCURVE",
"357 812 OFFCURVE",
"364 847 CURVE SMOOTH",
"371 882 OFFCURVE",
"354 909 OFFCURVE",
"318 909 CURVE SMOOTH",
"282 909 OFFCURVE",
"254 882 OFFCURVE",
"247 847 CURVE SMOOTH",
"240 812 OFFCURVE",
"256 785 OFFCURVE",
"292 785 CURVE SMOOTH"
);
}
);
width = 365;
}
);
note = Idotaccent;
unicode = 0130;
},
{
glyphname = Idotbelow;
lastChange = "2015-11-29 16:07:48 +0000";
layers = (
{
layerId = "AD8C1534-DD1F-4D30-8D71-C3A36519B1B2";
name = "Bold Italic";
paths = (
{
closed = 1;
nodes = (
"289 0 LINE",
"292 18 LINE",
"268 26 OFFCURVE",
"241 35 OFFCURVE",
"219 39 CURVE",
"345 659 LINE",
"373 666 OFFCURVE",
"402 672 OFFCURVE",
"427 680 CURVE",
"431 700 LINE",
"125 700 LINE",
"122 681 LINE",
"147 673 OFFCURVE",
"173 664 OFFCURVE",
"195 660 CURVE",
"68 40 LINE",
"41 34 OFFCURVE",
"11 27 OFFCURVE",
"-13 20 CURVE",
"-17 0 LINE"
);
},
{
closed = 1;
nodes = (
"136 -178 OFFCURVE",
"164 -151 OFFCURVE",
"172 -116 CURVE SMOOTH",
"178 -81 OFFCURVE",
"161 -54 OFFCURVE",
"124 -54 CURVE SMOOTH",
"89 -54 OFFCURVE",
"60 -81 OFFCURVE",
"53 -116 CURVE SMOOTH",
"46 -151 OFFCURVE",
"64 -178 OFFCURVE",
"100 -178 CURVE SMOOTH"
);
}
);
width = 365;
}
);
note = Idotbelow;
unicode = 1ECA;
},
{
glyphname = Igrave;
lastChange = "2015-11-29 16:07:48 +0000";
layers = (
{
layerId = "AD8C1534-DD1F-4D30-8D71-C3A36519B1B2";
name = "Bold Italic";
paths = (
{
closed = 1;
nodes = (
"289 0 LINE",
"292 18 LINE",
"268 26 OFFCURVE",
"241 35 OFFCURVE",
"219 39 CURVE",
"345 659 LINE",
"373 666 OFFCURVE",
"402 672 OFFCURVE",
"427 680 CURVE",
"431 700 LINE",
"125 700 LINE",
"122 681 LINE",
"147 673 OFFCURVE",
"173 664 OFFCURVE",
"195 660 CURVE",
"68 40 LINE",
"41 34 OFFCURVE",
"11 27 OFFCURVE",
"-13 20 CURVE",
"-17 0 LINE"
);
},
{
closed = 1;
nodes = (
"414 821 LINE",
"322 948 LINE",
"318 955 OFFCURVE",
"300 982 OFFCURVE",
"268 982 CURVE SMOOTH",
"235 982 OFFCURVE",
"217 959 OFFCURVE",
"213 940 CURVE SMOOTH",
"208 916 OFFCURVE",
"221 898 OFFCURVE",
"248 879 CURVE SMOOTH",
"384 786 LINE"
);
}
);
width = 365;
}
);
note = Igrave;
unicode = 00CC;
},
{
glyphname = Ihookabove;
lastChange = "2015-11-29 16:07:48 +0000";
layers = (
{
layerId = "AD8C1534-DD1F-4D30-8D71-C3A36519B1B2";
name = "Bold Italic";
paths = (
{
closed = 1;
nodes = (
"289 0 LINE",
"292 18 LINE",
"268 26 OFFCURVE",
"241 35 OFFCURVE",
"219 39 CURVE",
"345 659 LINE",
"373 666 OFFCURVE",
"402 672 OFFCURVE",
"427 680 CURVE",
"431 700 LINE",
"125 700 LINE",
"122 681 LINE",
"147 673 OFFCURVE",
"173 664 OFFCURVE",
"195 660 CURVE",
"68 40 LINE",
"41 34 OFFCURVE",
"11 27 OFFCURVE",
"-13 20 CURVE",
"-17 0 LINE"
);
},
{
closed = 1;
nodes = (
"330 783 LINE",
"354 852 LINE",
"407 857 OFFCURVE",
"451 878 OFFCURVE",
"462 938 CURVE SMOOTH",
"476 1004 OFFCURVE",
"423 1029 OFFCURVE",
"365 1029 CURVE SMOOTH",
"334 1029 OFFCURVE",
"301 1021 OFFCURVE",
"279 1011 CURVE",
"278 972 LINE",
"300 984 OFFCURVE",
"323 988 OFFCURVE",
"340 988 CURVE SMOOTH",
"380 988 OFFCURVE",
"395 965 OFFCURVE",
"390 939 CURVE SMOOTH",
"383 901 OFFCURVE",
"351 887 OFFCURVE",
"324 887 CURVE SMOOTH",
"288 887 LINE",
"270 783 LINE"
);
}
);
width = 365;
}
);
note = Ihookabove;
unicode = 1EC8;
},
{
glyphname = Imacron;
lastChange = "2015-11-29 16:07:49 +0000";
layers = (
{
layerId = "AD8C1534-DD1F-4D30-8D71-C3A36519B1B2";
name = "Bold Italic";
paths = (
{
closed = 1;
nodes = (
"289 0 LINE",
"292 18 LINE",
"268 26 OFFCURVE",
"241 35 OFFCURVE",
"219 39 CURVE",
"345 659 LINE",
"373 666 OFFCURVE",
"402 672 OFFCURVE",
"427 680 CURVE",
"431 700 LINE",
"125 700 LINE",
"122 681 LINE",
"147 673 OFFCURVE",
"173 664 OFFCURVE",
"195 660 CURVE",
"68 40 LINE",
"41 34 OFFCURVE",
"11 27 OFFCURVE",
"-13 20 CURVE",
"-17 0 LINE"
);
},
{
closed = 1;
nodes = (
"505 785 LINE",
"515 834 LINE",
"106 834 LINE",
"96 785 LINE"
);
}
);
width = 365;
}
);
note = Imacron;
unicode = 012A;
},
{
glyphname = Iogonek;
lastChange = "2015-11-29 16:07:48 +0000";
layers = (
{
layerId = "AD8C1534-DD1F-4D30-8D71-C3A36519B1B2";
name = "Bold Italic";
paths = (
{
closed = 1;
nodes = (
"289 0 LINE",
"292 18 LINE",
"268 26 OFFCURVE",
"241 35 OFFCURVE",
"219 39 CURVE",
"345 659 LINE",
"373 666 OFFCURVE",
"402 672 OFFCURVE",
"427 680 CURVE",
"431 700 LINE",
"125 700 LINE",
"122 681 LINE",
"147 673 OFFCURVE",
"173 664 OFFCURVE",
"195 660 CURVE",
"68 40 LINE",
"41 34 OFFCURVE",
"11 27 OFFCURVE",
"-13 20 CURVE",
"-17 0 LINE"
);
},
{
closed = 1;
nodes = (
"240 -206 OFFCURVE",
"282 -196 OFFCURVE",
"310 -180 CURVE",
"323 -117 LINE",
"295 -132 OFFCURVE",
"272 -138 OFFCURVE",
"254 -138 CURVE SMOOTH",
"220 -138 OFFCURVE",
"200 -117 OFFCURVE",
"206 -86 CURVE SMOOTH",
"213 -54 OFFCURVE",
"245 -18 OFFCURVE",
"273 0 CURVE",
"203 0 LINE",
"143 -18 OFFCURVE",
"99 -71 OFFCURVE",
"90 -116 CURVE SMOOTH",
"78 -170 OFFCURVE",
"118 -206 OFFCURVE",
"198 -206 CURVE SMOOTH"
);
}
);
width = 365;
}
);
note = Iogonek;
unicode = 012E;
},
{
glyphname = Itilde;
lastChange = "2015-11-29 16:07:49 +0000";
layers = (
{
layerId = "AD8C1534-DD1F-4D30-8D71-C3A36519B1B2";
name = "Bold Italic";
paths = (
{
closed = 1;
nodes = (
"289 0 LINE",
"292 18 LINE",
"268 26 OFFCURVE",
"241 35 OFFCURVE",
"219 39 CURVE",
"345 659 LINE",
"373 666 OFFCURVE",
"402 672 OFFCURVE",
"427 680 CURVE",
"431 700 LINE",
"125 700 LINE",
"122 681 LINE",
"147 673 OFFCURVE",
"173 664 OFFCURVE",
"195 660 CURVE",
"68 40 LINE",
"41 34 OFFCURVE",
"11 27 OFFCURVE",
"-13 20 CURVE",
"-17 0 LINE"
);
},
{
closed = 1;
nodes = (
"167 786 LINE",
"178 818 OFFCURVE",
"203 839 OFFCURVE",
"232 839 CURVE SMOOTH",
"267 839 OFFCURVE",
"316 786 OFFCURVE",
"373 786 CURVE SMOOTH",
"447 786 OFFCURVE",
"491 834 OFFCURVE",
"512 905 CURVE",
"451 905 LINE",
"431 859 OFFCURVE",
"405 851 OFFCURVE",
"381 851 CURVE SMOOTH",
"341 851 OFFCURVE",
"313 903 OFFCURVE",
"244 903 CURVE SMOOTH",
"178 903 OFFCURVE",
"128 863 OFFCURVE",
"102 786 CURVE"
);
}
);
width = 365;
}
);
note = Itilde;
unicode = 0128;
},
{
glyphname = J;
lastChange = "2015-11-29 16:07:48 +0000";
layers = (
{
layerId = "AD8C1534-DD1F-4D30-8D71-C3A36519B1B2";
name = "Bold Italic";
paths = (
{
closed = 1;
nodes = (
"250 -10 OFFCURVE",
"358 40 OFFCURVE",
"383 163 CURVE SMOOTH",
"484 658 LINE",
"502 661 OFFCURVE",
"534 671 OFFCURVE",
"563 680 CURVE",
"567 700 LINE",
"266 700 LINE",
"262 680 LINE",
"284 671 OFFCURVE",
"303 664 OFFCURVE",
"334 659 CURVE",
"231 156 LINE SMOOTH",
"215 78 OFFCURVE",
"164 50 OFFCURVE",
"112 50 CURVE SMOOTH",
"70 50 OFFCURVE",
"32 67 OFFCURVE",
"10 86 CURVE",
"-20 48 LINE",
"15 10 OFFCURVE",
"77 -10 OFFCURVE",
"144 -10 CURVE SMOOTH"
);
}
);
width = 500;
}
);
leftKerningGroup = J;
note = J;
rightKerningGroup = J;
unicode = 004A;
},
{
glyphname = Jcircumflex;
lastChange = "2015-11-29 16:07:48 +0000";
layers = (
{
layerId = "AD8C1534-DD1F-4D30-8D71-C3A36519B1B2";
name = "Bold Italic";
paths = (
{
closed = 1;
nodes = (
"250 -10 OFFCURVE",
"358 40 OFFCURVE",
"383 163 CURVE SMOOTH",
"484 658 LINE",
"502 661 OFFCURVE",
"534 671 OFFCURVE",
"563 680 CURVE",
"567 700 LINE",
"266 700 LINE",
"262 680 LINE",
"284 671 OFFCURVE",
"303 664 OFFCURVE",
"334 659 CURVE",
"231 156 LINE SMOOTH",
"215 78 OFFCURVE",
"164 50 OFFCURVE",
"112 50 CURVE SMOOTH",
"70 50 OFFCURVE",
"32 67 OFFCURVE",
"10 86 CURVE",
"-20 48 LINE",
"15 10 OFFCURVE",
"77 -10 OFFCURVE",
"144 -10 CURVE SMOOTH"
);
},
{
closed = 1;
nodes = (
"355 816 OFFCURVE",
"427 876 OFFCURVE",
"456 912 CURVE",
"457 912 OFFCURVE",
"459 912 OFFCURVE",
"460 912 CURVE",
"476 876 OFFCURVE",
"522 816 OFFCURVE",
"556 783 CURVE",
"625 829 LINE",
"588 857 OFFCURVE",
"521 936 OFFCURVE",
"505 972 CURVE",
"496 972 OFFCURVE",
"444 972 OFFCURVE",
"436 972 CURVE",
"406 936 OFFCURVE",
"308 857 OFFCURVE",
"259 829 CURVE",
"310 783 LINE"
);
}
);
width = 500;
}
);
leftKerningGroup = J;
note = Jcircumflex;
rightKerningGroup = J;
unicode = 0134;
},
{
glyphname = K;
lastChange = "2015-11-29 16:07:48 +0000";
layers = (
{
layerId = "AD8C1534-DD1F-4D30-8D71-C3A36519B1B2";
name = "Bold Italic";
paths = (
{
closed = 1;
nodes = (
"287 0 LINE",
"290 18 LINE",
"266 26 OFFCURVE",
"240 35 OFFCURVE",
"218 39 CURVE",
"344 659 LINE",
"371 665 OFFCURVE",
"398 672 OFFCURVE",
"425 680 CURVE",
"429 700 LINE",
"124 700 LINE",
"121 682 LINE",
"146 672 OFFCURVE",
"172 665 OFFCURVE",
"194 660 CURVE",
"67 40 LINE",
"60 39 OFFCURVE",
"14 28 OFFCURVE",
"-14 20 CURVE",
"-18 0 LINE"
);
},
{
closed = 1;
nodes = (
"721 0 LINE",
"724 18 LINE",
"693 28 OFFCURVE",
"666 35 OFFCURVE",
"645 39 CURVE",
"440 437 LINE",
"333 342 LINE",
"508 0 LINE"
);
},
{
closed = 1;
nodes = (
"709 651 LINE",
"732 668 OFFCURVE",
"762 668 OFFCURVE",
"787 675 CURVE",
"792 700 LINE",
"569 700 LINE",
"564 675 LINE",
"588 669 OFFCURVE",
"619 666 OFFCURVE",
"637 657 CURVE",
"218 283 LINE",
"199 197 LINE"
);
}
);
width = 773;
}
);
note = K;
rightKerningGroup = K;
unicode = 004B;
},
{
glyphname = Kcommaaccent;
lastChange = "2015-11-29 16:07:48 +0000";
layers = (
{
layerId = "AD8C1534-DD1F-4D30-8D71-C3A36519B1B2";
name = "Bold Italic";
paths = (
{
closed = 1;
nodes = (
"287 0 LINE",
"290 18 LINE",
"266 26 OFFCURVE",
"240 35 OFFCURVE",
"218 39 CURVE",
"344 659 LINE",
"371 665 OFFCURVE",
"398 672 OFFCURVE",
"425 680 CURVE",
"429 700 LINE",
"124 700 LINE",
"121 682 LINE",
"146 672 OFFCURVE",
"172 665 OFFCURVE",
"194 660 CURVE",
"67 40 LINE",
"60 39 OFFCURVE",
"14 28 OFFCURVE",
"-14 20 CURVE",
"-18 0 LINE"
);
},
{
closed = 1;
nodes = (
"321 -319 OFFCURVE",
"380 -235 OFFCURVE",
"395 -159 CURVE SMOOTH",
"404 -117 OFFCURVE",
"388 -81 OFFCURVE",
"336 -81 CURVE SMOOTH",
"298 -81 OFFCURVE",
"260 -106 OFFCURVE",
"251 -148 CURVE SMOOTH",
"244 -188 OFFCURVE",
"268 -215 OFFCURVE",
"306 -217 CURVE",
"291 -261 OFFCURVE",
"247 -306 OFFCURVE",
"219 -332 CURVE",
"257 -368 LINE"
);
},
{
closed = 1;
nodes = (
"721 0 LINE",
"724 18 LINE",
"693 28 OFFCURVE",
"666 35 OFFCURVE",
"645 39 CURVE",
"440 437 LINE",
"333 342 LINE",
"508 0 LINE"
);
},
{
closed = 1;
nodes = (
"709 651 LINE",
"732 668 OFFCURVE",
"762 668 OFFCURVE",
"787 675 CURVE",
"792 700 LINE",
"569 700 LINE",
"564 675 LINE",
"588 669 OFFCURVE",
"619 666 OFFCURVE",
"637 657 CURVE",
"218 283 LINE",
"199 197 LINE"
);
}
);
width = 773;
}
);
note = Kcommaaccent;
rightKerningGroup = K;
unicode = 0136;
},
{
glyphname = L;
lastChange = "2015-11-29 16:07:47 +0000";
layers = (
{
layerId = "AD8C1534-DD1F-4D30-8D71-C3A36519B1B2";
name = "Bold Italic";
paths = (
{
closed = 1;
nodes = (
"529 0 LINE",
"581 175 LINE",
"550 175 LINE",
"529 154 OFFCURVE",
"485 85 OFFCURVE",
"475 49 CURVE",
"226 49 LINE",
"351 659 LINE",
"377 665 OFFCURVE",
"405 672 OFFCURVE",
"431 680 CURVE",
"435 700 LINE",
"131 700 LINE",
"127 682 LINE",
"152 672 OFFCURVE",
"177 665 OFFCURVE",
"200 660 CURVE",
"74 39 LINE",
"46 35 OFFCURVE",
"14 27 OFFCURVE",
"-15 18 CURVE",
"-18 0 LINE"
);
}
);
width = 629;
}
);
note = L;
rightKerningGroup = L;
unicode = 004C;
},
{
glyphname = Lacute;
lastChange = "2015-11-29 16:07:47 +0000";
layers = (
{
layerId = "AD8C1534-DD1F-4D30-8D71-C3A36519B1B2";
name = "Bold Italic";
paths = (
{
closed = 1;
nodes = (
"529 0 LINE",
"581 175 LINE",
"550 175 LINE",
"529 154 OFFCURVE",
"485 85 OFFCURVE",
"475 49 CURVE",
"226 49 LINE",
"351 659 LINE",
"377 665 OFFCURVE",
"405 672 OFFCURVE",
"431 680 CURVE",
"435 700 LINE",
"131 700 LINE",
"127 682 LINE",
"152 672 OFFCURVE",
"177 665 OFFCURVE",
"200 660 CURVE",
"74 39 LINE",
"46 35 OFFCURVE",
"14 27 OFFCURVE",
"-15 18 CURVE",
"-18 0 LINE"
);
},
{
closed = 1;
nodes = (
"410 879 LINE SMOOTH",
"444 898 OFFCURVE",
"464 916 OFFCURVE",
"469 940 CURVE SMOOTH",
"473 959 OFFCURVE",
"463 982 OFFCURVE",
"432 982 CURVE SMOOTH",
"399 982 OFFCURVE",
"370 954 OFFCURVE",
"364 947 CURVE",
"220 821 LINE",
"238 786 LINE"
);
}
);
width = 629;
}
);
note = Lacute;
rightKerningGroup = L;
unicode = 0139;
},
{
glyphname = Lcaron;
lastChange = "2015-11-29 16:07:49 +0000";
layers = (
{
layerId = "AD8C1534-DD1F-4D30-8D71-C3A36519B1B2";
name = "Bold Italic";
paths = (
{
closed = 1;
nodes = (
"529 0 LINE",
"581 175 LINE",
"550 175 LINE",
"529 154 OFFCURVE",
"485 85 OFFCURVE",
"475 49 CURVE",
"226 49 LINE",
"351 659 LINE",
"377 665 OFFCURVE",
"405 672 OFFCURVE",
"431 680 CURVE",
"435 700 LINE",
"131 700 LINE",
"127 682 LINE",
"152 672 OFFCURVE",
"177 665 OFFCURVE",
"200 660 CURVE",
"74 39 LINE",
"46 35 OFFCURVE",
"14 27 OFFCURVE",
"-15 18 CURVE",
"-18 0 LINE"
);
},
{
closed = 1;
nodes = (
"602 462 OFFCURVE",
"665 547 OFFCURVE",
"680 623 CURVE SMOOTH",
"689 664 OFFCURVE",
"677 710 OFFCURVE",
"617 710 CURVE SMOOTH",
"567 710 OFFCURVE",
"537 673 OFFCURVE",
"529 632 CURVE SMOOTH",
"519 588 OFFCURVE",
"548 564 OFFCURVE",
"586 564 CURVE",
"571 520 OFFCURVE",
"528 475 OFFCURVE",
"499 449 CURVE",
"537 413 LINE"
);
}
);
width = 629;
}
);
note = Lcaron;
rightKerningGroup = L;
unicode = 013D;
},
{
glyphname = Lcommaaccent;
lastChange = "2015-11-29 16:07:47 +0000";
layers = (
{
layerId = "AD8C1534-DD1F-4D30-8D71-C3A36519B1B2";
name = "Bold Italic";
paths = (
{
closed = 1;
nodes = (
"529 0 LINE",
"581 175 LINE",
"550 175 LINE",
"529 154 OFFCURVE",
"485 85 OFFCURVE",
"475 49 CURVE",
"226 49 LINE",
"351 659 LINE",
"377 665 OFFCURVE",
"405 672 OFFCURVE",
"431 680 CURVE",
"435 700 LINE",
"131 700 LINE",
"127 682 LINE",
"152 672 OFFCURVE",
"177 665 OFFCURVE",
"200 660 CURVE",
"74 39 LINE",
"46 35 OFFCURVE",
"14 27 OFFCURVE",
"-15 18 CURVE",
"-18 0 LINE"
);
},
{
closed = 1;
nodes = (
"247 -319 OFFCURVE",
"306 -235 OFFCURVE",
"321 -159 CURVE SMOOTH",
"330 -117 OFFCURVE",
"314 -81 OFFCURVE",
"262 -81 CURVE SMOOTH",
"224 -81 OFFCURVE",
"186 -106 OFFCURVE",
"177 -148 CURVE SMOOTH",
"170 -188 OFFCURVE",
"194 -215 OFFCURVE",
"232 -217 CURVE",
"217 -261 OFFCURVE",
"173 -306 OFFCURVE",
"145 -332 CURVE",
"183 -368 LINE"
);
}
);
width = 629;
}
);
note = Lcommaaccent;
rightKerningGroup = L;
unicode = 013B;
},
{
glyphname = Ldot;
lastChange = "2015-11-29 16:08:48 +0000";
layers = (
{
layerId = "AD8C1534-DD1F-4D30-8D71-C3A36519B1B2";
name = "Bold Italic";
paths = (
{
closed = 1;
nodes = (
"529 0 LINE",
"581 175 LINE",
"550 175 LINE",
"529 154 OFFCURVE",
"485 85 OFFCURVE",
"475 49 CURVE",
"226 49 LINE",
"351 659 LINE",
"377 665 OFFCURVE",
"405 672 OFFCURVE",
"431 680 CURVE",
"435 700 LINE",
"131 700 LINE",
"127 682 LINE",
"152 672 OFFCURVE",
"177 665 OFFCURVE",
"200 660 CURVE",
"74 39 LINE",
"46 35 OFFCURVE",
"14 27 OFFCURVE",
"-15 18 CURVE",
"-18 0 LINE"
);
},
{
closed = 1;
nodes = (
"501 327 OFFCURVE",
"530 354 OFFCURVE",
"536 389 CURVE SMOOTH",
"543 423 OFFCURVE",
"526 451 OFFCURVE",
"489 451 CURVE SMOOTH",
"453 451 OFFCURVE",
"425 423 OFFCURVE",
"418 389 CURVE SMOOTH",
"412 354 OFFCURVE",
"428 327 OFFCURVE",
"464 327 CURVE SMOOTH"
);
}
);
width = 629;
}
);
note = Ldot;
rightKerningGroup = L;
unicode = 013F;
},
{
glyphname = Ldotbelow;
lastChange = "2015-11-29 16:08:46 +0000";
layers = (
{
layerId = "AD8C1534-DD1F-4D30-8D71-C3A36519B1B2";
name = "Bold Italic";
paths = (
{
closed = 1;
nodes = (
"529 0 LINE",
"581 175 LINE",
"550 175 LINE",
"529 154 OFFCURVE",
"485 85 OFFCURVE",
"475 49 CURVE",
"226 49 LINE",
"351 659 LINE",
"377 665 OFFCURVE",
"405 672 OFFCURVE",
"431 680 CURVE",
"435 700 LINE",
"131 700 LINE",
"127 682 LINE",
"152 672 OFFCURVE",
"177 665 OFFCURVE",
"200 660 CURVE",
"74 39 LINE",
"46 35 OFFCURVE",
"14 27 OFFCURVE",
"-15 18 CURVE",
"-18 0 LINE"
);
},
{
closed = 1;
nodes = (
"276 -175 OFFCURVE",
"305 -148 OFFCURVE",
"312 -113 CURVE SMOOTH",
"319 -79 OFFCURVE",
"302 -51 OFFCURVE",
"267 -51 CURVE SMOOTH",
"230 -51 OFFCURVE",
"202 -79 OFFCURVE",
"195 -113 CURVE SMOOTH",
"188 -148 OFFCURVE",
"204 -175 OFFCURVE",
"241 -175 CURVE SMOOTH"
);
}
);
width = 629;
}
);
note = Ldotbelow;
rightKerningGroup = L;
unicode = 1E36;
},
{
glyphname = Ldotbelowmacron;
lastChange = "2015-11-29 16:08:44 +0000";
layers = (
{
layerId = "AD8C1534-DD1F-4D30-8D71-C3A36519B1B2";
name = "Bold Italic";
paths = (
{
closed = 1;
nodes = (
"529 0 LINE",
"581 175 LINE",
"550 175 LINE",
"529 154 OFFCURVE",
"485 85 OFFCURVE",
"475 49 CURVE",
"226 49 LINE",
"351 659 LINE",
"377 665 OFFCURVE",
"405 672 OFFCURVE",
"431 680 CURVE",
"435 700 LINE",
"131 700 LINE",
"127 682 LINE",
"152 672 OFFCURVE",
"177 665 OFFCURVE",
"200 660 CURVE",
"74 39 LINE",
"46 35 OFFCURVE",
"14 27 OFFCURVE",
"-15 18 CURVE",
"-18 0 LINE"
);
},
{
closed = 1;
nodes = (
"274 -175 OFFCURVE",
"303 -148 OFFCURVE",
"310 -113 CURVE SMOOTH",
"317 -79 OFFCURVE",
"300 -51 OFFCURVE",
"264 -51 CURVE SMOOTH",
"228 -51 OFFCURVE",
"199 -79 OFFCURVE",
"192 -113 CURVE SMOOTH",
"185 -148 OFFCURVE",
"202 -175 OFFCURVE",
"238 -175 CURVE SMOOTH"
);
},
{
closed = 1;
nodes = (
"485 785 LINE",
"496 833 LINE",
"122 833 LINE",
"111 785 LINE"
);
}
);
width = 629;
}
);
note = Ldotbelowmacron;
rightKerningGroup = L;
unicode = 1E38;
},
{
glyphname = Llinebelow;
lastChange = "2015-11-29 16:07:49 +0000";
layers = (
{
layerId = "AD8C1534-DD1F-4D30-8D71-C3A36519B1B2";
name = "Bold Italic";
paths = (
{
closed = 1;
nodes = (
"529 0 LINE",
"581 175 LINE",
"550 175 LINE",
"529 154 OFFCURVE",
"485 85 OFFCURVE",
"475 49 CURVE",
"226 49 LINE",
"351 659 LINE",
"377 665 OFFCURVE",
"405 672 OFFCURVE",
"431 680 CURVE",
"435 700 LINE",
"131 700 LINE",
"127 682 LINE",
"152 672 OFFCURVE",
"177 665 OFFCURVE",
"200 660 CURVE",
"74 39 LINE",
"46 35 OFFCURVE",
"14 27 OFFCURVE",
"-15 18 CURVE",
"-18 0 LINE"
);
},
{
closed = 1;
nodes = (
"431 -109 LINE",
"441 -61 LINE",
"68 -61 LINE",
"57 -109 LINE"
);
}
);
width = 629;
}
);
note = Llinebelow;
rightKerningGroup = L;
unicode = 1E3A;
},
{
glyphname = Lslash;
lastChange = "2015-11-29 16:07:48 +0000";
layers = (
{
layerId = "AD8C1534-DD1F-4D30-8D71-C3A36519B1B2";
name = "Bold Italic";
paths = (
{
closed = 1;
nodes = (
"529 0 LINE",
"581 175 LINE",
"550 175 LINE",
"529 154 OFFCURVE",
"485 85 OFFCURVE",
"475 49 CURVE",
"226 49 LINE",
"351 659 LINE",
"377 665 OFFCURVE",
"405 672 OFFCURVE",
"431 680 CURVE",
"435 700 LINE",
"131 700 LINE",
"127 682 LINE",
"152 672 OFFCURVE",
"177 665 OFFCURVE",
"200 660 CURVE",
"74 39 LINE",
"46 35 OFFCURVE",
"14 27 OFFCURVE",
"-15 18 CURVE",
"-18 0 LINE"
);
},
{
closed = 1;
nodes = (
"483 377 LINE",
"496 445 LINE",
"50 290 LINE",
"36 223 LINE"
);
}
);
width = 629;
}
);
note = Lslash;
rightKerningGroup = L;
unicode = 0141;
},
{
glyphname = M;
lastChange = "2015-11-29 16:07:49 +0000";
layers = (
{
layerId = "AD8C1534-DD1F-4D30-8D71-C3A36519B1B2";
name = "Bold Italic";
paths = (
{
closed = 1;
nodes = (
"195 0 LINE",
"197 17 LINE",
"172 26 OFFCURVE",
"150 33 OFFCURVE",
"126 38 CURVE",
"240 593 LINE",
"341 76 LINE",
"429 76 LINE",
"743 581 LINE",
"632 38 LINE",
"606 33 OFFCURVE",
"580 26 OFFCURVE",
"552 17 CURVE",
"549 0 LINE",
"851 0 LINE",
"854 17 LINE",
"828 26 OFFCURVE",
"806 33 OFFCURVE",
"783 38 CURVE",
"909 658 LINE",
"937 666 OFFCURVE",
"965 674 OFFCURVE",
"989 682 CURVE",
"993 700 LINE",
"759 700 LINE",
"447 194 LINE",
"359 700 LINE",
"124 700 LINE",
"121 682 LINE",
"146 672 OFFCURVE",
"172 665 OFFCURVE",
"194 660 CURVE",
"67 38 LINE",
"42 33 OFFCURVE",
"15 26 OFFCURVE",
"-14 17 CURVE",
"-17 0 LINE"
);
}
);
width = 926;
}
);
note = M;
unicode = 004D;
},
{
glyphname = Mdotbelow;
lastChange = "2015-11-29 16:07:49 +0000";
layers = (
{
layerId = "AD8C1534-DD1F-4D30-8D71-C3A36519B1B2";
name = "Bold Italic";
paths = (
{
closed = 1;
nodes = (
"195 0 LINE",
"197 17 LINE",
"172 26 OFFCURVE",
"150 33 OFFCURVE",
"126 38 CURVE",
"240 593 LINE",
"341 76 LINE",
"429 76 LINE",
"743 581 LINE",
"632 38 LINE",
"606 33 OFFCURVE",
"580 26 OFFCURVE",
"552 17 CURVE",
"549 0 LINE",
"851 0 LINE",
"854 17 LINE",
"828 26 OFFCURVE",
"806 33 OFFCURVE",
"783 38 CURVE",
"909 658 LINE",
"937 666 OFFCURVE",
"965 674 OFFCURVE",
"989 682 CURVE",
"993 700 LINE",
"759 700 LINE",
"447 194 LINE",
"359 700 LINE",
"124 700 LINE",
"121 682 LINE",
"146 672 OFFCURVE",
"172 665 OFFCURVE",
"194 660 CURVE",
"67 38 LINE",
"42 33 OFFCURVE",
"15 26 OFFCURVE",
"-14 17 CURVE",
"-17 0 LINE"
);
},
{
closed = 1;
nodes = (
"416 -178 OFFCURVE",
"444 -151 OFFCURVE",
"452 -116 CURVE SMOOTH",
"459 -81 OFFCURVE",
"441 -54 OFFCURVE",
"405 -54 CURVE SMOOTH",
"369 -54 OFFCURVE",
"340 -81 OFFCURVE",
"334 -116 CURVE SMOOTH",
"326 -151 OFFCURVE",
"344 -178 OFFCURVE",
"380 -178 CURVE SMOOTH"
);
}
);
width = 926;
}
);
note = Mdotbelow;
unicode = 1E42;
},
{
glyphname = N;
lastChange = "2015-11-29 16:07:49 +0000";
layers = (
{
layerId = "AD8C1534-DD1F-4D30-8D71-C3A36519B1B2";
name = "Bold Italic";
paths = (
{
closed = 1;
nodes = (
"195 0 LINE",
"197 17 LINE",
"172 26 OFFCURVE",
"150 33 OFFCURVE",
"126 38 CURVE",
"244 621 LINE",
"527 0 LINE",
"604 0 LINE",
"738 661 LINE",
"763 667 OFFCURVE",
"789 673 OFFCURVE",
"818 682 CURVE",
"821 700 LINE",
"609 700 LINE",
"605 682 LINE",
"632 673 OFFCURVE",
"654 667 OFFCURVE",
"677 661 CURVE",
"581 189 LINE",
"352 700 LINE",
"124 700 LINE",
"121 682 LINE",
"146 672 OFFCURVE",
"171 665 OFFCURVE",
"194 660 CURVE",
"67 38 LINE",
"42 33 OFFCURVE",
"15 26 OFFCURVE",
"-14 17 CURVE",
"-17 0 LINE"
);
}
);
width = 755;
}
);
note = N;
unicode = 004E;
},
{
glyphname = Nacute;
lastChange = "2015-11-29 16:07:49 +0000";
layers = (
{
layerId = "AD8C1534-DD1F-4D30-8D71-C3A36519B1B2";
name = "Bold Italic";
paths = (
{
closed = 1;
nodes = (
"195 0 LINE",
"197 17 LINE",
"172 26 OFFCURVE",
"150 33 OFFCURVE",
"126 38 CURVE",
"244 621 LINE",
"527 0 LINE",
"604 0 LINE",
"738 661 LINE",
"763 667 OFFCURVE",
"789 673 OFFCURVE",
"818 682 CURVE",
"821 700 LINE",
"609 700 LINE",
"605 682 LINE",
"632 673 OFFCURVE",
"654 667 OFFCURVE",
"677 661 CURVE",
"581 189 LINE",
"352 700 LINE",
"124 700 LINE",
"121 682 LINE",
"146 672 OFFCURVE",
"171 665 OFFCURVE",
"194 660 CURVE",
"67 38 LINE",
"42 33 OFFCURVE",
"15 26 OFFCURVE",
"-14 17 CURVE",
"-17 0 LINE"
);
},
{
closed = 1;
nodes = (
"614 879 LINE SMOOTH",
"649 898 OFFCURVE",
"669 916 OFFCURVE",
"674 940 CURVE SMOOTH",
"677 959 OFFCURVE",
"668 982 OFFCURVE",
"636 982 CURVE SMOOTH",
"604 982 OFFCURVE",
"575 954 OFFCURVE",
"568 947 CURVE",
"425 821 LINE",
"442 786 LINE"
);
}
);
width = 755;
}
);
note = Nacute;
unicode = 0143;
},
{
glyphname = Ncaron;
lastChange = "2015-11-29 16:07:49 +0000";
layers = (
{
layerId = "AD8C1534-DD1F-4D30-8D71-C3A36519B1B2";
name = "Bold Italic";
paths = (
{
closed = 1;
nodes = (
"195 0 LINE",
"197 17 LINE",
"172 26 OFFCURVE",
"150 33 OFFCURVE",
"126 38 CURVE",
"244 621 LINE",
"527 0 LINE",
"604 0 LINE",
"738 661 LINE",
"763 667 OFFCURVE",
"789 673 OFFCURVE",
"818 682 CURVE",
"821 700 LINE",
"609 700 LINE",
"605 682 LINE",
"632 673 OFFCURVE",
"654 667 OFFCURVE",
"677 661 CURVE",
"581 189 LINE",
"352 700 LINE",
"124 700 LINE",
"121 682 LINE",
"146 672 OFFCURVE",
"171 665 OFFCURVE",
"194 660 CURVE",
"67 38 LINE",
"42 33 OFFCURVE",
"15 26 OFFCURVE",
"-14 17 CURVE",
"-17 0 LINE"
);
},
{
closed = 1;
nodes = (
"463 786 OFFCURVE",
"515 786 OFFCURVE",
"524 786 CURVE",
"554 822 OFFCURVE",
"653 900 OFFCURVE",
"701 929 CURVE",
"652 974 LINE",
"604 942 OFFCURVE",
"533 882 OFFCURVE",
"503 846 CURVE",
"502 846 OFFCURVE",
"500 846 OFFCURVE",
"499 846 CURVE",
"484 882 OFFCURVE",
"437 942 OFFCURVE",
"405 974 CURVE",
"336 929 LINE",
"372 900 OFFCURVE",
"438 822 OFFCURVE",
"455 786 CURVE"
);
}
);
width = 755;
}
);
note = Ncaron;
unicode = 0147;
},
{
glyphname = Ncommaaccent;
lastChange = "2015-11-29 16:07:48 +0000";
layers = (
{
layerId = "AD8C1534-DD1F-4D30-8D71-C3A36519B1B2";
name = "Bold Italic";
paths = (
{
closed = 1;
nodes = (
"195 0 LINE",
"197 17 LINE",
"172 26 OFFCURVE",
"150 33 OFFCURVE",
"126 38 CURVE",
"244 621 LINE",
"527 0 LINE",
"604 0 LINE",
"738 661 LINE",
"763 667 OFFCURVE",
"789 673 OFFCURVE",
"818 682 CURVE",
"821 700 LINE",
"609 700 LINE",
"605 682 LINE",
"632 673 OFFCURVE",
"654 667 OFFCURVE",
"677 661 CURVE",
"581 189 LINE",
"352 700 LINE",
"124 700 LINE",
"121 682 LINE",
"146 672 OFFCURVE",
"171 665 OFFCURVE",
"194 660 CURVE",
"67 38 LINE",
"42 33 OFFCURVE",
"15 26 OFFCURVE",
"-14 17 CURVE",
"-17 0 LINE"
);
},
{
closed = 1;
nodes = (
"305 -319 OFFCURVE",
"364 -235 OFFCURVE",
"379 -159 CURVE SMOOTH",
"388 -117 OFFCURVE",
"371 -81 OFFCURVE",
"319 -81 CURVE SMOOTH",
"282 -81 OFFCURVE",
"244 -106 OFFCURVE",
"235 -148 CURVE SMOOTH",
"227 -188 OFFCURVE",
"251 -215 OFFCURVE",
"290 -217 CURVE",
"274 -261 OFFCURVE",
"231 -306 OFFCURVE",
"202 -332 CURVE",
"241 -368 LINE"
);
}
);
width = 755;
}
);
note = Ncommaaccent;
unicode = 0145;
},
{
glyphname = Ndotaccent;
lastChange = "2015-11-29 16:07:47 +0000";
layers = (
{
layerId = "AD8C1534-DD1F-4D30-8D71-C3A36519B1B2";
name = "Bold Italic";
paths = (
{
closed = 1;
nodes = (
"195 0 LINE",
"197 17 LINE",
"172 26 OFFCURVE",
"150 33 OFFCURVE",
"126 38 CURVE",
"244 621 LINE",
"527 0 LINE",
"604 0 LINE",
"738 661 LINE",
"763 667 OFFCURVE",
"789 673 OFFCURVE",
"818 682 CURVE",
"821 700 LINE",
"609 700 LINE",
"605 682 LINE",
"632 673 OFFCURVE",
"654 667 OFFCURVE",
"677 661 CURVE",
"581 189 LINE",
"352 700 LINE",
"124 700 LINE",
"121 682 LINE",
"146 672 OFFCURVE",
"171 665 OFFCURVE",
"194 660 CURVE",
"67 38 LINE",
"42 33 OFFCURVE",
"15 26 OFFCURVE",
"-14 17 CURVE",
"-17 0 LINE"
);
},
{
closed = 1;
nodes = (
"526 785 OFFCURVE",
"555 812 OFFCURVE",
"562 847 CURVE SMOOTH",
"569 882 OFFCURVE",
"552 909 OFFCURVE",
"516 909 CURVE SMOOTH",
"480 909 OFFCURVE",
"452 882 OFFCURVE",
"445 847 CURVE SMOOTH",
"437 812 OFFCURVE",
"454 785 OFFCURVE",
"490 785 CURVE SMOOTH"
);
}
);
width = 755;
}
);
note = Ndotaccent;
unicode = 1E44;
},
{
glyphname = Ndotbelow;
lastChange = "2015-11-29 16:07:47 +0000";
layers = (
{
layerId = "AD8C1534-DD1F-4D30-8D71-C3A36519B1B2";
name = "Bold Italic";
paths = (
{
closed = 1;
nodes = (
"195 0 LINE",
"197 17 LINE",
"172 26 OFFCURVE",
"150 33 OFFCURVE",
"126 38 CURVE",
"244 621 LINE",
"527 0 LINE",
"604 0 LINE",
"738 661 LINE",
"763 667 OFFCURVE",
"789 673 OFFCURVE",
"818 682 CURVE",
"821 700 LINE",
"609 700 LINE",
"605 682 LINE",
"632 673 OFFCURVE",
"654 667 OFFCURVE",
"677 661 CURVE",
"581 189 LINE",
"352 700 LINE",
"124 700 LINE",
"121 682 LINE",
"146 672 OFFCURVE",
"171 665 OFFCURVE",
"194 660 CURVE",
"67 38 LINE",
"42 33 OFFCURVE",
"15 26 OFFCURVE",
"-14 17 CURVE",
"-17 0 LINE"
);
},
{
closed = 1;
nodes = (
"327 -178 OFFCURVE",
"355 -151 OFFCURVE",
"363 -116 CURVE SMOOTH",
"369 -81 OFFCURVE",
"352 -54 OFFCURVE",
"316 -54 CURVE SMOOTH",
"280 -54 OFFCURVE",
"251 -81 OFFCURVE",
"244 -116 CURVE SMOOTH",
"237 -151 OFFCURVE",
"255 -178 OFFCURVE",
"291 -178 CURVE SMOOTH"
);
}
);
width = 755;
}
);
note = uni1E46;
unicode = 1E46;
},
{
glyphname = Eng;
lastChange = "2015-11-29 16:07:47 +0000";
layers = (
{
layerId = "AD8C1534-DD1F-4D30-8D71-C3A36519B1B2";
name = "Bold Italic";
paths = (
{
closed = 1;
nodes = (
"488 -250 OFFCURVE",
"561 -207 OFFCURVE",
"582 -103 CURVE SMOOTH",
"738 661 LINE",
"763 667 OFFCURVE",
"789 673 OFFCURVE",
"818 682 CURVE",
"821 700 LINE",
"609 700 LINE",
"605 682 LINE",
"632 673 OFFCURVE",
"654 667 OFFCURVE",
"677 661 CURVE",
"581 189 LINE",
"352 700 LINE",
"124 700 LINE",
"121 682 LINE",
"146 672 OFFCURVE",
"171 665 OFFCURVE",
"194 660 CURVE",
"67 38 LINE",
"42 33 OFFCURVE",
"15 26 OFFCURVE",
"-14 17 CURVE",
"-17 0 LINE",
"195 0 LINE",
"197 17 LINE",
"172 26 OFFCURVE",
"150 33 OFFCURVE",
"126 38 CURVE",
"244 621 LINE",
"543 -4 LINE",
"522 -106 LINE SMOOTH",
"508 -173 OFFCURVE",
"449 -197 OFFCURVE",
"390 -197 CURVE SMOOTH",
"358 -197 OFFCURVE",
"328 -191 OFFCURVE",
"307 -182 CURVE",
"290 -222 LINE",
"323 -239 OFFCURVE",
"361 -250 OFFCURVE",
"404 -250 CURVE SMOOTH"
);
}
);
width = 755;
}
);
note = Eng;
unicode = 014A;
},
{
glyphname = Nlinebelow;
lastChange = "2015-11-29 16:07:47 +0000";
layers = (
{
layerId = "AD8C1534-DD1F-4D30-8D71-C3A36519B1B2";
name = "Bold Italic";
paths = (
{
closed = 1;
nodes = (
"195 0 LINE",
"197 17 LINE",
"172 26 OFFCURVE",
"150 33 OFFCURVE",
"126 38 CURVE",
"244 621 LINE",
"527 0 LINE",
"604 0 LINE",
"738 661 LINE",
"763 667 OFFCURVE",
"789 673 OFFCURVE",
"818 682 CURVE",
"821 700 LINE",
"609 700 LINE",
"605 682 LINE",
"632 673 OFFCURVE",
"654 667 OFFCURVE",
"677 661 CURVE",
"581 189 LINE",
"352 700 LINE",
"124 700 LINE",
"121 682 LINE",
"146 672 OFFCURVE",
"171 665 OFFCURVE",
"194 660 CURVE",
"67 38 LINE",
"42 33 OFFCURVE",
"15 26 OFFCURVE",
"-14 17 CURVE",
"-17 0 LINE"
);
},
{
closed = 1;
nodes = (
"496 -109 LINE",
"507 -61 LINE",
"133 -61 LINE",
"123 -109 LINE"
);
}
);
width = 755;
}
);
note = Nlinebelow;
unicode = 1E48;
},
{
glyphname = Ntilde;
lastChange = "2015-11-29 16:07:49 +0000";
layers = (
{
layerId = "AD8C1534-DD1F-4D30-8D71-C3A36519B1B2";
name = "Bold Italic";
paths = (
{
closed = 1;
nodes = (
"195 0 LINE",
"197 17 LINE",
"172 26 OFFCURVE",
"150 33 OFFCURVE",
"126 38 CURVE",
"244 621 LINE",
"527 0 LINE",
"604 0 LINE",
"738 661 LINE",
"763 667 OFFCURVE",
"789 673 OFFCURVE",
"818 682 CURVE",
"821 700 LINE",
"609 700 LINE",
"605 682 LINE",
"632 673 OFFCURVE",
"654 667 OFFCURVE",
"677 661 CURVE",
"581 189 LINE",
"352 700 LINE",
"124 700 LINE",
"121 682 LINE",
"146 672 OFFCURVE",
"171 665 OFFCURVE",
"194 660 CURVE",
"67 38 LINE",
"42 33 OFFCURVE",
"15 26 OFFCURVE",
"-14 17 CURVE",
"-17 0 LINE"
);
},
{
closed = 1;
nodes = (
"369 786 LINE",
"381 818 OFFCURVE",
"406 839 OFFCURVE",
"435 839 CURVE SMOOTH",
"469 839 OFFCURVE",
"519 786 OFFCURVE",
"576 786 CURVE SMOOTH",
"650 786 OFFCURVE",
"694 834 OFFCURVE",
"715 905 CURVE",
"653 905 LINE",
"633 859 OFFCURVE",
"607 851 OFFCURVE",
"583 851 CURVE SMOOTH",
"544 851 OFFCURVE",
"515 903 OFFCURVE",
"446 903 CURVE SMOOTH",
"381 903 OFFCURVE",
"331 863 OFFCURVE",
"305 786 CURVE"
);
}
);
width = 755;
}
);
note = Ntilde;
unicode = 00D1;
},
{
glyphname = O;
lastChange = "2015-11-29 16:07:47 +0000";
layers = (
{
layerId = "AD8C1534-DD1F-4D30-8D71-C3A36519B1B2";
name = "Bold Italic";
paths = (
{
closed = 1;
nodes = (
"535 -10 OFFCURVE",
"681 127 OFFCURVE",
"727 350 CURVE SMOOTH",
"772 572 OFFCURVE",
"682 710 OFFCURVE",
"465 710 CURVE SMOOTH",
"247 710 OFFCURVE",
"102 572 OFFCURVE",
"57 350 CURVE SMOOTH",
"11 127 OFFCURVE",
"100 -10 OFFCURVE",
"318 -10 CURVE SMOOTH"
);
},
{
closed = 1;
nodes = (
"203 42 OFFCURVE",
"173 171 OFFCURVE",
"210 350 CURVE SMOOTH",
"246 528 OFFCURVE",
"329 658 OFFCURVE",
"455 658 CURVE SMOOTH",
"580 658 OFFCURVE",
"611 528 OFFCURVE",
"575 350 CURVE SMOOTH",
"538 171 OFFCURVE",
"454 42 OFFCURVE",
"329 42 CURVE SMOOTH"
);
}
);
width = 735;
}
);
leftKerningGroup = O;
note = O;
rightKerningGroup = O;
unicode = 004F;
},
{
glyphname = Oacute;
lastChange = "2015-11-29 16:07:47 +0000";
layers = (
{
layerId = "AD8C1534-DD1F-4D30-8D71-C3A36519B1B2";
name = "Bold Italic";
paths = (
{
closed = 1;
nodes = (
"535 -10 OFFCURVE",
"681 127 OFFCURVE",
"727 350 CURVE SMOOTH",
"772 572 OFFCURVE",
"682 710 OFFCURVE",
"465 710 CURVE SMOOTH",
"247 710 OFFCURVE",
"102 572 OFFCURVE",
"57 350 CURVE SMOOTH",
"11 127 OFFCURVE",
"100 -10 OFFCURVE",
"318 -10 CURVE SMOOTH"
);
},
{
closed = 1;
nodes = (
"203 42 OFFCURVE",
"173 171 OFFCURVE",
"210 350 CURVE SMOOTH",
"246 528 OFFCURVE",
"329 658 OFFCURVE",
"455 658 CURVE SMOOTH",
"580 658 OFFCURVE",
"611 528 OFFCURVE",
"575 350 CURVE SMOOTH",
"538 171 OFFCURVE",
"454 42 OFFCURVE",
"329 42 CURVE SMOOTH"
);
},
{
closed = 1;
nodes = (
"571 879 LINE SMOOTH",
"605 898 OFFCURVE",
"626 916 OFFCURVE",
"630 940 CURVE SMOOTH",
"634 959 OFFCURVE",
"625 982 OFFCURVE",
"593 982 CURVE SMOOTH",
"560 982 OFFCURVE",
"532 954 OFFCURVE",
"525 947 CURVE",
"382 821 LINE",
"399 786 LINE"
);
}
);
width = 735;
}
);
leftKerningGroup = O;
note = Oacute;
rightKerningGroup = O;
unicode = 00D3;
},
{
glyphname = Obreve;
lastChange = "2015-11-29 16:07:47 +0000";
layers = (
{
layerId = "AD8C1534-DD1F-4D30-8D71-C3A36519B1B2";
name = "Bold Italic";
paths = (
{
closed = 1;
nodes = (
"535 -10 OFFCURVE",
"681 127 OFFCURVE",
"727 350 CURVE SMOOTH",
"772 572 OFFCURVE",
"682 710 OFFCURVE",
"465 710 CURVE SMOOTH",
"247 710 OFFCURVE",
"102 572 OFFCURVE",
"57 350 CURVE SMOOTH",
"11 127 OFFCURVE",
"100 -10 OFFCURVE",
"318 -10 CURVE SMOOTH"
);
},
{
closed = 1;
nodes = (
"203 42 OFFCURVE",
"173 171 OFFCURVE",
"210 350 CURVE SMOOTH",
"246 528 OFFCURVE",
"329 658 OFFCURVE",
"455 658 CURVE SMOOTH",
"580 658 OFFCURVE",
"611 528 OFFCURVE",
"575 350 CURVE SMOOTH",
"538 171 OFFCURVE",
"454 42 OFFCURVE",
"329 42 CURVE SMOOTH"
);
},
{
closed = 1;
nodes = (
"574 781 OFFCURVE",
"648 824 OFFCURVE",
"680 915 CURVE",
"598 915 LINE",
"576 842 OFFCURVE",
"530 833 OFFCURVE",
"490 833 CURVE SMOOTH",
"451 833 OFFCURVE",
"408 842 OFFCURVE",
"415 915 CURVE",
"334 915 LINE",
"330 824 OFFCURVE",
"386 781 OFFCURVE",
"480 781 CURVE SMOOTH"
);
}
);
width = 735;
}
);
leftKerningGroup = O;
note = Obreve;
rightKerningGroup = O;
unicode = 014E;
},
{
glyphname = Ocaron;
lastChange = "2015-11-29 16:07:49 +0000";
layers = (
{
layerId = "AD8C1534-DD1F-4D30-8D71-C3A36519B1B2";
name = "Bold Italic";
paths = (
{
closed = 1;
nodes = (
"535 -10 OFFCURVE",
"681 127 OFFCURVE",
"727 350 CURVE SMOOTH",
"772 572 OFFCURVE",
"682 710 OFFCURVE",
"465 710 CURVE SMOOTH",
"247 710 OFFCURVE",
"102 572 OFFCURVE",
"57 350 CURVE SMOOTH",
"11 127 OFFCURVE",
"100 -10 OFFCURVE",
"318 -10 CURVE SMOOTH"
);
},
{
closed = 1;
nodes = (
"203 42 OFFCURVE",
"173 171 OFFCURVE",
"210 350 CURVE SMOOTH",
"246 528 OFFCURVE",
"329 658 OFFCURVE",
"455 658 CURVE SMOOTH",
"580 658 OFFCURVE",
"611 528 OFFCURVE",
"575 350 CURVE SMOOTH",
"538 171 OFFCURVE",
"454 42 OFFCURVE",
"329 42 CURVE SMOOTH"
);
},
{
closed = 1;
nodes = (
"455 786 OFFCURVE",
"507 786 OFFCURVE",
"515 786 CURVE",
"545 822 OFFCURVE",
"645 900 OFFCURVE",
"693 929 CURVE",
"643 974 LINE",
"596 942 OFFCURVE",
"525 882 OFFCURVE",
"494 846 CURVE",
"493 846 OFFCURVE",
"491 846 OFFCURVE",
"490 846 CURVE",
"476 882 OFFCURVE",
"429 942 OFFCURVE",
"396 974 CURVE",
"327 929 LINE",
"364 900 OFFCURVE",
"430 822 OFFCURVE",
"446 786 CURVE"
);
}
);
width = 735;
}
);
leftKerningGroup = O;
note = Ocaron;
rightKerningGroup = O;
unicode = 01D1;
},
{
glyphname = Ocircumflex;
lastChange = "2015-11-29 16:07:48 +0000";
layers = (
{
layerId = "AD8C1534-DD1F-4D30-8D71-C3A36519B1B2";
name = "Bold Italic";
paths = (
{
closed = 1;
nodes = (
"535 -10 OFFCURVE",
"681 127 OFFCURVE",
"727 350 CURVE SMOOTH",
"772 572 OFFCURVE",
"682 710 OFFCURVE",
"465 710 CURVE SMOOTH",
"247 710 OFFCURVE",
"102 572 OFFCURVE",
"57 350 CURVE SMOOTH",
"11 127 OFFCURVE",
"100 -10 OFFCURVE",
"318 -10 CURVE SMOOTH"
);
},
{
closed = 1;
nodes = (
"203 42 OFFCURVE",
"173 171 OFFCURVE",
"210 350 CURVE SMOOTH",
"246 528 OFFCURVE",
"329 658 OFFCURVE",
"455 658 CURVE SMOOTH",
"580 658 OFFCURVE",
"611 528 OFFCURVE",
"575 350 CURVE SMOOTH",
"538 171 OFFCURVE",
"454 42 OFFCURVE",
"329 42 CURVE SMOOTH"
);
},
{
closed = 1;
nodes = (
"402 816 OFFCURVE",
"474 876 OFFCURVE",
"503 912 CURVE",
"504 912 OFFCURVE",
"506 912 OFFCURVE",
"507 912 CURVE",
"523 876 OFFCURVE",
"569 816 OFFCURVE",
"603 783 CURVE",
"672 829 LINE",
"635 857 OFFCURVE",
"568 936 OFFCURVE",
"552 972 CURVE",
"543 972 OFFCURVE",
"491 972 OFFCURVE",
"483 972 CURVE",
"453 936 OFFCURVE",
"355 857 OFFCURVE",
"306 829 CURVE",
"357 783 LINE"
);
}
);
width = 735;
}
);
leftKerningGroup = O;
note = Ocircumflex;
rightKerningGroup = O;
unicode = 00D4;
},
{
glyphname = Ocircumflexacute;
lastChange = "2015-11-29 16:07:48 +0000";
layers = (
{
layerId = "AD8C1534-DD1F-4D30-8D71-C3A36519B1B2";
name = "Bold Italic";
paths = (
{
closed = 1;
nodes = (
"535 -10 OFFCURVE",
"681 127 OFFCURVE",
"727 350 CURVE SMOOTH",
"772 572 OFFCURVE",
"682 710 OFFCURVE",
"465 710 CURVE SMOOTH",
"247 710 OFFCURVE",
"102 572 OFFCURVE",
"57 350 CURVE SMOOTH",
"11 127 OFFCURVE",
"100 -10 OFFCURVE",
"318 -10 CURVE SMOOTH"
);
},
{
closed = 1;
nodes = (
"203 42 OFFCURVE",
"173 171 OFFCURVE",
"210 350 CURVE SMOOTH",
"246 528 OFFCURVE",
"329 658 OFFCURVE",
"455 658 CURVE SMOOTH",
"580 658 OFFCURVE",
"611 528 OFFCURVE",
"575 350 CURVE SMOOTH",
"538 171 OFFCURVE",
"454 42 OFFCURVE",
"329 42 CURVE SMOOTH"
);
},
{
closed = 1;
nodes = (
"403 816 OFFCURVE",
"474 876 OFFCURVE",
"504 912 CURVE",
"508 912 LINE",
"524 876 OFFCURVE",
"570 816 OFFCURVE",
"603 783 CURVE",
"672 829 LINE",
"635 857 OFFCURVE",
"569 936 OFFCURVE",
"553 972 CURVE",
"484 972 LINE",
"454 936 OFFCURVE",
"354 857 OFFCURVE",
"306 829 CURVE",
"357 783 LINE"
);
},
{
closed = 1;
nodes = (
"758 976 LINE SMOOTH",
"800 996 OFFCURVE",
"827 1021 OFFCURVE",
"832 1045 CURVE SMOOTH",
"836 1064 OFFCURVE",
"825 1085 OFFCURVE",
"796 1085 CURVE SMOOTH",
"772 1085 OFFCURVE",
"744 1066 OFFCURVE",
"718 1041 CURVE SMOOTH",
"628 953 LINE",
"645 922 LINE"
);
}
);
width = 735;
}
);
leftKerningGroup = O;
note = Ocircumflexacute;
rightKerningGroup = O;
unicode = 1ED0;
},
{
glyphname = Ocircumflexdotbelow;
lastChange = "2015-11-29 16:09:06 +0000";
layers = (
{
layerId = "AD8C1534-DD1F-4D30-8D71-C3A36519B1B2";
name = "Bold Italic";
paths = (
{
closed = 1;
nodes = (
"535 -10 OFFCURVE",
"681 127 OFFCURVE",
"727 350 CURVE SMOOTH",
"772 572 OFFCURVE",
"682 710 OFFCURVE",
"465 710 CURVE SMOOTH",
"247 710 OFFCURVE",
"102 572 OFFCURVE",
"57 350 CURVE SMOOTH",
"11 127 OFFCURVE",
"100 -10 OFFCURVE",
"318 -10 CURVE SMOOTH"
);
},
{
closed = 1;
nodes = (
"203 42 OFFCURVE",
"173 171 OFFCURVE",
"210 350 CURVE SMOOTH",
"246 528 OFFCURVE",
"329 658 OFFCURVE",
"455 658 CURVE SMOOTH",
"580 658 OFFCURVE",
"611 528 OFFCURVE",
"575 350 CURVE SMOOTH",
"538 171 OFFCURVE",
"454 42 OFFCURVE",
"329 42 CURVE SMOOTH"
);
},
{
closed = 1;
nodes = (
"402 816 OFFCURVE",
"474 876 OFFCURVE",
"503 912 CURVE",
"504 912 OFFCURVE",
"506 912 OFFCURVE",
"507 912 CURVE",
"523 876 OFFCURVE",
"569 816 OFFCURVE",
"603 783 CURVE",
"672 829 LINE",
"635 857 OFFCURVE",
"568 936 OFFCURVE",
"552 972 CURVE",
"543 972 OFFCURVE",
"491 972 OFFCURVE",
"483 972 CURVE",
"453 936 OFFCURVE",
"355 857 OFFCURVE",
"306 829 CURVE",
"357 783 LINE"
);
},
{
closed = 1;
nodes = (
"321 -178 OFFCURVE",
"349 -151 OFFCURVE",
"357 -116 CURVE SMOOTH",
"364 -81 OFFCURVE",
"346 -54 OFFCURVE",
"310 -54 CURVE SMOOTH",
"274 -54 OFFCURVE",
"245 -81 OFFCURVE",
"239 -116 CURVE SMOOTH",
"231 -151 OFFCURVE",
"249 -178 OFFCURVE",
"285 -178 CURVE SMOOTH"
);
}
);
width = 735;
}
);
leftKerningGroup = O;
note = Ocircumflexdotbelow;
rightKerningGroup = O;
unicode = 1ED8;
},
{
glyphname = Ocircumflexgrave;
lastChange = "2015-11-29 16:07:47 +0000";
layers = (
{
layerId = "AD8C1534-DD1F-4D30-8D71-C3A36519B1B2";
name = "Bold Italic";
paths = (
{
closed = 1;
nodes = (
"535 -10 OFFCURVE",
"681 127 OFFCURVE",
"727 350 CURVE SMOOTH",
"772 572 OFFCURVE",
"682 710 OFFCURVE",
"465 710 CURVE SMOOTH",
"247 710 OFFCURVE",
"102 572 OFFCURVE",
"57 350 CURVE SMOOTH",
"11 127 OFFCURVE",
"100 -10 OFFCURVE",
"318 -10 CURVE SMOOTH"
);
},
{
closed = 1;
nodes = (
"203 42 OFFCURVE",
"173 171 OFFCURVE",
"210 350 CURVE SMOOTH",
"246 528 OFFCURVE",
"329 658 OFFCURVE",
"455 658 CURVE SMOOTH",
"580 658 OFFCURVE",
"611 528 OFFCURVE",
"575 350 CURVE SMOOTH",
"538 171 OFFCURVE",
"454 42 OFFCURVE",
"329 42 CURVE SMOOTH"
);
},
{
closed = 1;
nodes = (
"400 953 LINE",
"346 1041 LINE SMOOTH",
"330 1066 OFFCURVE",
"310 1085 OFFCURVE",
"285 1085 CURVE SMOOTH",
"256 1085 OFFCURVE",
"238 1064 OFFCURVE",
"234 1045 CURVE SMOOTH",
"229 1021 OFFCURVE",
"244 996 OFFCURVE",
"279 976 CURVE SMOOTH",
"371 922 LINE"
);
},
{
closed = 1;
nodes = (
"403 816 OFFCURVE",
"474 876 OFFCURVE",
"504 912 CURVE",
"508 912 LINE",
"524 876 OFFCURVE",
"570 816 OFFCURVE",
"603 783 CURVE",
"672 829 LINE",
"635 857 OFFCURVE",
"569 936 OFFCURVE",
"553 972 CURVE",
"484 972 LINE",
"454 936 OFFCURVE",
"354 857 OFFCURVE",
"306 829 CURVE",
"357 783 LINE"
);
}
);
width = 735;
}
);
leftKerningGroup = O;
note = Ocircumflexgrave;
rightKerningGroup = O;
unicode = 1ED2;
},
{
glyphname = Ocircumflexhookabove;
lastChange = "2015-11-29 16:07:48 +0000";
layers = (
{
layerId = "AD8C1534-DD1F-4D30-8D71-C3A36519B1B2";
name = "Bold Italic";
paths = (
{
closed = 1;
nodes = (
"535 -10 OFFCURVE",
"681 127 OFFCURVE",
"727 350 CURVE SMOOTH",
"772 572 OFFCURVE",
"682 710 OFFCURVE",
"465 710 CURVE SMOOTH",
"247 710 OFFCURVE",
"102 572 OFFCURVE",
"57 350 CURVE SMOOTH",
"11 127 OFFCURVE",
"100 -10 OFFCURVE",
"318 -10 CURVE SMOOTH"
);
},
{
closed = 1;
nodes = (
"203 42 OFFCURVE",
"173 171 OFFCURVE",
"210 350 CURVE SMOOTH",
"246 528 OFFCURVE",
"329 658 OFFCURVE",
"455 658 CURVE SMOOTH",
"580 658 OFFCURVE",
"611 528 OFFCURVE",
"575 350 CURVE SMOOTH",
"538 171 OFFCURVE",
"454 42 OFFCURVE",
"329 42 CURVE SMOOTH"
);
},
{
closed = 1;
nodes = (
"404 818 OFFCURVE",
"475 878 OFFCURVE",
"505 914 CURVE",
"508 914 LINE",
"525 878 OFFCURVE",
"571 818 OFFCURVE",
"604 785 CURVE",
"673 831 LINE",
"636 859 OFFCURVE",
"570 938 OFFCURVE",
"554 974 CURVE",
"484 974 LINE",
"455 938 OFFCURVE",
"355 859 OFFCURVE",
"307 831 CURVE",
"358 785 LINE"
);
},
{
closed = 1;
nodes = (
"678 935 LINE",
"697 983 LINE",
"743 987 OFFCURVE",
"781 1005 OFFCURVE",
"792 1058 CURVE SMOOTH",
"803 1116 OFFCURVE",
"757 1138 OFFCURVE",
"706 1138 CURVE SMOOTH",
"678 1138 OFFCURVE",
"651 1131 OFFCURVE",
"631 1123 CURVE",
"629 1087 LINE",
"648 1095 OFFCURVE",
"669 1099 OFFCURVE",
"684 1099 CURVE SMOOTH",
"719 1099 OFFCURVE",
"732 1081 OFFCURVE",
"727 1059 CURVE SMOOTH",
"721 1026 OFFCURVE",
"694 1014 OFFCURVE",
"670 1014 CURVE SMOOTH",
"638 1014 LINE",
"627 935 LINE"
);
}
);
width = 735;
}
);
leftKerningGroup = O;
note = Ocircumflexhookabove;
rightKerningGroup = O;
unicode = 1ED4;
},
{
glyphname = Ocircumflextilde;
lastChange = "2015-11-29 16:07:49 +0000";
layers = (
{
layerId = "AD8C1534-DD1F-4D30-8D71-C3A36519B1B2";
name = "Bold Italic";
paths = (
{
closed = 1;
nodes = (
"535 -10 OFFCURVE",
"681 127 OFFCURVE",
"727 350 CURVE SMOOTH",
"772 572 OFFCURVE",
"682 710 OFFCURVE",
"465 710 CURVE SMOOTH",
"247 710 OFFCURVE",
"102 572 OFFCURVE",
"57 350 CURVE SMOOTH",
"11 127 OFFCURVE",
"100 -10 OFFCURVE",
"318 -10 CURVE SMOOTH"
);
},
{
closed = 1;
nodes = (
"203 42 OFFCURVE",
"173 171 OFFCURVE",
"210 350 CURVE SMOOTH",
"246 528 OFFCURVE",
"329 658 OFFCURVE",
"455 658 CURVE SMOOTH",
"580 658 OFFCURVE",
"611 528 OFFCURVE",
"575 350 CURVE SMOOTH",
"538 171 OFFCURVE",
"454 42 OFFCURVE",
"329 42 CURVE SMOOTH"
);
},
{
closed = 1;
nodes = (
"403 816 OFFCURVE",
"474 876 OFFCURVE",
"504 912 CURVE",
"508 912 LINE",
"524 876 OFFCURVE",
"570 816 OFFCURVE",
"603 783 CURVE",
"672 829 LINE",
"635 857 OFFCURVE",
"569 936 OFFCURVE",
"553 972 CURVE",
"484 972 LINE",
"454 936 OFFCURVE",
"354 857 OFFCURVE",
"306 829 CURVE",
"357 783 LINE"
);
},
{
closed = 1;
nodes = (
"400 1004 LINE",
"412 1036 OFFCURVE",
"440 1056 OFFCURVE",
"471 1056 CURVE SMOOTH",
"514 1056 OFFCURVE",
"542 1005 OFFCURVE",
"598 1005 CURVE SMOOTH",
"669 1005 OFFCURVE",
"714 1051 OFFCURVE",
"736 1121 CURVE",
"687 1121 LINE",
"667 1076 OFFCURVE",
"631 1067 OFFCURVE",
"609 1067 CURVE SMOOTH",
"571 1067 OFFCURVE",
"555 1118 OFFCURVE",
"487 1118 CURVE SMOOTH",
"423 1118 OFFCURVE",
"375 1080 OFFCURVE",
"350 1004 CURVE"
);
}
);
width = 735;
}
);
leftKerningGroup = O;
note = Ocircumflextilde;
rightKerningGroup = O;
unicode = 1ED6;
},
{
glyphname = Odieresis;
lastChange = "2015-11-29 16:07:47 +0000";
layers = (
{
layerId = "AD8C1534-DD1F-4D30-8D71-C3A36519B1B2";
name = "Bold Italic";
paths = (
{
closed = 1;
nodes = (
"535 -10 OFFCURVE",
"681 127 OFFCURVE",
"727 350 CURVE SMOOTH",
"772 572 OFFCURVE",
"682 710 OFFCURVE",
"465 710 CURVE SMOOTH",
"247 710 OFFCURVE",
"102 572 OFFCURVE",
"57 350 CURVE SMOOTH",
"11 127 OFFCURVE",
"100 -10 OFFCURVE",
"318 -10 CURVE SMOOTH"
);
},
{
closed = 1;
nodes = (
"203 42 OFFCURVE",
"173 171 OFFCURVE",
"210 350 CURVE SMOOTH",
"246 528 OFFCURVE",
"329 658 OFFCURVE",
"455 658 CURVE SMOOTH",
"580 658 OFFCURVE",
"611 528 OFFCURVE",
"575 350 CURVE SMOOTH",
"538 171 OFFCURVE",
"454 42 OFFCURVE",
"329 42 CURVE SMOOTH"
);
},
{
closed = 1;
nodes = (
"400 785 OFFCURVE",
"429 812 OFFCURVE",
"436 847 CURVE SMOOTH",
"443 882 OFFCURVE",
"426 909 OFFCURVE",
"389 909 CURVE SMOOTH",
"355 909 OFFCURVE",
"326 882 OFFCURVE",
"319 847 CURVE SMOOTH",
"312 812 OFFCURVE",
"329 785 OFFCURVE",
"364 785 CURVE SMOOTH"
);
},
{
closed = 1;
nodes = (
"630 785 OFFCURVE",
"659 812 OFFCURVE",
"667 847 CURVE SMOOTH",
"674 882 OFFCURVE",
"656 909 OFFCURVE",
"620 909 CURVE SMOOTH",
"583 909 OFFCURVE",
"556 882 OFFCURVE",
"549 847 CURVE SMOOTH",
"541 812 OFFCURVE",
"557 785 OFFCURVE",
"594 785 CURVE SMOOTH"
);
}
);
width = 735;
}
);
leftKerningGroup = O;
note = Odieresis;
rightKerningGroup = O;
unicode = 00D6;
},
{
glyphname = Odotbelow;
lastChange = "2015-11-29 16:09:10 +0000";
layers = (
{
layerId = "AD8C1534-DD1F-4D30-8D71-C3A36519B1B2";
name = "Bold Italic";
paths = (
{
closed = 1;
nodes = (
"11 127 OFFCURVE",
"100 -10 OFFCURVE",
"318 -10 CURVE SMOOTH",
"535 -10 OFFCURVE",
"681 127 OFFCURVE",
"727 350 CURVE SMOOTH",
"772 572 OFFCURVE",
"682 710 OFFCURVE",
"465 710 CURVE SMOOTH",
"247 710 OFFCURVE",
"102 572 OFFCURVE",
"57 350 CURVE SMOOTH"
);
},
{
closed = 1;
nodes = (
"246 528 OFFCURVE",
"329 658 OFFCURVE",
"455 658 CURVE SMOOTH",
"580 658 OFFCURVE",
"611 528 OFFCURVE",
"575 350 CURVE SMOOTH",
"538 171 OFFCURVE",
"454 42 OFFCURVE",
"329 42 CURVE SMOOTH",
"203 42 OFFCURVE",
"173 171 OFFCURVE",
"210 350 CURVE SMOOTH"
);
},
{
closed = 1;
nodes = (
"231 -151 OFFCURVE",
"249 -178 OFFCURVE",
"285 -178 CURVE SMOOTH",
"321 -178 OFFCURVE",
"349 -151 OFFCURVE",
"357 -116 CURVE SMOOTH",
"364 -81 OFFCURVE",
"346 -54 OFFCURVE",
"310 -54 CURVE SMOOTH",
"274 -54 OFFCURVE",
"245 -81 OFFCURVE",
"239 -116 CURVE"
);
}
);
width = 735;
}
);
leftKerningGroup = O;
note = Odotbelow;
rightKerningGroup = O;
unicode = 1ECC;
},
{
glyphname = Ograve;
lastChange = "2015-11-29 16:07:49 +0000";
layers = (
{
layerId = "AD8C1534-DD1F-4D30-8D71-C3A36519B1B2";
name = "Bold Italic";
paths = (
{
closed = 1;
nodes = (
"535 -10 OFFCURVE",
"681 127 OFFCURVE",
"727 350 CURVE SMOOTH",
"772 572 OFFCURVE",
"682 710 OFFCURVE",
"465 710 CURVE SMOOTH",
"247 710 OFFCURVE",
"102 572 OFFCURVE",
"57 350 CURVE SMOOTH",
"11 127 OFFCURVE",
"100 -10 OFFCURVE",
"318 -10 CURVE SMOOTH"
);
},
{
closed = 1;
nodes = (
"203 42 OFFCURVE",
"173 171 OFFCURVE",
"210 350 CURVE SMOOTH",
"246 528 OFFCURVE",
"329 658 OFFCURVE",
"455 658 CURVE SMOOTH",
"580 658 OFFCURVE",
"611 528 OFFCURVE",
"575 350 CURVE SMOOTH",
"538 171 OFFCURVE",
"454 42 OFFCURVE",
"329 42 CURVE SMOOTH"
);
},
{
closed = 1;
nodes = (
"593 821 LINE",
"501 948 LINE",
"497 955 OFFCURVE",
"479 982 OFFCURVE",
"447 982 CURVE SMOOTH",
"413 982 OFFCURVE",
"395 959 OFFCURVE",
"391 940 CURVE SMOOTH",
"387 916 OFFCURVE",
"400 898 OFFCURVE",
"427 879 CURVE SMOOTH",
"562 786 LINE"
);
}
);
width = 735;
}
);
leftKerningGroup = O;
note = Ograve;
rightKerningGroup = O;
unicode = 00D2;
},
{
glyphname = Ohookabove;
lastChange = "2015-11-29 16:07:47 +0000";
layers = (
{
layerId = "AD8C1534-DD1F-4D30-8D71-C3A36519B1B2";
name = "Bold Italic";
paths = (
{
closed = 1;
nodes = (
"535 -10 OFFCURVE",
"681 127 OFFCURVE",
"727 350 CURVE SMOOTH",
"772 572 OFFCURVE",
"682 710 OFFCURVE",
"465 710 CURVE SMOOTH",
"247 710 OFFCURVE",
"102 572 OFFCURVE",
"57 350 CURVE SMOOTH",
"11 127 OFFCURVE",
"100 -10 OFFCURVE",
"318 -10 CURVE SMOOTH"
);
},
{
closed = 1;
nodes = (
"203 42 OFFCURVE",
"173 171 OFFCURVE",
"210 350 CURVE SMOOTH",
"246 528 OFFCURVE",
"329 658 OFFCURVE",
"455 658 CURVE SMOOTH",
"580 658 OFFCURVE",
"611 528 OFFCURVE",
"575 350 CURVE SMOOTH",
"538 171 OFFCURVE",
"454 42 OFFCURVE",
"329 42 CURVE SMOOTH"
);
},
{
closed = 1;
nodes = (
"513 783 LINE",
"537 852 LINE",
"590 857 OFFCURVE",
"634 878 OFFCURVE",
"646 938 CURVE SMOOTH",
"659 1004 OFFCURVE",
"606 1029 OFFCURVE",
"549 1029 CURVE SMOOTH",
"517 1029 OFFCURVE",
"484 1021 OFFCURVE",
"462 1011 CURVE",
"461 972 LINE",
"484 984 OFFCURVE",
"507 988 OFFCURVE",
"524 988 CURVE SMOOTH",
"563 988 OFFCURVE",
"579 965 OFFCURVE",
"574 939 CURVE SMOOTH",
"566 901 OFFCURVE",
"534 887 OFFCURVE",
"508 887 CURVE SMOOTH",
"471 887 LINE",
"454 783 LINE"
);
}
);
width = 735;
}
);
leftKerningGroup = O;
note = Ohookabove;
rightKerningGroup = O;
unicode = 1ECE;
},
{
glyphname = Ohorn;
lastChange = "2015-11-29 16:07:49 +0000";
layers = (
{
layerId = "AD8C1534-DD1F-4D30-8D71-C3A36519B1B2";
name = "Bold Italic";
paths = (
{
closed = 1;
nodes = (
"535 -10 OFFCURVE",
"681 127 OFFCURVE",
"727 350 CURVE SMOOTH",
"772 572 OFFCURVE",
"682 710 OFFCURVE",
"465 710 CURVE SMOOTH",
"247 710 OFFCURVE",
"102 572 OFFCURVE",
"57 350 CURVE SMOOTH",
"11 127 OFFCURVE",
"100 -10 OFFCURVE",
"318 -10 CURVE SMOOTH"
);
},
{
closed = 1;
nodes = (
"203 42 OFFCURVE",
"173 171 OFFCURVE",
"210 350 CURVE SMOOTH",
"246 528 OFFCURVE",
"329 658 OFFCURVE",
"455 658 CURVE SMOOTH",
"580 658 OFFCURVE",
"611 528 OFFCURVE",
"575 350 CURVE SMOOTH",
"538 171 OFFCURVE",
"454 42 OFFCURVE",
"329 42 CURVE SMOOTH"
);
},
{
closed = 1;
nodes = (
"828 538 OFFCURVE",
"880 605 OFFCURVE",
"891 658 CURVE SMOOTH",
"897 688 OFFCURVE",
"902 741 OFFCURVE",
"832 741 CURVE SMOOTH",
"775 741 OFFCURVE",
"754 703 OFFCURVE",
"748 675 CURVE SMOOTH",
"740 636 OFFCURVE",
"758 612 OFFCURVE",
"794 612 CURVE SMOOTH",
"798 612 OFFCURVE",
"804 613 OFFCURVE",
"810 615 CURVE",
"789 566 OFFCURVE",
"719 519 OFFCURVE",
"694 503 CURVE",
"715 467 LINE"
);
}
);
width = 780;
}
);
leftKerningGroup = O;
note = Ohorn;
rightKerningGroup = O;
unicode = 01A0;
},
{
glyphname = Ohornacute;
lastChange = "2015-11-29 16:07:47 +0000";
layers = (
{
layerId = "AD8C1534-DD1F-4D30-8D71-C3A36519B1B2";
name = "Bold Italic";
paths = (
{
closed = 1;
nodes = (
"535 -10 OFFCURVE",
"681 127 OFFCURVE",
"727 350 CURVE SMOOTH",
"772 572 OFFCURVE",
"682 710 OFFCURVE",
"465 710 CURVE SMOOTH",
"247 710 OFFCURVE",
"102 572 OFFCURVE",
"57 350 CURVE SMOOTH",
"11 127 OFFCURVE",
"100 -10 OFFCURVE",
"318 -10 CURVE SMOOTH"
);
},
{
closed = 1;
nodes = (
"203 42 OFFCURVE",
"173 171 OFFCURVE",
"210 350 CURVE SMOOTH",
"246 528 OFFCURVE",
"329 658 OFFCURVE",
"455 658 CURVE SMOOTH",
"580 658 OFFCURVE",
"611 528 OFFCURVE",
"575 350 CURVE SMOOTH",
"538 171 OFFCURVE",
"454 42 OFFCURVE",
"329 42 CURVE SMOOTH"
);
},
{
closed = 1;
nodes = (
"572 878 LINE SMOOTH",
"606 897 OFFCURVE",
"627 915 OFFCURVE",
"631 939 CURVE SMOOTH",
"635 958 OFFCURVE",
"626 981 OFFCURVE",
"594 981 CURVE SMOOTH",
"561 981 OFFCURVE",
"532 953 OFFCURVE",
"526 946 CURVE",
"383 820 LINE",
"400 785 LINE"
);
},
{
closed = 1;
nodes = (
"828 538 OFFCURVE",
"880 605 OFFCURVE",
"891 658 CURVE SMOOTH",
"897 688 OFFCURVE",
"902 741 OFFCURVE",
"832 741 CURVE SMOOTH",
"775 741 OFFCURVE",
"754 703 OFFCURVE",
"748 675 CURVE SMOOTH",
"740 636 OFFCURVE",
"758 612 OFFCURVE",
"794 612 CURVE SMOOTH",
"798 612 OFFCURVE",
"804 613 OFFCURVE",
"810 615 CURVE",
"789 566 OFFCURVE",
"719 519 OFFCURVE",
"694 503 CURVE",
"715 467 LINE"
);
}
);
width = 780;
}
);
leftKerningGroup = O;
note = Ohornacute;
rightKerningGroup = O;
unicode = 1EDA;
},
{
glyphname = Ohorndotbelow;
lastChange = "2015-11-29 16:09:16 +0000";
layers = (
{
layerId = "AD8C1534-DD1F-4D30-8D71-C3A36519B1B2";
name = "Bold Italic";
paths = (
{
closed = 1;
nodes = (
"535 -10 OFFCURVE",
"681 127 OFFCURVE",
"727 350 CURVE SMOOTH",
"772 572 OFFCURVE",
"682 710 OFFCURVE",
"465 710 CURVE SMOOTH",
"247 710 OFFCURVE",
"102 572 OFFCURVE",
"57 350 CURVE SMOOTH",
"11 127 OFFCURVE",
"100 -10 OFFCURVE",
"318 -10 CURVE SMOOTH"
);
},
{
closed = 1;
nodes = (
"203 42 OFFCURVE",
"173 171 OFFCURVE",
"210 350 CURVE SMOOTH",
"246 528 OFFCURVE",
"329 658 OFFCURVE",
"455 658 CURVE SMOOTH",
"580 658 OFFCURVE",
"611 528 OFFCURVE",
"575 350 CURVE SMOOTH",
"538 171 OFFCURVE",
"454 42 OFFCURVE",
"329 42 CURVE SMOOTH"
);
},
{
closed = 1;
nodes = (
"828 538 OFFCURVE",
"880 605 OFFCURVE",
"891 658 CURVE SMOOTH",
"897 688 OFFCURVE",
"902 741 OFFCURVE",
"832 741 CURVE SMOOTH",
"775 741 OFFCURVE",
"754 703 OFFCURVE",
"748 675 CURVE SMOOTH",
"740 636 OFFCURVE",
"758 612 OFFCURVE",
"794 612 CURVE SMOOTH",
"798 612 OFFCURVE",
"804 613 OFFCURVE",
"810 615 CURVE",
"789 566 OFFCURVE",
"719 519 OFFCURVE",
"694 503 CURVE",
"715 467 LINE"
);
},
{
closed = 1;
nodes = (
"321 -178 OFFCURVE",
"349 -151 OFFCURVE",
"357 -116 CURVE SMOOTH",
"364 -81 OFFCURVE",
"346 -54 OFFCURVE",
"310 -54 CURVE SMOOTH",
"274 -54 OFFCURVE",
"245 -81 OFFCURVE",
"239 -116 CURVE SMOOTH",
"231 -151 OFFCURVE",
"249 -178 OFFCURVE",
"285 -178 CURVE SMOOTH"
);
}
);
width = 780;
}
);
leftKerningGroup = O;
note = Ohorndotbelow;
rightKerningGroup = O;
unicode = 1EE2;
},
{
glyphname = Ohorngrave;
lastChange = "2015-11-29 16:07:47 +0000";
layers = (
{
layerId = "AD8C1534-DD1F-4D30-8D71-C3A36519B1B2";
name = "Bold Italic";
paths = (
{
closed = 1;
nodes = (
"535 -10 OFFCURVE",
"681 127 OFFCURVE",
"727 350 CURVE SMOOTH",
"772 572 OFFCURVE",
"682 710 OFFCURVE",
"465 710 CURVE SMOOTH",
"247 710 OFFCURVE",
"102 572 OFFCURVE",
"57 350 CURVE SMOOTH",
"11 127 OFFCURVE",
"100 -10 OFFCURVE",
"318 -10 CURVE SMOOTH"
);
},
{
closed = 1;
nodes = (
"203 42 OFFCURVE",
"173 171 OFFCURVE",
"210 350 CURVE SMOOTH",
"246 528 OFFCURVE",
"329 658 OFFCURVE",
"455 658 CURVE SMOOTH",
"580 658 OFFCURVE",
"611 528 OFFCURVE",
"575 350 CURVE SMOOTH",
"538 171 OFFCURVE",
"454 42 OFFCURVE",
"329 42 CURVE SMOOTH"
);
},
{
closed = 1;
nodes = (
"594 820 LINE",
"502 947 LINE",
"498 954 OFFCURVE",
"480 981 OFFCURVE",
"448 981 CURVE SMOOTH",
"414 981 OFFCURVE",
"396 958 OFFCURVE",
"392 939 CURVE SMOOTH",
"388 915 OFFCURVE",
"401 897 OFFCURVE",
"428 878 CURVE SMOOTH",
"563 785 LINE"
);
},
{
closed = 1;
nodes = (
"828 538 OFFCURVE",
"880 605 OFFCURVE",
"891 658 CURVE SMOOTH",
"897 688 OFFCURVE",
"902 741 OFFCURVE",
"832 741 CURVE SMOOTH",
"775 741 OFFCURVE",
"754 703 OFFCURVE",
"748 675 CURVE SMOOTH",
"740 636 OFFCURVE",
"758 612 OFFCURVE",
"794 612 CURVE SMOOTH",
"798 612 OFFCURVE",
"804 613 OFFCURVE",
"810 615 CURVE",
"789 566 OFFCURVE",
"719 519 OFFCURVE",
"694 503 CURVE",
"715 467 LINE"
);
}
);
width = 780;
}
);
leftKerningGroup = O;
note = Ohorngrave;
rightKerningGroup = O;
unicode = 1EDC;
},
{
glyphname = Ohornhookabove;
lastChange = "2015-11-29 16:07:49 +0000";
layers = (
{
layerId = "AD8C1534-DD1F-4D30-8D71-C3A36519B1B2";
name = "Bold Italic";
paths = (
{
closed = 1;
nodes = (
"535 -10 OFFCURVE",
"681 127 OFFCURVE",
"727 350 CURVE SMOOTH",
"772 572 OFFCURVE",
"682 710 OFFCURVE",
"465 710 CURVE SMOOTH",
"247 710 OFFCURVE",
"102 572 OFFCURVE",
"57 350 CURVE SMOOTH",
"11 127 OFFCURVE",
"100 -10 OFFCURVE",
"318 -10 CURVE SMOOTH"
);
},
{
closed = 1;
nodes = (
"203 42 OFFCURVE",
"173 171 OFFCURVE",
"210 350 CURVE SMOOTH",
"246 528 OFFCURVE",
"329 658 OFFCURVE",
"455 658 CURVE SMOOTH",
"580 658 OFFCURVE",
"611 528 OFFCURVE",
"575 350 CURVE SMOOTH",
"538 171 OFFCURVE",
"454 42 OFFCURVE",
"329 42 CURVE SMOOTH"
);
},
{
closed = 1;
nodes = (
"828 538 OFFCURVE",
"880 605 OFFCURVE",
"891 658 CURVE SMOOTH",
"897 688 OFFCURVE",
"902 741 OFFCURVE",
"832 741 CURVE SMOOTH",
"775 741 OFFCURVE",
"754 703 OFFCURVE",
"748 675 CURVE SMOOTH",
"740 636 OFFCURVE",
"758 612 OFFCURVE",
"794 612 CURVE SMOOTH",
"798 612 OFFCURVE",
"804 613 OFFCURVE",
"810 615 CURVE",
"789 566 OFFCURVE",
"719 519 OFFCURVE",
"694 503 CURVE",
"715 467 LINE"
);
},
{
closed = 1;
nodes = (
"506 780 LINE",
"530 849 LINE",
"582 854 OFFCURVE",
"627 875 OFFCURVE",
"638 935 CURVE SMOOTH",
"652 1001 OFFCURVE",
"599 1026 OFFCURVE",
"541 1026 CURVE SMOOTH",
"509 1026 OFFCURVE",
"477 1018 OFFCURVE",
"455 1008 CURVE",
"454 969 LINE",
"476 981 OFFCURVE",
"499 985 OFFCURVE",
"516 985 CURVE SMOOTH",
"556 985 OFFCURVE",
"571 962 OFFCURVE",
"566 936 CURVE SMOOTH",
"558 898 OFFCURVE",
"527 884 OFFCURVE",
"500 884 CURVE SMOOTH",
"463 884 LINE",
"446 780 LINE"
);
}
);
width = 780;
}
);
leftKerningGroup = O;
note = Ohornhookabove;
rightKerningGroup = O;
unicode = 1EDE;
},
{
glyphname = Ohorntilde;
lastChange = "2015-11-29 16:07:48 +0000";
layers = (
{
layerId = "AD8C1534-DD1F-4D30-8D71-C3A36519B1B2";
name = "Bold Italic";
paths = (
{
closed = 1;
nodes = (
"535 -10 OFFCURVE",
"681 127 OFFCURVE",
"727 350 CURVE SMOOTH",
"772 572 OFFCURVE",
"682 710 OFFCURVE",
"465 710 CURVE SMOOTH",
"247 710 OFFCURVE",
"102 572 OFFCURVE",
"57 350 CURVE SMOOTH",
"11 127 OFFCURVE",
"100 -10 OFFCURVE",
"318 -10 CURVE SMOOTH"
);
},
{
closed = 1;
nodes = (
"203 42 OFFCURVE",
"173 171 OFFCURVE",
"210 350 CURVE SMOOTH",
"246 528 OFFCURVE",
"329 658 OFFCURVE",
"455 658 CURVE SMOOTH",
"580 658 OFFCURVE",
"611 528 OFFCURVE",
"575 350 CURVE SMOOTH",
"538 171 OFFCURVE",
"454 42 OFFCURVE",
"329 42 CURVE SMOOTH"
);
},
{
closed = 1;
nodes = (
"353 786 LINE",
"364 818 OFFCURVE",
"389 839 OFFCURVE",
"418 839 CURVE SMOOTH",
"453 839 OFFCURVE",
"503 786 OFFCURVE",
"559 786 CURVE SMOOTH",
"633 786 OFFCURVE",
"677 834 OFFCURVE",
"699 905 CURVE",
"637 905 LINE",
"617 859 OFFCURVE",
"591 851 OFFCURVE",
"567 851 CURVE SMOOTH",
"528 851 OFFCURVE",
"499 903 OFFCURVE",
"430 903 CURVE SMOOTH",
"364 903 OFFCURVE",
"315 863 OFFCURVE",
"289 786 CURVE"
);
},
{
closed = 1;
nodes = (
"828 538 OFFCURVE",
"880 605 OFFCURVE",
"891 658 CURVE SMOOTH",
"897 688 OFFCURVE",
"902 741 OFFCURVE",
"832 741 CURVE SMOOTH",
"775 741 OFFCURVE",
"754 703 OFFCURVE",
"748 675 CURVE SMOOTH",
"740 636 OFFCURVE",
"758 612 OFFCURVE",
"794 612 CURVE SMOOTH",
"798 612 OFFCURVE",
"804 613 OFFCURVE",
"810 615 CURVE",
"789 566 OFFCURVE",
"719 519 OFFCURVE",
"694 503 CURVE",
"715 467 LINE"
);
}
);
width = 780;
}
);
leftKerningGroup = O;
note = Ohorntilde;
rightKerningGroup = O;
unicode = 1EE0;
},
{
glyphname = Ohungarumlaut;
lastChange = "2015-11-29 16:07:48 +0000";
layers = (
{
layerId = "AD8C1534-DD1F-4D30-8D71-C3A36519B1B2";
name = "Bold Italic";
paths = (
{
closed = 1;
nodes = (
"535 -10 OFFCURVE",
"681 127 OFFCURVE",
"727 350 CURVE SMOOTH",
"772 572 OFFCURVE",
"682 710 OFFCURVE",
"465 710 CURVE SMOOTH",
"247 710 OFFCURVE",
"102 572 OFFCURVE",
"57 350 CURVE SMOOTH",
"11 127 OFFCURVE",
"100 -10 OFFCURVE",
"318 -10 CURVE SMOOTH"
);
},
{
closed = 1;
nodes = (
"203 42 OFFCURVE",
"173 171 OFFCURVE",
"210 350 CURVE SMOOTH",
"246 528 OFFCURVE",
"329 658 OFFCURVE",
"455 658 CURVE SMOOTH",
"580 658 OFFCURVE",
"611 528 OFFCURVE",
"575 350 CURVE SMOOTH",
"538 171 OFFCURVE",
"454 42 OFFCURVE",
"329 42 CURVE SMOOTH"
);
},
{
closed = 1;
nodes = (
"504 877 LINE SMOOTH",
"538 896 OFFCURVE",
"559 915 OFFCURVE",
"564 939 CURVE SMOOTH",
"568 957 OFFCURVE",
"558 980 OFFCURVE",
"525 980 CURVE SMOOTH",
"493 980 OFFCURVE",
"463 952 OFFCURVE",
"458 946 CURVE",
"316 820 LINE",
"332 784 LINE"
);
},
{
closed = 1;
nodes = (
"714 877 LINE SMOOTH",
"748 896 OFFCURVE",
"770 915 OFFCURVE",
"774 939 CURVE SMOOTH",
"778 957 OFFCURVE",
"770 980 OFFCURVE",
"736 980 CURVE SMOOTH",
"704 980 OFFCURVE",
"675 952 OFFCURVE",
"668 946 CURVE SMOOTH",
"525 820 LINE",
"541 784 LINE"
);
}
);
width = 735;
}
);
leftKerningGroup = O;
note = Ohungarumlaut;
rightKerningGroup = O;
unicode = 0150;
},
{
glyphname = Omacron;
lastChange = "2015-11-29 16:07:48 +0000";
layers = (
{
layerId = "AD8C1534-DD1F-4D30-8D71-C3A36519B1B2";
name = "Bold Italic";
paths = (
{
closed = 1;
nodes = (
"535 -10 OFFCURVE",
"681 127 OFFCURVE",
"727 350 CURVE SMOOTH",
"772 572 OFFCURVE",
"682 710 OFFCURVE",
"465 710 CURVE SMOOTH",
"247 710 OFFCURVE",
"102 572 OFFCURVE",
"57 350 CURVE SMOOTH",
"11 127 OFFCURVE",
"100 -10 OFFCURVE",
"318 -10 CURVE SMOOTH"
);
},
{
closed = 1;
nodes = (
"203 42 OFFCURVE",
"173 171 OFFCURVE",
"210 350 CURVE SMOOTH",
"246 528 OFFCURVE",
"329 658 OFFCURVE",
"455 658 CURVE SMOOTH",
"580 658 OFFCURVE",
"611 528 OFFCURVE",
"575 350 CURVE SMOOTH",
"538 171 OFFCURVE",
"454 42 OFFCURVE",
"329 42 CURVE SMOOTH"
);
},
{
closed = 1;
nodes = (
"668 790 LINE",
"677 838 LINE",
"304 838 LINE",
"294 790 LINE"
);
}
);
width = 735;
}
);
leftKerningGroup = O;
note = Omacron;
rightKerningGroup = O;
unicode = 014C;
},
{
glyphname = Oslash;
lastChange = "2015-11-29 16:09:22 +0000";
layers = (
{
layerId = "AD8C1534-DD1F-4D30-8D71-C3A36519B1B2";
name = "Bold Italic";
paths = (
{
closed = 1;
nodes = (
"535 -10 OFFCURVE",
"681 127 OFFCURVE",
"727 350 CURVE SMOOTH",
"772 572 OFFCURVE",
"682 710 OFFCURVE",
"465 710 CURVE SMOOTH",
"247 710 OFFCURVE",
"102 572 OFFCURVE",
"57 350 CURVE SMOOTH",
"11 127 OFFCURVE",
"100 -10 OFFCURVE",
"318 -10 CURVE SMOOTH"
);
},
{
closed = 1;
nodes = (
"203 42 OFFCURVE",
"173 171 OFFCURVE",
"210 350 CURVE SMOOTH",
"246 528 OFFCURVE",
"329 658 OFFCURVE",
"455 658 CURVE SMOOTH",
"580 658 OFFCURVE",
"611 528 OFFCURVE",
"575 350 CURVE SMOOTH",
"538 171 OFFCURVE",
"454 42 OFFCURVE",
"329 42 CURVE SMOOTH"
);
},
{
closed = 1;
nodes = (
"756 692 LINE",
"721 725 LINE",
"8 -3 LINE",
"40 -36 LINE"
);
}
);
width = 735;
}
);
leftKerningGroup = O;
note = Oslash;
rightKerningGroup = O;
unicode = 00D8;
},
{
glyphname = Oslashacute;
lastChange = "2015-11-29 16:09:24 +0000";
layers = (
{
layerId = "AD8C1534-DD1F-4D30-8D71-C3A36519B1B2";
name = "Bold Italic";
paths = (
{
closed = 1;
nodes = (
"535 -10 OFFCURVE",
"681 127 OFFCURVE",
"727 350 CURVE SMOOTH",
"772 572 OFFCURVE",
"682 710 OFFCURVE",
"465 710 CURVE SMOOTH",
"247 710 OFFCURVE",
"102 572 OFFCURVE",
"57 350 CURVE SMOOTH",
"11 127 OFFCURVE",
"100 -10 OFFCURVE",
"318 -10 CURVE SMOOTH"
);
},
{
closed = 1;
nodes = (
"203 42 OFFCURVE",
"173 171 OFFCURVE",
"210 350 CURVE SMOOTH",
"246 528 OFFCURVE",
"329 658 OFFCURVE",
"455 658 CURVE SMOOTH",
"580 658 OFFCURVE",
"611 528 OFFCURVE",
"575 350 CURVE SMOOTH",
"538 171 OFFCURVE",
"454 42 OFFCURVE",
"329 42 CURVE SMOOTH"
);
},
{
closed = 1;
nodes = (
"576 879 LINE SMOOTH",
"610 898 OFFCURVE",
"630 916 OFFCURVE",
"635 940 CURVE SMOOTH",
"639 959 OFFCURVE",
"629 982 OFFCURVE",
"598 982 CURVE SMOOTH",
"565 982 OFFCURVE",
"536 954 OFFCURVE",
"530 947 CURVE",
"387 821 LINE",
"404 786 LINE"
);
},
{
closed = 1;
nodes = (
"756 692 LINE",
"721 725 LINE",
"8 -3 LINE",
"40 -36 LINE"
);
}
);
width = 735;
}
);
leftKerningGroup = O;
note = Oslashacute;
rightKerningGroup = O;
unicode = 01FE;
},
{
glyphname = Otilde;
lastChange = "2015-11-29 16:07:48 +0000";
layers = (
{
layerId = "AD8C1534-DD1F-4D30-8D71-C3A36519B1B2";
name = "Bold Italic";
paths = (
{
closed = 1;
nodes = (
"535 -10 OFFCURVE",
"681 127 OFFCURVE",
"727 350 CURVE SMOOTH",
"772 572 OFFCURVE",
"682 710 OFFCURVE",
"465 710 CURVE SMOOTH",
"247 710 OFFCURVE",
"102 572 OFFCURVE",
"57 350 CURVE SMOOTH",
"11 127 OFFCURVE",
"100 -10 OFFCURVE",
"318 -10 CURVE SMOOTH"
);
},
{
closed = 1;
nodes = (
"203 42 OFFCURVE",
"173 171 OFFCURVE",
"210 350 CURVE SMOOTH",
"246 528 OFFCURVE",
"329 658 OFFCURVE",
"455 658 CURVE SMOOTH",
"580 658 OFFCURVE",
"611 528 OFFCURVE",
"575 350 CURVE SMOOTH",
"538 171 OFFCURVE",
"454 42 OFFCURVE",
"329 42 CURVE SMOOTH"
);
},
{
closed = 1;
nodes = (
"352 786 LINE",
"364 818 OFFCURVE",
"388 839 OFFCURVE",
"417 839 CURVE SMOOTH",
"452 839 OFFCURVE",
"502 786 OFFCURVE",
"558 786 CURVE SMOOTH",
"632 786 OFFCURVE",
"676 834 OFFCURVE",
"698 905 CURVE",
"636 905 LINE",
"616 859 OFFCURVE",
"590 851 OFFCURVE",
"566 851 CURVE SMOOTH",
"527 851 OFFCURVE",
"498 903 OFFCURVE",
"429 903 CURVE SMOOTH",
"364 903 OFFCURVE",
"314 863 OFFCURVE",
"288 786 CURVE"
);
}
);
width = 735;
}
);
leftKerningGroup = O;
note = Otilde;
rightKerningGroup = O;
unicode = 00D5;
},
{
glyphname = OE;
lastChange = "2015-11-29 16:07:48 +0000";
layers = (
{
layerId = "AD8C1534-DD1F-4D30-8D71-C3A36519B1B2";
name = "Bold Italic";
paths = (
{
closed = 1;
nodes = (
"365 -10 OFFCURVE",
"418 7 OFFCURVE",
"472 53 CURVE",
"461 0 LINE",
"928 0 LINE",
"981 175 LINE",
"948 175 LINE",
"927 154 OFFCURVE",
"885 85 OFFCURVE",
"874 49 CURVE",
"622 49 LINE",
"679 334 LINE",
"845 334 LINE",
"844 317 OFFCURVE",
"844 278 OFFCURVE",
"847 248 CURVE",
"871 248 LINE",
"916 470 LINE",
"892 470 LINE",
"876 442 OFFCURVE",
"862 402 OFFCURVE",
"856 384 CURVE",
"690 384 LINE",
"745 650 LINE",
"991 650 LINE",
"987 619 OFFCURVE",
"994 546 OFFCURVE",
"1003 523 CURVE",
"1036 523 LINE",
"1071 700 LINE",
"604 700 LINE",
"592 643 LINE",
"564 685 OFFCURVE",
"512 710 OFFCURVE",
"439 710 CURVE SMOOTH",
"220 710 OFFCURVE",
"95 533 OFFCURVE",
"57 350 CURVE SMOOTH",
"20 166 OFFCURVE",
"74 -10 OFFCURVE",
"292 -10 CURVE SMOOTH"
);
},
{
closed = 1;
nodes = (
"204 42 OFFCURVE",
"174 171 OFFCURVE",
"211 350 CURVE SMOOTH",
"247 528 OFFCURVE",
"330 658 OFFCURVE",
"455 658 CURVE SMOOTH",
"518 658 OFFCURVE",
"561 616 OFFCURVE",
"577 567 CURVE",
"487 131 LINE",
"447 78 OFFCURVE",
"392 42 OFFCURVE",
"329 42 CURVE SMOOTH"
);
}
);
width = 1030;
}
);
note = OE;
unicode = 0152;
},
{
glyphname = P;
lastChange = "2015-11-29 16:07:47 +0000";
layers = (
{
layerId = "AD8C1534-DD1F-4D30-8D71-C3A36519B1B2";
name = "Bold Italic";
paths = (
{
closed = 1;
nodes = (
"281 0 LINE",
"284 18 LINE",
"260 26 OFFCURVE",
"233 35 OFFCURVE",
"211 39 CURVE",
"258 271 LINE",
"386 271 LINE SMOOTH",
"536 271 OFFCURVE",
"628 374 OFFCURVE",
"653 494 CURVE SMOOTH",
"677 613 OFFCURVE",
"638 700 OFFCURVE",
"456 700 CURVE SMOOTH",
"120 700 LINE",
"116 681 LINE",
"141 672 OFFCURVE",
"165 665 OFFCURVE",
"187 660 CURVE",
"60 40 LINE",
"53 39 OFFCURVE",
"6 28 OFFCURVE",
"-20 20 CURVE",
"-24 0 LINE"
);
},
{
closed = 1;
nodes = (
"336 650 LINE",
"424 650 LINE SMOOTH",
"502 650 OFFCURVE",
"524 591 OFFCURVE",
"505 496 CURVE SMOOTH",
"485 402 OFFCURVE",
"438 320 OFFCURVE",
"357 320 CURVE SMOOTH",
"268 320 LINE"
);
}
);
width = 619;
}
);
note = P;
unicode = 0050;
},
{
glyphname = Thorn;
lastChange = "2015-11-29 16:07:48 +0000";
layers = (
{
layerId = "AD8C1534-DD1F-4D30-8D71-C3A36519B1B2";
name = "Bold Italic";
paths = (
{
closed = 1;
nodes = (
"281 0 LINE",
"284 18 LINE",
"260 26 OFFCURVE",
"233 35 OFFCURVE",
"211 39 CURVE",
"233 148 LINE",
"362 148 LINE SMOOTH",
"511 148 OFFCURVE",
"604 251 OFFCURVE",
"628 371 CURVE SMOOTH",
"651 484 OFFCURVE",
"616 576 OFFCURVE",
"446 576 CURVE SMOOTH",
"320 576 LINE",
"345 700 LINE",
"120 700 LINE",
"116 681 LINE",
"141 672 OFFCURVE",
"165 665 OFFCURVE",
"187 660 CURVE",
"60 40 LINE",
"53 39 OFFCURVE",
"7 28 OFFCURVE",
"-20 20 CURVE",
"-24 0 LINE"
);
},
{
closed = 1;
nodes = (
"311 527 LINE",
"399 527 LINE SMOOTH",
"478 527 OFFCURVE",
"499 468 OFFCURVE",
"480 373 CURVE SMOOTH",
"460 279 OFFCURVE",
"412 197 OFFCURVE",
"331 197 CURVE SMOOTH",
"243 197 LINE"
);
}
);
width = 618;
}
);
note = Thorn;
unicode = 00DE;
},
{
glyphname = Q;
lastChange = "2015-11-29 16:10:04 +0000";
layers = (
{
layerId = "AD8C1534-DD1F-4D30-8D71-C3A36519B1B2";
name = "Bold Italic";
paths = (
{
closed = 1;
nodes = (
"535 -10 OFFCURVE",
"681 127 OFFCURVE",
"727 350 CURVE SMOOTH",
"772 572 OFFCURVE",
"682 710 OFFCURVE",
"465 710 CURVE SMOOTH",
"247 710 OFFCURVE",
"102 572 OFFCURVE",
"57 350 CURVE SMOOTH",
"11 127 OFFCURVE",
"100 -10 OFFCURVE",
"318 -10 CURVE SMOOTH"
);
},
{
closed = 1;
nodes = (
"204 42 OFFCURVE",
"173 171 OFFCURVE",
"210 350 CURVE SMOOTH",
"246 528 OFFCURVE",
"330 658 OFFCURVE",
"455 658 CURVE SMOOTH",
"580 658 OFFCURVE",
"611 528 OFFCURVE",
"575 350 CURVE SMOOTH",
"538 171 OFFCURVE",
"454 42 OFFCURVE",
"329 42 CURVE SMOOTH"
);
},
{
closed = 1;
nodes = (
"544 -112 LINE",
"448 -104 OFFCURVE",
"398 -52 OFFCURVE",
"407 24 CURVE",
"260 24 LINE",
"252 -74 OFFCURVE",
"340 -142 OFFCURVE",
"534 -159 CURVE"
);
}
);
width = 735;
}
);
leftKerningGroup = O;
note = Q;
rightKerningGroup = O;
unicode = 0051;
},
{
glyphname = R;
lastChange = "2015-11-29 16:10:08 +0000";
layers = (
{
layerId = "AD8C1534-DD1F-4D30-8D71-C3A36519B1B2";
name = "Bold Italic";
paths = (
{
closed = 1;
nodes = (
"288 0 LINE",
"291 18 LINE",
"267 26 OFFCURVE",
"240 35 OFFCURVE",
"219 39 CURVE",
"271 299 LINE",
"411 299 LINE SMOOTH",
"544 299 OFFCURVE",
"644 378 OFFCURVE",
"670 504 CURVE SMOOTH",
"693 617 OFFCURVE",
"661 700 OFFCURVE",
"491 700 CURVE SMOOTH",
"126 700 LINE",
"123 681 LINE",
"148 672 OFFCURVE",
"172 665 OFFCURVE",
"195 660 CURVE",
"68 40 LINE",
"60 39 OFFCURVE",
"14 28 OFFCURVE",
"-14 20 CURVE",
"-18 0 LINE"
);
},
{
closed = 1;
nodes = (
"343 650 LINE",
"431 650 LINE SMOOTH",
"514 650 OFFCURVE",
"540 601 OFFCURVE",
"521 506 CURVE SMOOTH",
"502 412 OFFCURVE",
"456 348 OFFCURVE",
"368 348 CURVE SMOOTH",
"281 348 LINE"
);
},
{
closed = 1;
nodes = (
"628 0 LINE",
"631 18 LINE",
"608 28 OFFCURVE",
"583 34 OFFCURVE",
"562 39 CURVE",
"474 315 LINE",
"343 315 LINE",
"434 0 LINE"
);
}
);
width = 692;
}
);
note = R;
rightKerningGroup = R;
unicode = 0052;
},
{
glyphname = Racute;
lastChange = "2015-11-29 16:10:13 +0000";
layers = (
{
layerId = "AD8C1534-DD1F-4D30-8D71-C3A36519B1B2";
name = "Bold Italic";
paths = (
{
closed = 1;
nodes = (
"288 0 LINE",
"291 18 LINE",
"267 26 OFFCURVE",
"240 35 OFFCURVE",
"219 39 CURVE",
"271 299 LINE",
"411 299 LINE SMOOTH",
"544 299 OFFCURVE",
"644 378 OFFCURVE",
"670 504 CURVE SMOOTH",
"693 617 OFFCURVE",
"661 700 OFFCURVE",
"491 700 CURVE SMOOTH",
"126 700 LINE",
"123 681 LINE",
"148 672 OFFCURVE",
"172 665 OFFCURVE",
"195 660 CURVE",
"68 40 LINE",
"60 39 OFFCURVE",
"14 28 OFFCURVE",
"-14 20 CURVE",
"-18 0 LINE"
);
},
{
closed = 1;
nodes = (
"343 650 LINE",
"431 650 LINE SMOOTH",
"514 650 OFFCURVE",
"540 601 OFFCURVE",
"521 506 CURVE SMOOTH",
"502 412 OFFCURVE",
"456 348 OFFCURVE",
"368 348 CURVE SMOOTH",
"281 348 LINE"
);
},
{
closed = 1;
nodes = (
"628 0 LINE",
"631 18 LINE",
"608 28 OFFCURVE",
"583 34 OFFCURVE",
"562 39 CURVE",
"474 315 LINE",
"343 315 LINE",
"434 0 LINE"
);
},
{
closed = 1;
nodes = (
"546 879 LINE SMOOTH",
"580 898 OFFCURVE",
"601 916 OFFCURVE",
"605 940 CURVE SMOOTH",
"609 959 OFFCURVE",
"600 982 OFFCURVE",
"568 982 CURVE SMOOTH",
"535 982 OFFCURVE",
"507 954 OFFCURVE",
"500 947 CURVE",
"357 821 LINE",
"374 786 LINE"
);
}
);
width = 692;
}
);
note = Racute;
rightKerningGroup = R;
unicode = 0154;
},
{
glyphname = Rcaron;
lastChange = "2015-11-29 16:10:17 +0000";
layers = (
{
layerId = "AD8C1534-DD1F-4D30-8D71-C3A36519B1B2";
name = "Bold Italic";
paths = (
{
closed = 1;
nodes = (
"288 0 LINE",
"291 18 LINE",
"267 26 OFFCURVE",
"240 35 OFFCURVE",
"219 39 CURVE",
"271 299 LINE",
"411 299 LINE SMOOTH",
"544 299 OFFCURVE",
"644 378 OFFCURVE",
"670 504 CURVE SMOOTH",
"693 617 OFFCURVE",
"661 700 OFFCURVE",
"491 700 CURVE SMOOTH",
"126 700 LINE",
"123 681 LINE",
"148 672 OFFCURVE",
"172 665 OFFCURVE",
"195 660 CURVE",
"68 40 LINE",
"60 39 OFFCURVE",
"14 28 OFFCURVE",
"-14 20 CURVE",
"-18 0 LINE"
);
},
{
closed = 1;
nodes = (
"343 650 LINE",
"431 650 LINE SMOOTH",
"514 650 OFFCURVE",
"540 601 OFFCURVE",
"521 506 CURVE SMOOTH",
"502 412 OFFCURVE",
"456 348 OFFCURVE",
"368 348 CURVE SMOOTH",
"281 348 LINE"
);
},
{
closed = 1;
nodes = (
"628 0 LINE",
"631 18 LINE",
"608 28 OFFCURVE",
"583 34 OFFCURVE",
"562 39 CURVE",
"474 315 LINE",
"343 315 LINE",
"434 0 LINE"
);
},
{
closed = 1;
nodes = (
"432 786 OFFCURVE",
"484 786 OFFCURVE",
"492 786 CURVE",
"522 822 OFFCURVE",
"622 900 OFFCURVE",
"670 929 CURVE",
"620 974 LINE",
"573 942 OFFCURVE",
"502 882 OFFCURVE",
"471 846 CURVE",
"470 846 OFFCURVE",
"468 846 OFFCURVE",
"467 846 CURVE",
"453 882 OFFCURVE",
"406 942 OFFCURVE",
"373 974 CURVE",
"304 929 LINE",
"340 900 OFFCURVE",
"407 822 OFFCURVE",
"423 786 CURVE"
);
}
);
width = 692;
}
);
note = Rcaron;
rightKerningGroup = R;
unicode = 0158;
},
{
glyphname = Rcommaaccent;
lastChange = "2015-11-29 16:10:21 +0000";
layers = (
{
layerId = "AD8C1534-DD1F-4D30-8D71-C3A36519B1B2";
name = "Bold Italic";
paths = (
{
closed = 1;
nodes = (
"288 0 LINE",
"291 18 LINE",
"267 26 OFFCURVE",
"240 35 OFFCURVE",
"219 39 CURVE",
"271 299 LINE",
"411 299 LINE SMOOTH",
"544 299 OFFCURVE",
"644 378 OFFCURVE",
"670 504 CURVE SMOOTH",
"693 617 OFFCURVE",
"661 700 OFFCURVE",
"491 700 CURVE SMOOTH",
"126 700 LINE",
"123 681 LINE",
"148 672 OFFCURVE",
"172 665 OFFCURVE",
"195 660 CURVE",
"68 40 LINE",
"60 39 OFFCURVE",
"14 28 OFFCURVE",
"-14 20 CURVE",
"-18 0 LINE"
);
},
{
closed = 1;
nodes = (
"343 650 LINE",
"431 650 LINE SMOOTH",
"514 650 OFFCURVE",
"540 601 OFFCURVE",
"521 506 CURVE SMOOTH",
"502 412 OFFCURVE",
"456 348 OFFCURVE",
"368 348 CURVE SMOOTH",
"281 348 LINE"
);
},
{
closed = 1;
nodes = (
"286 -319 OFFCURVE",
"344 -235 OFFCURVE",
"360 -159 CURVE SMOOTH",
"368 -117 OFFCURVE",
"352 -81 OFFCURVE",
"300 -81 CURVE SMOOTH",
"263 -81 OFFCURVE",
"224 -106 OFFCURVE",
"216 -148 CURVE SMOOTH",
"208 -188 OFFCURVE",
"232 -215 OFFCURVE",
"270 -217 CURVE",
"255 -261 OFFCURVE",
"212 -306 OFFCURVE",
"183 -332 CURVE",
"221 -368 LINE"
);
},
{
closed = 1;
nodes = (
"628 0 LINE",
"631 18 LINE",
"608 28 OFFCURVE",
"583 34 OFFCURVE",
"562 39 CURVE",
"474 315 LINE",
"343 315 LINE",
"434 0 LINE"
);
}
);
width = 692;
}
);
note = Rcommaaccent;
rightKerningGroup = R;
unicode = 0156;
},
{
glyphname = Rdotbelow;
lastChange = "2015-11-29 16:10:25 +0000";
layers = (
{
layerId = "AD8C1534-DD1F-4D30-8D71-C3A36519B1B2";
name = "Bold Italic";
paths = (
{
closed = 1;
nodes = (
"288 0 LINE",
"291 18 LINE",
"267 26 OFFCURVE",
"240 35 OFFCURVE",
"219 39 CURVE",
"271 299 LINE",
"411 299 LINE SMOOTH",
"544 299 OFFCURVE",
"644 378 OFFCURVE",
"670 504 CURVE SMOOTH",
"693 617 OFFCURVE",
"661 700 OFFCURVE",
"491 700 CURVE SMOOTH",
"126 700 LINE",
"123 681 LINE",
"148 672 OFFCURVE",
"172 665 OFFCURVE",
"195 660 CURVE",
"68 40 LINE",
"60 39 OFFCURVE",
"14 28 OFFCURVE",
"-14 20 CURVE",
"-18 0 LINE"
);
},
{
closed = 1;
nodes = (
"343 650 LINE",
"431 650 LINE SMOOTH",
"514 650 OFFCURVE",
"540 601 OFFCURVE",
"521 506 CURVE SMOOTH",
"502 412 OFFCURVE",
"456 348 OFFCURVE",
"368 348 CURVE SMOOTH",
"281 348 LINE"
);
},
{
closed = 1;
nodes = (
"304 -178 OFFCURVE",
"332 -151 OFFCURVE",
"340 -116 CURVE SMOOTH",
"346 -81 OFFCURVE",
"329 -54 OFFCURVE",
"292 -54 CURVE SMOOTH",
"257 -54 OFFCURVE",
"228 -81 OFFCURVE",
"221 -116 CURVE SMOOTH",
"214 -151 OFFCURVE",
"232 -178 OFFCURVE",
"268 -178 CURVE SMOOTH"
);
},
{
closed = 1;
nodes = (
"628 0 LINE",
"631 18 LINE",
"608 28 OFFCURVE",
"583 34 OFFCURVE",
"562 39 CURVE",
"474 315 LINE",
"343 315 LINE",
"434 0 LINE"
);
}
);
width = 692;
}
);
note = Rdotbelow;
rightKerningGroup = R;
unicode = 1E5A;
},
{
glyphname = Rdotbelowmacron;
lastChange = "2015-11-29 16:10:49 +0000";
layers = (
{
layerId = "AD8C1534-DD1F-4D30-8D71-C3A36519B1B2";
name = "Bold Italic";
paths = (
{
closed = 1;
nodes = (
"288 0 LINE",
"291 18 LINE",
"267 26 OFFCURVE",
"240 35 OFFCURVE",
"219 39 CURVE",
"271 299 LINE",
"411 299 LINE SMOOTH",
"544 299 OFFCURVE",
"644 378 OFFCURVE",
"670 504 CURVE SMOOTH",
"693 617 OFFCURVE",
"661 700 OFFCURVE",
"491 700 CURVE SMOOTH",
"126 700 LINE",
"123 681 LINE",
"148 672 OFFCURVE",
"172 665 OFFCURVE",
"195 660 CURVE",
"68 40 LINE",
"60 39 OFFCURVE",
"14 28 OFFCURVE",
"-14 20 CURVE",
"-18 0 LINE"
);
},
{
closed = 1;
nodes = (
"343 650 LINE",
"431 650 LINE SMOOTH",
"514 650 OFFCURVE",
"540 601 OFFCURVE",
"521 506 CURVE SMOOTH",
"502 412 OFFCURVE",
"456 348 OFFCURVE",
"368 348 CURVE SMOOTH",
"281 348 LINE"
);
},
{
closed = 1;
nodes = (
"304 -178 OFFCURVE",
"332 -151 OFFCURVE",
"340 -116 CURVE SMOOTH",
"346 -81 OFFCURVE",
"329 -54 OFFCURVE",
"292 -54 CURVE SMOOTH",
"256 -54 OFFCURVE",
"228 -81 OFFCURVE",
"221 -116 CURVE SMOOTH",
"214 -151 OFFCURVE",
"231 -178 OFFCURVE",
"268 -178 CURVE SMOOTH"
);
},
{
closed = 1;
nodes = (
"628 0 LINE",
"631 18 LINE",
"608 28 OFFCURVE",
"583 34 OFFCURVE",
"562 39 CURVE",
"474 315 LINE",
"343 315 LINE",
"434 0 LINE"
);
},
{
closed = 1;
nodes = (
"627 785 LINE",
"637 834 LINE",
"227 834 LINE",
"217 785 LINE"
);
}
);
width = 692;
}
);
note = Rdotbelowmacron;
rightKerningGroup = R;
unicode = 1E5C;
},
{
glyphname = Rlinebelow;
lastChange = "2015-11-29 16:10:52 +0000";
layers = (
{
layerId = "AD8C1534-DD1F-4D30-8D71-C3A36519B1B2";
name = "Bold Italic";
paths = (
{
closed = 1;
nodes = (
"288 0 LINE",
"291 18 LINE",
"267 26 OFFCURVE",
"240 35 OFFCURVE",
"219 39 CURVE",
"271 299 LINE",
"411 299 LINE SMOOTH",
"544 299 OFFCURVE",
"644 378 OFFCURVE",
"670 504 CURVE SMOOTH",
"693 617 OFFCURVE",
"661 700 OFFCURVE",
"491 700 CURVE SMOOTH",
"126 700 LINE",
"123 681 LINE",
"148 672 OFFCURVE",
"172 665 OFFCURVE",
"195 660 CURVE",
"68 40 LINE",
"60 39 OFFCURVE",
"14 28 OFFCURVE",
"-14 20 CURVE",
"-18 0 LINE"
);
},
{
closed = 1;
nodes = (
"343 650 LINE",
"431 650 LINE SMOOTH",
"514 650 OFFCURVE",
"540 601 OFFCURVE",
"521 506 CURVE SMOOTH",
"502 412 OFFCURVE",
"456 348 OFFCURVE",
"368 348 CURVE SMOOTH",
"281 348 LINE"
);
},
{
closed = 1;
nodes = (
"444 -109 LINE",
"455 -61 LINE",
"81 -61 LINE",
"71 -109 LINE"
);
},
{
closed = 1;
nodes = (
"628 0 LINE",
"631 18 LINE",
"608 28 OFFCURVE",
"583 34 OFFCURVE",
"562 39 CURVE",
"474 315 LINE",
"343 315 LINE",
"434 0 LINE"
);
}
);
width = 692;
}
);
note = Rlinebelow;
rightKerningGroup = R;
unicode = 1E5E;
},
{
glyphname = S;
lastChange = "2015-11-29 16:07:49 +0000";
layers = (
{
layerId = "AD8C1534-DD1F-4D30-8D71-C3A36519B1B2";
name = "Bold Italic";
paths = (
{
closed = 1;
nodes = (
"378 -10 OFFCURVE",
"509 63 OFFCURVE",
"536 195 CURVE SMOOTH",
"591 462 OFFCURVE",
"232 411 OFFCURVE",
"261 555 CURVE SMOOTH",
"276 628 OFFCURVE",
"338 658 OFFCURVE",
"414 658 CURVE SMOOTH",
"462 658 OFFCURVE",
"506 645 OFFCURVE",
"528 621 CURVE",
"523 575 OFFCURVE",
"522 535 OFFCURVE",
"526 500 CURVE",
"561 500 LINE",
"603 637 LINE",
"561 688 OFFCURVE",
"496 710 OFFCURVE",
"393 710 CURVE SMOOTH",
"243 710 OFFCURVE",
"127 651 OFFCURVE",
"102 530 CURVE SMOOTH",
"52 281 OFFCURVE",
"415 356 OFFCURVE",
"378 174 CURVE SMOOTH",
"360 83 OFFCURVE",
"278 42 OFFCURVE",
"200 42 CURVE SMOOTH",
"145 42 OFFCURVE",
"99 65 OFFCURVE",
"75 98 CURVE",
"80 143 OFFCURVE",
"86 196 OFFCURVE",
"82 231 CURVE",
"48 231 LINE",
"4 85 LINE",
"35 29 OFFCURVE",
"121 -10 OFFCURVE",
"229 -10 CURVE SMOOTH"
);
}
);
width = 577;
}
);
leftKerningGroup = S;
note = S;
rightKerningGroup = S;
unicode = 0053;
},
{
glyphname = Sacute;
lastChange = "2015-11-29 16:07:47 +0000";
layers = (
{
layerId = "AD8C1534-DD1F-4D30-8D71-C3A36519B1B2";
name = "Bold Italic";
paths = (
{
closed = 1;
nodes = (
"378 -10 OFFCURVE",
"509 63 OFFCURVE",
"536 195 CURVE SMOOTH",
"591 462 OFFCURVE",
"232 411 OFFCURVE",
"261 555 CURVE SMOOTH",
"276 628 OFFCURVE",
"338 658 OFFCURVE",
"414 658 CURVE SMOOTH",
"462 658 OFFCURVE",
"506 645 OFFCURVE",
"528 621 CURVE",
"523 575 OFFCURVE",
"522 535 OFFCURVE",
"526 500 CURVE",
"561 500 LINE",
"603 637 LINE",
"561 688 OFFCURVE",
"496 710 OFFCURVE",
"393 710 CURVE SMOOTH",
"243 710 OFFCURVE",
"127 651 OFFCURVE",
"102 530 CURVE SMOOTH",
"52 281 OFFCURVE",
"415 356 OFFCURVE",
"378 174 CURVE SMOOTH",
"360 83 OFFCURVE",
"278 42 OFFCURVE",
"200 42 CURVE SMOOTH",
"145 42 OFFCURVE",
"99 65 OFFCURVE",
"75 98 CURVE",
"80 143 OFFCURVE",
"86 196 OFFCURVE",
"82 231 CURVE",
"48 231 LINE",
"4 85 LINE",
"35 29 OFFCURVE",
"121 -10 OFFCURVE",
"229 -10 CURVE SMOOTH"
);
},
{
closed = 1;
nodes = (
"493 879 LINE SMOOTH",
"528 898 OFFCURVE",
"548 916 OFFCURVE",
"553 940 CURVE SMOOTH",
"556 959 OFFCURVE",
"547 982 OFFCURVE",
"515 982 CURVE SMOOTH",
"483 982 OFFCURVE",
"454 954 OFFCURVE",
"447 947 CURVE",
"304 821 LINE",
"321 786 LINE"
);
}
);
width = 577;
}
);
leftKerningGroup = S;
note = Sacute;
rightKerningGroup = S;
unicode = 015A;
},
{
glyphname = Scaron;
lastChange = "2015-11-29 16:07:48 +0000";
layers = (
{
layerId = "AD8C1534-DD1F-4D30-8D71-C3A36519B1B2";
name = "Bold Italic";
paths = (
{
closed = 1;
nodes = (
"378 -10 OFFCURVE",
"509 63 OFFCURVE",
"536 195 CURVE SMOOTH",
"591 462 OFFCURVE",
"232 411 OFFCURVE",
"261 555 CURVE SMOOTH",
"276 628 OFFCURVE",
"338 658 OFFCURVE",
"414 658 CURVE SMOOTH",
"462 658 OFFCURVE",
"506 645 OFFCURVE",
"528 621 CURVE",
"523 575 OFFCURVE",
"522 535 OFFCURVE",
"526 500 CURVE",
"561 500 LINE",
"603 637 LINE",
"561 688 OFFCURVE",
"496 710 OFFCURVE",
"393 710 CURVE SMOOTH",
"243 710 OFFCURVE",
"127 651 OFFCURVE",
"102 530 CURVE SMOOTH",
"52 281 OFFCURVE",
"415 356 OFFCURVE",
"378 174 CURVE SMOOTH",
"360 83 OFFCURVE",
"278 42 OFFCURVE",
"200 42 CURVE SMOOTH",
"145 42 OFFCURVE",
"99 65 OFFCURVE",
"75 98 CURVE",
"80 143 OFFCURVE",
"86 196 OFFCURVE",
"82 231 CURVE",
"48 231 LINE",
"4 85 LINE",
"35 29 OFFCURVE",
"121 -10 OFFCURVE",
"229 -10 CURVE SMOOTH"
);
},
{
closed = 1;
nodes = (
"374 786 OFFCURVE",
"426 786 OFFCURVE",
"435 786 CURVE",
"464 822 OFFCURVE",
"564 900 OFFCURVE",
"612 929 CURVE",
"562 974 LINE",
"515 942 OFFCURVE",
"444 882 OFFCURVE",
"413 846 CURVE",
"412 846 OFFCURVE",
"411 846 OFFCURVE",
"410 846 CURVE",
"395 882 OFFCURVE",
"348 942 OFFCURVE",
"316 974 CURVE",
"246 929 LINE",
"283 900 OFFCURVE",
"349 822 OFFCURVE",
"365 786 CURVE"
);
}
);
width = 577;
}
);
leftKerningGroup = S;
note = Scaron;
rightKerningGroup = S;
unicode = 0160;
},
{
glyphname = Scedilla;
lastChange = "2015-11-29 16:07:49 +0000";
layers = (
{
layerId = "AD8C1534-DD1F-4D30-8D71-C3A36519B1B2";
name = "Bold Italic";
paths = (
{
closed = 1;
nodes = (
"378 -10 OFFCURVE",
"509 63 OFFCURVE",
"536 195 CURVE SMOOTH",
"591 462 OFFCURVE",
"232 411 OFFCURVE",
"261 555 CURVE SMOOTH",
"276 628 OFFCURVE",
"338 658 OFFCURVE",
"414 658 CURVE SMOOTH",
"462 658 OFFCURVE",
"506 645 OFFCURVE",
"528 621 CURVE",
"523 575 OFFCURVE",
"522 535 OFFCURVE",
"526 500 CURVE",
"561 500 LINE",
"603 637 LINE",
"561 688 OFFCURVE",
"496 710 OFFCURVE",
"393 710 CURVE SMOOTH",
"243 710 OFFCURVE",
"127 651 OFFCURVE",
"102 530 CURVE SMOOTH",
"52 281 OFFCURVE",
"415 356 OFFCURVE",
"378 174 CURVE SMOOTH",
"360 83 OFFCURVE",
"278 42 OFFCURVE",
"200 42 CURVE SMOOTH",
"145 42 OFFCURVE",
"99 65 OFFCURVE",
"75 98 CURVE",
"80 143 OFFCURVE",
"86 196 OFFCURVE",
"82 231 CURVE",
"48 231 LINE",
"4 85 LINE",
"35 29 OFFCURVE",
"121 -10 OFFCURVE",
"229 -10 CURVE SMOOTH"
);
},
{
closed = 1;
nodes = (
"251 -252 OFFCURVE",
"322 -216 OFFCURVE",
"337 -145 CURVE SMOOTH",
"345 -102 OFFCURVE",
"319 -60 OFFCURVE",
"239 -60 CURVE",
"295 24 LINE",
"232 24 LINE",
"168 -70 LINE",
"185 -104 LINE",
"193 -103 OFFCURVE",
"200 -102 OFFCURVE",
"208 -102 CURVE SMOOTH",
"237 -102 OFFCURVE",
"270 -111 OFFCURVE",
"264 -145 CURVE SMOOTH",
"255 -187 OFFCURVE",
"217 -200 OFFCURVE",
"174 -200 CURVE SMOOTH",
"148 -200 OFFCURVE",
"120 -193 OFFCURVE",
"103 -182 CURVE",
"73 -221 LINE",
"97 -241 OFFCURVE",
"139 -252 OFFCURVE",
"175 -252 CURVE SMOOTH"
);
}
);
width = 577;
}
);
leftKerningGroup = S;
note = Scedilla;
rightKerningGroup = S;
unicode = 015E;
},
{
glyphname = Scircumflex;
lastChange = "2015-11-29 16:07:49 +0000";
layers = (
{
layerId = "AD8C1534-DD1F-4D30-8D71-C3A36519B1B2";
name = "Bold Italic";
paths = (
{
closed = 1;
nodes = (
"378 -10 OFFCURVE",
"509 63 OFFCURVE",
"536 195 CURVE SMOOTH",
"591 462 OFFCURVE",
"232 411 OFFCURVE",
"261 555 CURVE SMOOTH",
"276 628 OFFCURVE",
"338 658 OFFCURVE",
"414 658 CURVE SMOOTH",
"462 658 OFFCURVE",
"506 645 OFFCURVE",
"528 621 CURVE",
"523 575 OFFCURVE",
"522 535 OFFCURVE",
"526 500 CURVE",
"561 500 LINE",
"603 637 LINE",
"561 688 OFFCURVE",
"496 710 OFFCURVE",
"393 710 CURVE SMOOTH",
"243 710 OFFCURVE",
"127 651 OFFCURVE",
"102 530 CURVE SMOOTH",
"52 281 OFFCURVE",
"415 356 OFFCURVE",
"378 174 CURVE SMOOTH",
"360 83 OFFCURVE",
"278 42 OFFCURVE",
"200 42 CURVE SMOOTH",
"145 42 OFFCURVE",
"99 65 OFFCURVE",
"75 98 CURVE",
"80 143 OFFCURVE",
"86 196 OFFCURVE",
"82 231 CURVE",
"48 231 LINE",
"4 85 LINE",
"35 29 OFFCURVE",
"121 -10 OFFCURVE",
"229 -10 CURVE SMOOTH"
);
},
{
closed = 1;
nodes = (
"322 816 OFFCURVE",
"394 876 OFFCURVE",
"423 912 CURVE",
"424 912 OFFCURVE",
"426 912 OFFCURVE",
"427 912 CURVE",
"443 876 OFFCURVE",
"489 816 OFFCURVE",
"523 783 CURVE",
"592 829 LINE",
"556 857 OFFCURVE",
"488 936 OFFCURVE",
"472 972 CURVE",
"463 972 OFFCURVE",
"412 972 OFFCURVE",
"403 972 CURVE",
"373 936 OFFCURVE",
"275 857 OFFCURVE",
"226 829 CURVE",
"277 783 LINE"
);
}
);
width = 577;
}
);
leftKerningGroup = S;
note = Scircumflex;
rightKerningGroup = S;
unicode = 015C;
},
{
glyphname = Scommaaccent;
lastChange = "2015-11-29 16:07:47 +0000";
layers = (
{
layerId = "AD8C1534-DD1F-4D30-8D71-C3A36519B1B2";
name = "Bold Italic";
paths = (
{
closed = 1;
nodes = (
"378 -10 OFFCURVE",
"509 63 OFFCURVE",
"536 195 CURVE SMOOTH",
"591 462 OFFCURVE",
"232 411 OFFCURVE",
"261 555 CURVE SMOOTH",
"276 628 OFFCURVE",
"338 658 OFFCURVE",
"414 658 CURVE SMOOTH",
"462 658 OFFCURVE",
"506 645 OFFCURVE",
"528 621 CURVE",
"523 575 OFFCURVE",
"522 535 OFFCURVE",
"526 500 CURVE",
"561 500 LINE",
"603 637 LINE",
"561 688 OFFCURVE",
"496 710 OFFCURVE",
"393 710 CURVE SMOOTH",
"243 710 OFFCURVE",
"127 651 OFFCURVE",
"102 530 CURVE SMOOTH",
"52 281 OFFCURVE",
"415 356 OFFCURVE",
"378 174 CURVE SMOOTH",
"360 83 OFFCURVE",
"278 42 OFFCURVE",
"200 42 CURVE SMOOTH",
"145 42 OFFCURVE",
"99 65 OFFCURVE",
"75 98 CURVE",
"80 143 OFFCURVE",
"86 196 OFFCURVE",
"82 231 CURVE",
"48 231 LINE",
"4 85 LINE",
"35 29 OFFCURVE",
"121 -10 OFFCURVE",
"229 -10 CURVE SMOOTH"
);
},
{
closed = 1;
nodes = (
"217 -295 OFFCURVE",
"277 -206 OFFCURVE",
"292 -130 CURVE SMOOTH",
"301 -89 OFFCURVE",
"283 -52 OFFCURVE",
"231 -52 CURVE SMOOTH",
"193 -52 OFFCURVE",
"155 -78 OFFCURVE",
"147 -120 CURVE SMOOTH",
"140 -152 OFFCURVE",
"158 -178 OFFCURVE",
"184 -185 CURVE",
"190 -188 OFFCURVE",
"196 -189 OFFCURVE",
"202 -189 CURVE",
"187 -234 OFFCURVE",
"143 -282 OFFCURVE",
"113 -308 CURVE",
"152 -344 LINE"
);
}
);
width = 577;
}
);
leftKerningGroup = S;
note = Scommaaccent;
rightKerningGroup = S;
unicode = 0218;
},
{
glyphname = Sdotaccent;
lastChange = "2015-11-29 16:07:47 +0000";
layers = (
{
layerId = "AD8C1534-DD1F-4D30-8D71-C3A36519B1B2";
name = "Bold Italic";
paths = (
{
closed = 1;
nodes = (
"378 -10 OFFCURVE",
"509 63 OFFCURVE",
"536 195 CURVE SMOOTH",
"591 462 OFFCURVE",
"232 411 OFFCURVE",
"261 555 CURVE SMOOTH",
"276 628 OFFCURVE",
"338 658 OFFCURVE",
"414 658 CURVE SMOOTH",
"462 658 OFFCURVE",
"506 645 OFFCURVE",
"528 621 CURVE",
"523 575 OFFCURVE",
"522 535 OFFCURVE",
"526 500 CURVE",
"561 500 LINE",
"603 637 LINE",
"561 688 OFFCURVE",
"496 710 OFFCURVE",
"393 710 CURVE SMOOTH",
"243 710 OFFCURVE",
"127 651 OFFCURVE",
"102 530 CURVE SMOOTH",
"52 281 OFFCURVE",
"415 356 OFFCURVE",
"378 174 CURVE SMOOTH",
"360 83 OFFCURVE",
"278 42 OFFCURVE",
"200 42 CURVE SMOOTH",
"145 42 OFFCURVE",
"99 65 OFFCURVE",
"75 98 CURVE",
"80 143 OFFCURVE",
"86 196 OFFCURVE",
"82 231 CURVE",
"48 231 LINE",
"4 85 LINE",
"35 29 OFFCURVE",
"121 -10 OFFCURVE",
"229 -10 CURVE SMOOTH"
);
},
{
closed = 1;
nodes = (
"451 785 OFFCURVE",
"480 812 OFFCURVE",
"487 847 CURVE SMOOTH",
"494 882 OFFCURVE",
"477 909 OFFCURVE",
"441 909 CURVE SMOOTH",
"405 909 OFFCURVE",
"377 882 OFFCURVE",
"370 847 CURVE SMOOTH",
"363 812 OFFCURVE",
"379 785 OFFCURVE",
"415 785 CURVE SMOOTH"
);
}
);
width = 577;
}
);
leftKerningGroup = S;
note = Sdotaccent;
rightKerningGroup = S;
unicode = 1E60;
},
{
glyphname = Sdotbelow;
lastChange = "2015-11-29 16:07:47 +0000";
layers = (
{
layerId = "AD8C1534-DD1F-4D30-8D71-C3A36519B1B2";
name = "Bold Italic";
paths = (
{
closed = 1;
nodes = (
"378 -10 OFFCURVE",
"509 63 OFFCURVE",
"536 195 CURVE SMOOTH",
"591 462 OFFCURVE",
"232 411 OFFCURVE",
"261 555 CURVE SMOOTH",
"276 628 OFFCURVE",
"338 658 OFFCURVE",
"414 658 CURVE SMOOTH",
"462 658 OFFCURVE",
"506 645 OFFCURVE",
"528 621 CURVE",
"523 575 OFFCURVE",
"522 535 OFFCURVE",
"526 500 CURVE",
"561 500 LINE",
"603 637 LINE",
"561 688 OFFCURVE",
"496 710 OFFCURVE",
"393 710 CURVE SMOOTH",
"243 710 OFFCURVE",
"127 651 OFFCURVE",
"102 530 CURVE SMOOTH",
"52 281 OFFCURVE",
"415 356 OFFCURVE",
"378 174 CURVE SMOOTH",
"360 83 OFFCURVE",
"278 42 OFFCURVE",
"200 42 CURVE SMOOTH",
"145 42 OFFCURVE",
"99 65 OFFCURVE",
"75 98 CURVE",
"80 143 OFFCURVE",
"86 196 OFFCURVE",
"82 231 CURVE",
"48 231 LINE",
"4 85 LINE",
"35 29 OFFCURVE",
"121 -10 OFFCURVE",
"229 -10 CURVE SMOOTH"
);
},
{
closed = 1;
nodes = (
"248 -178 OFFCURVE",
"276 -151 OFFCURVE",
"284 -116 CURVE SMOOTH",
"291 -81 OFFCURVE",
"273 -54 OFFCURVE",
"237 -54 CURVE SMOOTH",
"201 -54 OFFCURVE",
"172 -81 OFFCURVE",
"166 -116 CURVE SMOOTH",
"158 -151 OFFCURVE",
"176 -178 OFFCURVE",
"212 -178 CURVE SMOOTH"
);
}
);
width = 577;
}
);
leftKerningGroup = S;
note = Sdotbelow;
rightKerningGroup = S;
unicode = 1E62;
},
{
glyphname = Germandbls;
lastChange = "2015-11-29 16:07:48 +0000";
layers = (
{
layerId = "AD8C1534-DD1F-4D30-8D71-C3A36519B1B2";
name = "Bold Italic";
paths = (
{
closed = 1;
nodes = (
"579 -10 OFFCURVE",
"680 90 OFFCURVE",
"703 206 CURVE SMOOTH",
"724 310 OFFCURVE",
"656 383 OFFCURVE",
"522 401 CURVE",
"694 553 LINE",
"686 627 OFFCURVE",
"611 710 OFFCURVE",
"462 710 CURVE SMOOTH",
"273 710 OFFCURVE",
"172 625 OFFCURVE",
"144 484 CURVE SMOOTH",
"53 40 LINE",
"26 34 OFFCURVE",
"-2 27 OFFCURVE",
"-28 20 CURVE",
"-32 0 LINE",
"243 0 LINE",
"247 26 LINE",
"237 31 OFFCURVE",
"209 38 OFFCURVE",
"201 40 CURVE",
"300 525 LINE SMOOTH",
"317 610 OFFCURVE",
"371 658 OFFCURVE",
"448 658 CURVE SMOOTH",
"523 658 OFFCURVE",
"564 619 OFFCURVE",
"577 570 CURVE",
"365 382 LINE",
"360 356 LINE",
"448 356 LINE SMOOTH",
"539 356 OFFCURVE",
"573 294 OFFCURVE",
"555 206 CURVE SMOOTH",
"534 107 OFFCURVE",
"476 39 OFFCURVE",
"396 39 CURVE SMOOTH",
"361 39 OFFCURVE",
"324 45 OFFCURVE",
"291 57 CURVE",
"280 5 LINE",
"310 -5 OFFCURVE",
"347 -10 OFFCURVE",
"389 -10 CURVE SMOOTH"
);
}
);
width = 737;
}
);
note = uni1E9E;
unicode = 1E9E;
},
{
glyphname = Schwa;
lastChange = "2015-11-29 16:07:48 +0000";
layers = (
{
layerId = "AD8C1534-DD1F-4D30-8D71-C3A36519B1B2";
name = "Bold Italic";
paths = (
{
closed = 1;
nodes = (
"509 -10 OFFCURVE",
"674 111 OFFCURVE",
"722 344 CURVE SMOOTH",
"765 559 OFFCURVE",
"657 710 OFFCURVE",
"419 710 CURVE SMOOTH",
"274 710 OFFCURVE",
"182 662 OFFCURVE",
"130 629 CURVE",
"140 580 LINE",
"240 640 OFFCURVE",
"313 657 OFFCURVE",
"394 657 CURVE SMOOTH",
"556 657 OFFCURVE",
"605 493 OFFCURVE",
"572 328 CURVE SMOOTH",
"542 179 OFFCURVE",
"447 39 OFFCURVE",
"300 39 CURVE SMOOTH",
"186 39 OFFCURVE",
"165 174 OFFCURVE",
"190 294 CURVE",
"576 294 LINE",
"586 346 LINE",
"54 346 LINE",
"48 312 LINE SMOOTH",
"12 138 OFFCURVE",
"76 -10 OFFCURVE",
"294 -10 CURVE SMOOTH"
);
}
);
width = 729;
}
);
note = uni018F;
unicode = 018F;
},
{
glyphname = T;
lastChange = "2015-11-29 16:07:47 +0000";
layers = (
{
layerId = "AD8C1534-DD1F-4D30-8D71-C3A36519B1B2";
name = "Bold Italic";
paths = (
{
closed = 1;
nodes = (
"438 0 LINE",
"441 18 LINE",
"417 26 OFFCURVE",
"384 35 OFFCURVE",
"362 39 CURVE",
"486 650 LINE",
"637 650 LINE",
"632 619 OFFCURVE",
"635 523 OFFCURVE",
"644 501 CURVE",
"676 501 LINE",
"717 700 LINE",
"124 700 LINE",
"84 501 LINE",
"117 501 LINE",
"135 523 OFFCURVE",
"176 619 OFFCURVE",
"185 650 CURVE",
"336 650 LINE",
"211 40 LINE",
"181 33 OFFCURVE",
"149 27 OFFCURVE",
"124 20 CURVE",
"120 0 LINE"
);
}
);
width = 651;
}
);
leftKerningGroup = T;
note = T;
rightKerningGroup = T;
unicode = 0054;
},
{
glyphname = Tbar;
lastChange = "2015-11-29 16:07:47 +0000";
layers = (
{
layerId = "AD8C1534-DD1F-4D30-8D71-C3A36519B1B2";
name = "Bold Italic";
paths = (
{
closed = 1;
nodes = (
"438 0 LINE",
"441 18 LINE",
"417 26 OFFCURVE",
"384 35 OFFCURVE",
"362 39 CURVE",
"486 650 LINE",
"637 650 LINE",
"632 619 OFFCURVE",
"635 523 OFFCURVE",
"644 501 CURVE",
"676 501 LINE",
"717 700 LINE",
"124 700 LINE",
"84 501 LINE",
"117 501 LINE",
"135 523 OFFCURVE",
"176 619 OFFCURVE",
"185 650 CURVE",
"336 650 LINE",
"211 40 LINE",
"181 33 OFFCURVE",
"149 27 OFFCURVE",
"124 20 CURVE",
"120 0 LINE"
);
},
{
closed = 1;
nodes = (
"557 297 LINE",
"568 346 LINE",
"143 346 LINE",
"132 297 LINE"
);
}
);
width = 651;
}
);
leftKerningGroup = T;
note = Tbar;
rightKerningGroup = T;
unicode = 0166;
},
{
glyphname = Tcaron;
lastChange = "2015-11-29 16:07:49 +0000";
layers = (
{
layerId = "AD8C1534-DD1F-4D30-8D71-C3A36519B1B2";
name = "Bold Italic";
paths = (
{
closed = 1;
nodes = (
"438 0 LINE",
"441 18 LINE",
"417 26 OFFCURVE",
"384 35 OFFCURVE",
"362 39 CURVE",
"486 650 LINE",
"637 650 LINE",
"632 619 OFFCURVE",
"635 523 OFFCURVE",
"644 501 CURVE",
"676 501 LINE",
"717 700 LINE",
"124 700 LINE",
"84 501 LINE",
"117 501 LINE",
"135 523 OFFCURVE",
"176 619 OFFCURVE",
"185 650 CURVE",
"336 650 LINE",
"211 40 LINE",
"181 33 OFFCURVE",
"149 27 OFFCURVE",
"124 20 CURVE",
"120 0 LINE"
);
},
{
closed = 1;
nodes = (
"411 786 OFFCURVE",
"462 786 OFFCURVE",
"471 786 CURVE",
"501 822 OFFCURVE",
"601 900 OFFCURVE",
"649 929 CURVE",
"599 974 LINE",
"552 942 OFFCURVE",
"481 882 OFFCURVE",
"450 846 CURVE",
"449 846 OFFCURVE",
"447 846 OFFCURVE",
"446 846 CURVE",
"432 882 OFFCURVE",
"385 942 OFFCURVE",
"352 974 CURVE",
"283 929 LINE",
"319 900 OFFCURVE",
"386 822 OFFCURVE",
"402 786 CURVE"
);
}
);
width = 651;
}
);
leftKerningGroup = T;
note = Tcaron;
rightKerningGroup = T;
unicode = 0164;
},
{
glyphname = Tcedilla;
lastChange = "2015-11-29 16:07:47 +0000";
layers = (
{
layerId = "AD8C1534-DD1F-4D30-8D71-C3A36519B1B2";
name = "Bold Italic";
paths = (
{
closed = 1;
nodes = (
"438 0 LINE",
"441 18 LINE",
"417 26 OFFCURVE",
"384 35 OFFCURVE",
"362 39 CURVE",
"486 650 LINE",
"637 650 LINE",
"632 619 OFFCURVE",
"635 523 OFFCURVE",
"644 501 CURVE",
"676 501 LINE",
"717 700 LINE",
"124 700 LINE",
"84 501 LINE",
"117 501 LINE",
"135 523 OFFCURVE",
"176 619 OFFCURVE",
"185 650 CURVE",
"336 650 LINE",
"211 40 LINE",
"181 33 OFFCURVE",
"149 27 OFFCURVE",
"124 20 CURVE",
"120 0 LINE"
);
},
{
closed = 1;
nodes = (
"271 -252 OFFCURVE",
"342 -216 OFFCURVE",
"357 -145 CURVE SMOOTH",
"364 -104 OFFCURVE",
"343 -65 OFFCURVE",
"272 -61 CURVE",
"268 -61 OFFCURVE",
"262 -60 OFFCURVE",
"259 -60 CURVE",
"316 24 LINE",
"252 24 LINE",
"187 -70 LINE",
"204 -104 LINE",
"212 -103 OFFCURVE",
"220 -102 OFFCURVE",
"227 -102 CURVE SMOOTH",
"257 -102 OFFCURVE",
"291 -111 OFFCURVE",
"284 -145 CURVE SMOOTH",
"275 -187 OFFCURVE",
"236 -200 OFFCURVE",
"195 -200 CURVE SMOOTH",
"167 -200 OFFCURVE",
"139 -193 OFFCURVE",
"123 -182 CURVE",
"92 -221 LINE",
"117 -241 OFFCURVE",
"159 -252 OFFCURVE",
"196 -252 CURVE SMOOTH"
);
}
);
width = 651;
}
);
leftKerningGroup = T;
note = Tcedilla;
rightKerningGroup = T;
unicode = 0162;
},
{
glyphname = Tcommaaccent;
lastChange = "2015-11-29 16:07:49 +0000";
layers = (
{
layerId = "AD8C1534-DD1F-4D30-8D71-C3A36519B1B2";
name = "Bold Italic";
paths = (
{
closed = 1;
nodes = (
"438 0 LINE",
"441 18 LINE",
"417 26 OFFCURVE",
"384 35 OFFCURVE",
"362 39 CURVE",
"486 650 LINE",
"637 650 LINE",
"632 619 OFFCURVE",
"635 523 OFFCURVE",
"644 501 CURVE",
"676 501 LINE",
"717 700 LINE",
"124 700 LINE",
"84 501 LINE",
"117 501 LINE",
"135 523 OFFCURVE",
"176 619 OFFCURVE",
"185 650 CURVE",
"336 650 LINE",
"211 40 LINE",
"181 33 OFFCURVE",
"149 27 OFFCURVE",
"124 20 CURVE",
"120 0 LINE"
);
},
{
closed = 1;
nodes = (
"245 -319 OFFCURVE",
"304 -235 OFFCURVE",
"319 -159 CURVE SMOOTH",
"328 -117 OFFCURVE",
"312 -81 OFFCURVE",
"260 -81 CURVE SMOOTH",
"222 -81 OFFCURVE",
"184 -106 OFFCURVE",
"175 -148 CURVE SMOOTH",
"168 -188 OFFCURVE",
"192 -215 OFFCURVE",
"230 -217 CURVE",
"215 -261 OFFCURVE",
"172 -306 OFFCURVE",
"143 -332 CURVE",
"181 -368 LINE"
);
}
);
width = 651;
}
);
leftKerningGroup = T;
note = Tcommaaccent;
rightKerningGroup = T;
unicode = 021A;
},
{
glyphname = Tdotbelow;
lastChange = "2015-11-29 16:07:47 +0000";
layers = (
{
layerId = "AD8C1534-DD1F-4D30-8D71-C3A36519B1B2";
name = "Bold Italic";
paths = (
{
closed = 1;
nodes = (
"438 0 LINE",
"441 18 LINE",
"417 26 OFFCURVE",
"384 35 OFFCURVE",
"362 39 CURVE",
"486 650 LINE",
"637 650 LINE",
"632 619 OFFCURVE",
"635 523 OFFCURVE",
"644 501 CURVE",
"676 501 LINE",
"717 700 LINE",
"124 700 LINE",
"84 501 LINE",
"117 501 LINE",
"135 523 OFFCURVE",
"176 619 OFFCURVE",
"185 650 CURVE",
"336 650 LINE",
"211 40 LINE",
"181 33 OFFCURVE",
"149 27 OFFCURVE",
"124 20 CURVE",
"120 0 LINE"
);
},
{
closed = 1;
nodes = (
"278 -178 OFFCURVE",
"306 -151 OFFCURVE",
"314 -116 CURVE SMOOTH",
"320 -81 OFFCURVE",
"303 -54 OFFCURVE",
"267 -54 CURVE SMOOTH",
"231 -54 OFFCURVE",
"202 -81 OFFCURVE",
"196 -116 CURVE SMOOTH",
"188 -151 OFFCURVE",
"206 -178 OFFCURVE",
"242 -178 CURVE SMOOTH"
);
}
);
width = 651;
}
);
leftKerningGroup = T;
note = Tdotbelow;
rightKerningGroup = T;
unicode = 1E6C;
},
{
glyphname = Tlinebelow;
lastChange = "2015-11-29 16:07:48 +0000";
layers = (
{
layerId = "AD8C1534-DD1F-4D30-8D71-C3A36519B1B2";
name = "Bold Italic";
paths = (
{
closed = 1;
nodes = (
"438 0 LINE",
"441 18 LINE",
"417 26 OFFCURVE",
"384 35 OFFCURVE",
"362 39 CURVE",
"486 650 LINE",
"637 650 LINE",
"632 619 OFFCURVE",
"635 523 OFFCURVE",
"644 501 CURVE",
"676 501 LINE",
"717 700 LINE",
"124 700 LINE",
"84 501 LINE",
"117 501 LINE",
"135 523 OFFCURVE",
"176 619 OFFCURVE",
"185 650 CURVE",
"336 650 LINE",
"211 40 LINE",
"181 33 OFFCURVE",
"149 27 OFFCURVE",
"124 20 CURVE",
"120 0 LINE"
);
},
{
closed = 1;
nodes = (
"442 -109 LINE",
"453 -61 LINE",
"79 -61 LINE",
"69 -109 LINE"
);
}
);
width = 651;
}
);
leftKerningGroup = T;
note = Tlinebelow;
rightKerningGroup = T;
unicode = 1E6E;
},
{
glyphname = U;
lastChange = "2015-11-29 16:07:49 +0000";
layers = (
{
layerId = "AD8C1534-DD1F-4D30-8D71-C3A36519B1B2";
name = "Bold Italic";
paths = (
{
closed = 1;
nodes = (
"525 -10 OFFCURVE",
"634 69 OFFCURVE",
"665 220 CURVE SMOOTH",
"755 659 LINE",
"768 661 OFFCURVE",
"799 669 OFFCURVE",
"837 682 CURVE",
"841 700 LINE",
"626 700 LINE",
"622 682 LINE",
"648 672 OFFCURVE",
"672 666 OFFCURVE",
"696 661 CURVE",
"603 206 LINE SMOOTH",
"578 83 OFFCURVE",
"483 42 OFFCURVE",
"390 42 CURVE SMOOTH",
"298 42 OFFCURVE",
"221 79 OFFCURVE",
"247 206 CURVE SMOOTH",
"340 659 LINE",
"368 666 OFFCURVE",
"396 672 OFFCURVE",
"421 680 CURVE",
"425 700 LINE",
"121 700 LINE",
"117 682 LINE",
"142 672 OFFCURVE",
"168 665 OFFCURVE",
"190 660 CURVE",
"100 220 LINE SMOOTH",
"67 60 OFFCURVE",
"158 -10 OFFCURVE",
"342 -10 CURVE SMOOTH"
);
}
);
width = 770;
}
);
leftKerningGroup = U;
note = U;
rightKerningGroup = U;
unicode = 0055;
},
{
glyphname = Uacute;
lastChange = "2015-11-29 16:07:49 +0000";
layers = (
{
layerId = "AD8C1534-DD1F-4D30-8D71-C3A36519B1B2";
name = "Bold Italic";
paths = (
{
closed = 1;
nodes = (
"525 -10 OFFCURVE",
"634 69 OFFCURVE",
"665 220 CURVE SMOOTH",
"755 659 LINE",
"768 661 OFFCURVE",
"799 669 OFFCURVE",
"837 682 CURVE",
"841 700 LINE",
"626 700 LINE",
"622 682 LINE",
"648 672 OFFCURVE",
"672 666 OFFCURVE",
"696 661 CURVE",
"603 206 LINE SMOOTH",
"578 83 OFFCURVE",
"483 42 OFFCURVE",
"390 42 CURVE SMOOTH",
"298 42 OFFCURVE",
"221 79 OFFCURVE",
"247 206 CURVE SMOOTH",
"340 659 LINE",
"368 666 OFFCURVE",
"396 672 OFFCURVE",
"421 680 CURVE",
"425 700 LINE",
"121 700 LINE",
"117 682 LINE",
"142 672 OFFCURVE",
"168 665 OFFCURVE",
"190 660 CURVE",
"100 220 LINE SMOOTH",
"67 60 OFFCURVE",
"158 -10 OFFCURVE",
"342 -10 CURVE SMOOTH"
);
},
{
closed = 1;
nodes = (
"627 879 LINE SMOOTH",
"661 898 OFFCURVE",
"681 916 OFFCURVE",
"686 940 CURVE SMOOTH",
"690 959 OFFCURVE",
"680 982 OFFCURVE",
"649 982 CURVE SMOOTH",
"616 982 OFFCURVE",
"587 954 OFFCURVE",
"580 947 CURVE",
"437 821 LINE",
"455 786 LINE"
);
}
);
width = 770;
}
);
leftKerningGroup = U;
note = Uacute;
rightKerningGroup = U;
unicode = 00DA;
},
{
glyphname = Ubreve;
lastChange = "2015-11-29 16:07:47 +0000";
layers = (
{
layerId = "AD8C1534-DD1F-4D30-8D71-C3A36519B1B2";
name = "Bold Italic";
paths = (
{
closed = 1;
nodes = (
"525 -10 OFFCURVE",
"634 69 OFFCURVE",
"665 220 CURVE SMOOTH",
"755 659 LINE",
"768 661 OFFCURVE",
"799 669 OFFCURVE",
"837 682 CURVE",
"841 700 LINE",
"626 700 LINE",
"622 682 LINE",
"648 672 OFFCURVE",
"672 666 OFFCURVE",
"696 661 CURVE",
"603 206 LINE SMOOTH",
"578 83 OFFCURVE",
"483 42 OFFCURVE",
"390 42 CURVE SMOOTH",
"298 42 OFFCURVE",
"221 79 OFFCURVE",
"247 206 CURVE SMOOTH",
"340 659 LINE",
"368 666 OFFCURVE",
"396 672 OFFCURVE",
"421 680 CURVE",
"425 700 LINE",
"121 700 LINE",
"117 682 LINE",
"142 672 OFFCURVE",
"168 665 OFFCURVE",
"190 660 CURVE",
"100 220 LINE SMOOTH",
"67 60 OFFCURVE",
"158 -10 OFFCURVE",
"342 -10 CURVE SMOOTH"
);
},
{
closed = 1;
nodes = (
"601 781 OFFCURVE",
"675 824 OFFCURVE",
"707 915 CURVE",
"625 915 LINE",
"603 842 OFFCURVE",
"556 833 OFFCURVE",
"517 833 CURVE SMOOTH",
"478 833 OFFCURVE",
"435 842 OFFCURVE",
"442 915 CURVE",
"361 915 LINE",
"357 824 OFFCURVE",
"412 781 OFFCURVE",
"507 781 CURVE SMOOTH"
);
}
);
width = 770;
}
);
leftKerningGroup = U;
note = Ubreve;
rightKerningGroup = U;
unicode = 016C;
},
{
glyphname = Ucaron;
lastChange = "2015-11-29 16:07:48 +0000";
layers = (
{
layerId = "AD8C1534-DD1F-4D30-8D71-C3A36519B1B2";
name = "Bold Italic";
paths = (
{
closed = 1;
nodes = (
"525 -10 OFFCURVE",
"634 69 OFFCURVE",
"665 220 CURVE SMOOTH",
"755 659 LINE",
"768 661 OFFCURVE",
"799 669 OFFCURVE",
"837 682 CURVE",
"841 700 LINE",
"626 700 LINE",
"622 682 LINE",
"648 672 OFFCURVE",
"672 666 OFFCURVE",
"696 661 CURVE",
"603 206 LINE SMOOTH",
"578 83 OFFCURVE",
"483 42 OFFCURVE",
"390 42 CURVE SMOOTH",
"298 42 OFFCURVE",
"221 79 OFFCURVE",
"247 206 CURVE SMOOTH",
"340 659 LINE",
"368 666 OFFCURVE",
"396 672 OFFCURVE",
"421 680 CURVE",
"425 700 LINE",
"121 700 LINE",
"117 682 LINE",
"142 672 OFFCURVE",
"168 665 OFFCURVE",
"190 660 CURVE",
"100 220 LINE SMOOTH",
"67 60 OFFCURVE",
"158 -10 OFFCURVE",
"342 -10 CURVE SMOOTH"
);
},
{
closed = 1;
nodes = (
"470 786 OFFCURVE",
"522 786 OFFCURVE",
"531 786 CURVE",
"560 822 OFFCURVE",
"660 900 OFFCURVE",
"708 929 CURVE",
"658 974 LINE",
"611 942 OFFCURVE",
"540 882 OFFCURVE",
"509 846 CURVE",
"508 846 OFFCURVE",
"507 846 OFFCURVE",
"506 846 CURVE",
"491 882 OFFCURVE",
"444 942 OFFCURVE",
"412 974 CURVE",
"342 929 LINE",
"379 900 OFFCURVE",
"445 822 OFFCURVE",
"461 786 CURVE"
);
}
);
width = 770;
}
);
leftKerningGroup = U;
note = Ucaron;
rightKerningGroup = U;
unicode = 01D3;
},
{
glyphname = Ucircumflex;
lastChange = "2015-11-29 16:07:48 +0000";
layers = (
{
layerId = "AD8C1534-DD1F-4D30-8D71-C3A36519B1B2";
name = "Bold Italic";
paths = (
{
closed = 1;
nodes = (
"525 -10 OFFCURVE",
"634 69 OFFCURVE",
"665 220 CURVE SMOOTH",
"755 659 LINE",
"768 661 OFFCURVE",
"799 669 OFFCURVE",
"837 682 CURVE",
"841 700 LINE",
"626 700 LINE",
"622 682 LINE",
"648 672 OFFCURVE",
"672 666 OFFCURVE",
"696 661 CURVE",
"603 206 LINE SMOOTH",
"578 83 OFFCURVE",
"483 42 OFFCURVE",
"390 42 CURVE SMOOTH",
"298 42 OFFCURVE",
"221 79 OFFCURVE",
"247 206 CURVE SMOOTH",
"340 659 LINE",
"368 666 OFFCURVE",
"396 672 OFFCURVE",
"421 680 CURVE",
"425 700 LINE",
"121 700 LINE",
"117 682 LINE",
"142 672 OFFCURVE",
"168 665 OFFCURVE",
"190 660 CURVE",
"100 220 LINE SMOOTH",
"67 60 OFFCURVE",
"158 -10 OFFCURVE",
"342 -10 CURVE SMOOTH"
);
},
{
closed = 1;
nodes = (
"420 816 OFFCURVE",
"492 876 OFFCURVE",
"521 912 CURVE",
"522 912 OFFCURVE",
"524 912 OFFCURVE",
"525 912 CURVE",
"541 876 OFFCURVE",
"587 816 OFFCURVE",
"621 783 CURVE",
"690 829 LINE",
"653 857 OFFCURVE",
"586 936 OFFCURVE",
"570 972 CURVE",
"561 972 OFFCURVE",
"509 972 OFFCURVE",
"501 972 CURVE",
"471 936 OFFCURVE",
"373 857 OFFCURVE",
"324 829 CURVE",
"375 783 LINE"
);
}
);
width = 770;
}
);
leftKerningGroup = U;
note = Ucircumflex;
rightKerningGroup = U;
unicode = 00DB;
},
{
glyphname = Udieresis;
lastChange = "2015-11-29 16:07:47 +0000";
layers = (
{
layerId = "AD8C1534-DD1F-4D30-8D71-C3A36519B1B2";
name = "Bold Italic";
paths = (
{
closed = 1;
nodes = (
"525 -10 OFFCURVE",
"634 69 OFFCURVE",
"665 220 CURVE SMOOTH",
"755 659 LINE",
"768 661 OFFCURVE",
"799 669 OFFCURVE",
"837 682 CURVE",
"841 700 LINE",
"626 700 LINE",
"622 682 LINE",
"648 672 OFFCURVE",
"672 666 OFFCURVE",
"696 661 CURVE",
"603 206 LINE SMOOTH",
"578 83 OFFCURVE",
"483 42 OFFCURVE",
"390 42 CURVE SMOOTH",
"298 42 OFFCURVE",
"221 79 OFFCURVE",
"247 206 CURVE SMOOTH",
"340 659 LINE",
"368 666 OFFCURVE",
"396 672 OFFCURVE",
"421 680 CURVE",
"425 700 LINE",
"121 700 LINE",
"117 682 LINE",
"142 672 OFFCURVE",
"168 665 OFFCURVE",
"190 660 CURVE",
"100 220 LINE SMOOTH",
"67 60 OFFCURVE",
"158 -10 OFFCURVE",
"342 -10 CURVE SMOOTH"
);
},
{
closed = 1;
nodes = (
"439 785 OFFCURVE",
"468 812 OFFCURVE",
"476 847 CURVE SMOOTH",
"483 882 OFFCURVE",
"465 909 OFFCURVE",
"429 909 CURVE SMOOTH",
"394 909 OFFCURVE",
"365 882 OFFCURVE",
"359 847 CURVE SMOOTH",
"351 812 OFFCURVE",
"368 785 OFFCURVE",
"403 785 CURVE SMOOTH"
);
},
{
closed = 1;
nodes = (
"670 785 OFFCURVE",
"699 812 OFFCURVE",
"706 847 CURVE SMOOTH",
"713 882 OFFCURVE",
"696 909 OFFCURVE",
"659 909 CURVE SMOOTH",
"623 909 OFFCURVE",
"595 882 OFFCURVE",
"588 847 CURVE SMOOTH",
"580 812 OFFCURVE",
"597 785 OFFCURVE",
"633 785 CURVE SMOOTH"
);
}
);
width = 770;
}
);
leftKerningGroup = U;
note = Udieresis;
rightKerningGroup = U;
unicode = 00DC;
},
{
glyphname = Udieresisacute;
lastChange = "2015-11-29 16:07:48 +0000";
layers = (
{
layerId = "AD8C1534-DD1F-4D30-8D71-C3A36519B1B2";
name = "Bold Italic";
paths = (
{
closed = 1;
nodes = (
"525 -10 OFFCURVE",
"634 69 OFFCURVE",
"665 220 CURVE SMOOTH",
"755 659 LINE",
"768 661 OFFCURVE",
"799 669 OFFCURVE",
"837 682 CURVE",
"841 700 LINE",
"626 700 LINE",
"622 682 LINE",
"648 672 OFFCURVE",
"672 666 OFFCURVE",
"696 661 CURVE",
"603 206 LINE SMOOTH",
"578 83 OFFCURVE",
"483 42 OFFCURVE",
"390 42 CURVE SMOOTH",
"298 42 OFFCURVE",
"221 79 OFFCURVE",
"247 206 CURVE SMOOTH",
"340 659 LINE",
"368 666 OFFCURVE",
"396 672 OFFCURVE",
"421 680 CURVE",
"425 700 LINE",
"121 700 LINE",
"117 682 LINE",
"142 672 OFFCURVE",
"168 665 OFFCURVE",
"190 660 CURVE",
"100 220 LINE SMOOTH",
"67 60 OFFCURVE",
"158 -10 OFFCURVE",
"342 -10 CURVE SMOOTH"
);
},
{
closed = 1;
nodes = (
"442 785 OFFCURVE",
"471 812 OFFCURVE",
"479 847 CURVE SMOOTH",
"485 881 OFFCURVE",
"468 909 OFFCURVE",
"432 909 CURVE SMOOTH",
"395 909 OFFCURVE",
"367 881 OFFCURVE",
"361 847 CURVE SMOOTH",
"353 812 OFFCURVE",
"369 785 OFFCURVE",
"406 785 CURVE SMOOTH"
);
},
{
closed = 1;
nodes = (
"673 785 OFFCURVE",
"701 812 OFFCURVE",
"709 847 CURVE SMOOTH",
"716 881 OFFCURVE",
"699 909 OFFCURVE",
"662 909 CURVE SMOOTH",
"626 909 OFFCURVE",
"598 881 OFFCURVE",
"591 847 CURVE SMOOTH",
"583 812 OFFCURVE",
"600 785 OFFCURVE",
"636 785 CURVE SMOOTH"
);
},
{
closed = 1;
nodes = (
"665 1037 LINE SMOOTH",
"700 1056 OFFCURVE",
"720 1075 OFFCURVE",
"724 1098 CURVE SMOOTH",
"728 1117 OFFCURVE",
"719 1141 OFFCURVE",
"686 1141 CURVE SMOOTH",
"653 1141 OFFCURVE",
"625 1112 OFFCURVE",
"619 1106 CURVE",
"484 986 LINE",
"502 951 LINE"
);
}
);
width = 770;
}
);
leftKerningGroup = U;
note = Udieresisacute;
rightKerningGroup = U;
unicode = 01D7;
},
